<svg width="1190" height="750" viewBox="0 0 1190 750" fill="none" xmlns="http://www.w3.org/2000/svg">
<rect width="1190" height="750" fill="white"/>
<rect x="99" y="67" width="580" height="580" fill="#0026FF" fill-opacity="0.12"/>
<path d="M79 67V667H679" stroke="black" stroke-width="2"/>
<path d="M47 68.452L47 71.356L52.632 71.356L52.632 74.788C52.632 77.604 54.48 79.716 57.362 79.716L57.67 79.716C60.552 79.716 62.4 77.692 62.4 74.788L62.4 68.452L47 68.452ZM55.272 71.356L59.76 71.356L59.76 74.502C59.76 75.888 58.946 76.812 57.626 76.812L57.406 76.812C56.086 76.812 55.272 75.866 55.272 74.502L55.272 71.356ZM46.692 84.9905C46.692 87.2785 47.924 87.9605 48.474 88.1585L48.474 88.5765L48.452 88.5765C47.572 88.5765 47 89.3685 47 90.4465L47 92.2945L49.288 92.2945L49.288 91.4145C49.288 91.0185 49.508 90.7985 49.948 90.7985L54.018 90.7985C56.746 90.7985 58.22 88.9945 58.22 86.1345C58.22 83.2965 56.79 81.8665 55.14 81.3385L54.282 83.8905C55.272 84.0885 55.976 84.7045 55.976 86.0905C55.976 87.4985 55.228 88.1145 54.216 88.1145L53.6 88.1145L53.6 85.1225C53.6 82.6585 52.434 80.8985 50.19 80.8985C47.946 80.8985 46.692 82.6585 46.692 84.9905ZM48.936 85.4745C48.936 84.2865 49.486 83.6705 50.278 83.6705C51.07 83.6705 51.532 84.2865 51.532 85.3205L51.532 88.1145L51.312 88.1145C49.86 88.1145 48.936 87.0145 48.936 85.4745ZM46.692 98.7673C46.692 101.539 47.99 103.343 50.278 103.343C52.566 103.343 53.27 101.407 53.71 98.9433L53.82 98.3273C53.996 97.3153 54.282 96.6993 54.986 96.6993C55.624 96.6993 56.02 97.2713 56.02 98.3273C56.02 99.3833 55.602 100.131 54.48 100.373L55.272 102.947C57.032 102.441 58.22 100.769 58.22 98.3273C58.22 95.7313 57.01 94.0153 54.854 94.0153C52.698 94.0153 51.84 95.9073 51.422 98.1953L51.312 98.8113C51.07 100.109 50.762 100.659 50.08 100.659C49.398 100.659 48.892 100.043 48.892 98.7673C48.892 97.4913 49.376 96.4573 50.916 96.1713L50.256 93.6193C47.968 93.9933 46.692 95.9073 46.692 98.7673ZM46.692 110.304C46.692 113.076 47.99 114.88 50.278 114.88C52.566 114.88 53.27 112.944 53.71 110.48L53.82 109.864C53.996 108.852 54.282 108.236 54.986 108.236C55.624 108.236 56.02 108.808 56.02 109.864C56.02 110.92 55.602 111.668 54.48 111.91L55.272 114.484C57.032 113.978 58.22 112.306 58.22 109.864C58.22 107.268 57.01 105.552 54.854 105.552C52.698 105.552 51.84 107.444 51.422 109.732L51.312 110.348C51.07 111.646 50.762 112.196 50.08 112.196C49.398 112.196 48.892 111.58 48.892 110.304C48.892 109.028 49.376 107.994 50.916 107.708L50.256 105.156C47.968 105.53 46.692 107.444 46.692 110.304ZM59.188 118.696C59.188 119.708 59.892 120.478 60.948 120.478C62.004 120.478 62.708 119.708 62.708 118.696C62.708 117.684 62.004 116.914 60.948 116.914C59.892 116.914 59.188 117.684 59.188 118.696ZM47 117.31L47 120.082L57.912 120.082L57.912 117.31L47 117.31ZM46.692 128.345C46.692 131.601 48.76 134.065 52.28 134.065L52.632 134.065C56.152 134.065 58.22 131.601 58.22 128.345C58.22 125.089 56.152 122.625 52.632 122.625L52.28 122.625C48.76 122.625 46.692 125.089 46.692 128.345ZM49.156 128.345C49.156 126.651 50.3 125.397 52.346 125.397L52.566 125.397C54.612 125.397 55.756 126.629 55.756 128.345C55.756 130.061 54.612 131.293 52.566 131.293L52.346 131.293C50.3 131.293 49.156 130.039 49.156 128.345ZM47 136.624L47 139.396L52.544 139.396C54.568 139.396 55.756 140.386 55.756 142.08C55.756 143.576 54.942 144.412 53.292 144.412L47 144.412L47 147.184L53.512 147.184C56.218 147.184 58.088 145.49 58.088 142.938C58.088 140.98 57.23 140.1 56.482 139.748L56.482 139.352L57.912 139.352L57.912 136.624L47 136.624Z" fill="black"/>
<path d="M559.452 695H562.356V689.368H565.788C568.604 689.368 570.716 687.52 570.716 684.638V684.33C570.716 681.448 568.692 679.6 565.788 679.6H559.452V695ZM562.356 686.728V682.24H565.502C566.888 682.24 567.812 683.054 567.812 684.374V684.594C567.812 685.914 566.866 686.728 565.502 686.728H562.356ZM572.817 695H575.589V688.796C575.589 687.256 576.601 686.508 578.009 686.508H579.373V684.044H578.053C577.041 684.044 576.249 684.44 575.941 685.32H575.545V684.088H572.817V695ZM586.345 695.308C589.601 695.308 592.065 693.24 592.065 689.72V689.368C592.065 685.848 589.601 683.78 586.345 683.78C583.089 683.78 580.625 685.848 580.625 689.368V689.72C580.625 693.24 583.089 695.308 586.345 695.308ZM586.345 692.844C584.651 692.844 583.397 691.7 583.397 689.654V689.434C583.397 687.388 584.629 686.244 586.345 686.244C588.061 686.244 589.293 687.388 589.293 689.434V689.654C589.293 691.7 588.039 692.844 586.345 692.844ZM604.642 682.9C605.654 682.9 606.424 682.196 606.424 681.14C606.424 680.084 605.654 679.38 604.642 679.38C603.63 679.38 602.86 680.084 602.86 681.14C602.86 682.196 603.63 682.9 604.642 682.9ZM596.084 695H598.856V686.376H603.256V695H606.028V684.088H598.856V682.548C598.856 682.108 599.076 681.888 599.472 681.888H601.144V679.6H598.504C597.052 679.6 596.084 680.568 596.084 682.064V684.088H593.312V686.376H596.084V695ZM614.23 695.308C617.354 695.308 619.136 693.482 619.708 691.128L617.024 690.49C616.782 691.898 615.968 692.844 614.296 692.844C612.624 692.844 611.348 691.722 611.348 689.654V689.434C611.348 687.366 612.624 686.244 614.296 686.244C615.968 686.244 616.782 687.256 616.958 688.576L619.642 688.004C619.18 685.584 617.354 683.78 614.23 683.78C611.062 683.78 608.576 685.826 608.576 689.39V689.698C608.576 693.262 611.062 695.308 614.23 695.308ZM623.381 682.812C624.393 682.812 625.163 682.108 625.163 681.052C625.163 679.996 624.393 679.292 623.381 679.292C622.369 679.292 621.599 679.996 621.599 681.052C621.599 682.108 622.369 682.812 623.381 682.812ZM621.995 695H624.767V684.088H621.995V695ZM632.811 695.308C635.803 695.308 637.101 693.614 637.717 692.448L635.451 691.26C635.077 692.096 634.439 692.888 632.899 692.888C631.359 692.888 630.193 691.854 630.127 690.358H638.069V689.412C638.069 686.068 635.979 683.78 632.767 683.78C629.511 683.78 627.311 685.98 627.311 689.412V689.676C627.311 693.108 629.533 695.308 632.811 695.308ZM630.149 688.29C630.347 687.036 631.249 686.2 632.745 686.2C634.175 686.2 635.121 687.036 635.253 688.29H630.149ZM640.536 695H643.308V689.456C643.308 687.432 644.298 686.244 645.992 686.244C647.488 686.244 648.324 687.058 648.324 688.708V695H651.096V688.488C651.096 685.782 649.402 683.912 646.85 683.912C644.892 683.912 644.012 684.77 643.66 685.518H643.264V684.088H640.536V695ZM659.219 695.308C662.343 695.308 664.125 693.482 664.697 691.128L662.013 690.49C661.771 691.898 660.957 692.844 659.285 692.844C657.613 692.844 656.337 691.722 656.337 689.654V689.434C656.337 687.366 657.613 686.244 659.285 686.244C660.957 686.244 661.771 687.256 661.947 688.576L664.631 688.004C664.169 685.584 662.343 683.78 659.219 683.78C656.051 683.78 653.565 685.826 653.565 689.39V689.698C653.565 693.262 656.051 695.308 659.219 695.308ZM668.171 699.4H675.035C676.487 699.4 677.455 698.432 677.455 696.936V684.088H674.683V689.632C674.683 691.656 673.693 692.844 671.999 692.844C670.503 692.844 669.667 692.03 669.667 690.38V684.088H666.895V690.6C666.895 693.306 668.589 695.176 671.141 695.176C673.099 695.176 673.979 694.318 674.331 693.57H674.727V696.32C674.727 696.76 674.507 696.98 674.111 696.98H668.171V699.4Z" fill="black"/>
<path d="M734.452 162H737.356V156.368H740.788C743.604 156.368 745.716 154.52 745.716 151.638V151.33C745.716 148.448 743.692 146.6 740.788 146.6H734.452V162ZM737.356 153.728V149.24H740.502C741.888 149.24 742.812 150.054 742.812 151.374V151.594C742.812 152.914 741.866 153.728 740.502 153.728H737.356ZM747.817 162H750.589V155.796C750.589 154.256 751.601 153.508 753.009 153.508H754.373V151.044H753.053C752.041 151.044 751.249 151.44 750.941 152.32H750.545V151.088H747.817V162ZM761.345 162.308C764.601 162.308 767.065 160.24 767.065 156.72V156.368C767.065 152.848 764.601 150.78 761.345 150.78C758.089 150.78 755.625 152.848 755.625 156.368V156.72C755.625 160.24 758.089 162.308 761.345 162.308ZM761.345 159.844C759.651 159.844 758.397 158.7 758.397 156.654V156.434C758.397 154.388 759.629 153.244 761.345 153.244C763.061 153.244 764.293 154.388 764.293 156.434V156.654C764.293 158.7 763.039 159.844 761.345 159.844ZM771.084 162H773.856V153.376H776.716V151.088H773.856V149.548C773.856 149.108 774.076 148.888 774.472 148.888H776.364V146.6H773.504C772.052 146.6 771.084 147.568 771.084 149.064V151.088H768.312V153.376H771.084V162ZM783.491 162.308C786.483 162.308 787.781 160.614 788.397 159.448L786.131 158.26C785.757 159.096 785.119 159.888 783.579 159.888C782.039 159.888 780.873 158.854 780.807 157.358H788.749V156.412C788.749 153.068 786.659 150.78 783.447 150.78C780.191 150.78 777.991 152.98 777.991 156.412V156.676C777.991 160.108 780.213 162.308 783.491 162.308ZM780.829 155.29C781.027 154.036 781.929 153.2 783.425 153.2C784.855 153.2 785.801 154.036 785.933 155.29H780.829ZM795.748 162.308C798.52 162.308 800.324 161.01 800.324 158.722C800.324 156.434 798.388 155.73 795.924 155.29L795.308 155.18C794.296 155.004 793.68 154.718 793.68 154.014C793.68 153.376 794.252 152.98 795.308 152.98C796.364 152.98 797.112 153.398 797.354 154.52L799.928 153.728C799.422 151.968 797.75 150.78 795.308 150.78C792.712 150.78 790.996 151.99 790.996 154.146C790.996 156.302 792.888 157.16 795.176 157.578L795.792 157.688C797.09 157.93 797.64 158.238 797.64 158.92C797.64 159.602 797.024 160.108 795.748 160.108C794.472 160.108 793.438 159.624 793.152 158.084L790.6 158.744C790.974 161.032 792.888 162.308 795.748 162.308ZM807.285 162.308C810.057 162.308 811.861 161.01 811.861 158.722C811.861 156.434 809.925 155.73 807.461 155.29L806.845 155.18C805.833 155.004 805.217 154.718 805.217 154.014C805.217 153.376 805.789 152.98 806.845 152.98C807.901 152.98 808.649 153.398 808.891 154.52L811.465 153.728C810.959 151.968 809.287 150.78 806.845 150.78C804.249 150.78 802.533 151.99 802.533 154.146C802.533 156.302 804.425 157.16 806.713 157.578L807.329 157.688C808.627 157.93 809.177 158.238 809.177 158.92C809.177 159.602 808.561 160.108 807.285 160.108C806.009 160.108 804.975 159.624 804.689 158.084L802.137 158.744C802.511 161.032 804.425 162.308 807.285 162.308ZM815.676 149.812C816.688 149.812 817.458 149.108 817.458 148.052C817.458 146.996 816.688 146.292 815.676 146.292C814.664 146.292 813.894 146.996 813.894 148.052C813.894 149.108 814.664 149.812 815.676 149.812ZM814.29 162H817.062V151.088H814.29V162ZM825.326 162.308C828.582 162.308 831.046 160.24 831.046 156.72V156.368C831.046 152.848 828.582 150.78 825.326 150.78C822.07 150.78 819.606 152.848 819.606 156.368V156.72C819.606 160.24 822.07 162.308 825.326 162.308ZM825.326 159.844C823.632 159.844 822.378 158.7 822.378 156.654V156.434C822.378 154.388 823.61 153.244 825.326 153.244C827.042 153.244 828.274 154.388 828.274 156.434V156.654C828.274 158.7 827.02 159.844 825.326 159.844ZM833.604 162H836.376V156.456C836.376 154.432 837.366 153.244 839.06 153.244C840.556 153.244 841.392 154.058 841.392 155.708V162H844.164V155.488C844.164 152.782 842.47 150.912 839.918 150.912C837.96 150.912 837.08 151.77 836.728 152.518H836.332V151.088H833.604V162ZM850.549 162.308C852.837 162.308 853.519 161.076 853.717 160.526H854.135V160.548C854.135 161.428 854.927 162 856.005 162H857.853V159.712H856.973C856.577 159.712 856.357 159.492 856.357 159.052V154.982C856.357 152.254 854.553 150.78 851.693 150.78C848.855 150.78 847.425 152.21 846.897 153.86L849.449 154.718C849.647 153.728 850.263 153.024 851.649 153.024C853.057 153.024 853.673 153.772 853.673 154.784V155.4H850.681C848.217 155.4 846.457 156.566 846.457 158.81C846.457 161.054 848.217 162.308 850.549 162.308ZM851.033 160.064C849.845 160.064 849.229 159.514 849.229 158.722C849.229 157.93 849.845 157.468 850.879 157.468H853.673V157.688C853.673 159.14 852.573 160.064 851.033 160.064ZM859.88 162H862.652V146.6H859.88V162Z" fill="black"/>
<path d="M734.452 525H737.356V519.368H740.788C743.604 519.368 745.716 517.52 745.716 514.638V514.33C745.716 511.448 743.692 509.6 740.788 509.6H734.452V525ZM737.356 516.728V512.24H740.502C741.888 512.24 742.812 513.054 742.812 514.374V514.594C742.812 515.914 741.866 516.728 740.502 516.728H737.356ZM752.532 525.308C755.524 525.308 756.822 523.614 757.438 522.448L755.172 521.26C754.798 522.096 754.16 522.888 752.62 522.888C751.08 522.888 749.914 521.854 749.848 520.358H757.79V519.412C757.79 516.068 755.7 513.78 752.488 513.78C749.232 513.78 747.032 515.98 747.032 519.412V519.676C747.032 523.108 749.254 525.308 752.532 525.308ZM749.87 518.29C750.068 517.036 750.97 516.2 752.466 516.2C753.896 516.2 754.842 517.036 754.974 518.29H749.87ZM760.257 525H763.029V518.796C763.029 517.256 764.041 516.508 765.449 516.508H766.813V514.044H765.493C764.481 514.044 763.689 514.44 763.381 515.32H762.985V514.088H760.257V525ZM773.254 525.308C776.026 525.308 777.83 524.01 777.83 521.722C777.83 519.434 775.894 518.73 773.43 518.29L772.814 518.18C771.802 518.004 771.186 517.718 771.186 517.014C771.186 516.376 771.758 515.98 772.814 515.98C773.87 515.98 774.618 516.398 774.86 517.52L777.434 516.728C776.928 514.968 775.256 513.78 772.814 513.78C770.218 513.78 768.502 514.99 768.502 517.146C768.502 519.302 770.394 520.16 772.682 520.578L773.298 520.688C774.596 520.93 775.146 521.238 775.146 521.92C775.146 522.602 774.53 523.108 773.254 523.108C771.978 523.108 770.944 522.624 770.658 521.084L768.106 521.744C768.48 524.032 770.394 525.308 773.254 525.308ZM785.451 525.308C788.707 525.308 791.171 523.24 791.171 519.72V519.368C791.171 515.848 788.707 513.78 785.451 513.78C782.195 513.78 779.731 515.848 779.731 519.368V519.72C779.731 523.24 782.195 525.308 785.451 525.308ZM785.451 522.844C783.757 522.844 782.503 521.7 782.503 519.654V519.434C782.503 517.388 783.735 516.244 785.451 516.244C787.167 516.244 788.399 517.388 788.399 519.434V519.654C788.399 521.7 787.145 522.844 785.451 522.844ZM793.729 525H796.501V519.456C796.501 517.432 797.491 516.244 799.185 516.244C800.681 516.244 801.517 517.058 801.517 518.708V525H804.289V518.488C804.289 515.782 802.595 513.912 800.043 513.912C798.085 513.912 797.205 514.77 796.853 515.518H796.457V514.088H793.729V525ZM810.674 525.308C812.962 525.308 813.644 524.076 813.842 523.526H814.26V523.548C814.26 524.428 815.052 525 816.13 525H817.978V522.712H817.098C816.702 522.712 816.482 522.492 816.482 522.052V517.982C816.482 515.254 814.678 513.78 811.818 513.78C808.98 513.78 807.55 515.21 807.022 516.86L809.574 517.718C809.772 516.728 810.388 516.024 811.774 516.024C813.182 516.024 813.798 516.772 813.798 517.784V518.4H810.806C808.342 518.4 806.582 519.566 806.582 521.81C806.582 524.054 808.342 525.308 810.674 525.308ZM811.158 523.064C809.97 523.064 809.354 522.514 809.354 521.722C809.354 520.93 809.97 520.468 811.004 520.468H813.798V520.688C813.798 522.14 812.698 523.064 811.158 523.064ZM820.005 525H822.777V509.6H820.005V525Z" fill="black"/>
<path d="M86.084 695.308C89.67 695.308 91.98 693.284 91.98 689.17V685.43C91.98 681.404 89.67 679.292 86.084 679.292C82.498 679.292 80.21 681.404 80.21 685.43V689.17C80.21 693.284 82.498 695.308 86.084 695.308ZM86.084 693.24C83.708 693.24 82.52 691.832 82.52 689.258V685.298C82.52 682.812 83.796 681.36 86.084 681.36C88.35 681.36 89.67 682.768 89.67 685.298V689.258C89.67 691.788 88.504 693.24 86.084 693.24Z" fill="black"/>
<path d="M756.874 215H759.184V199.6H754.96L751.55 206.42H753.992L756.522 201.228H756.874V215Z" fill="black"/>
<path d="M797.326 215.308C800.78 215.308 803.024 213.438 803.024 209.852V199.6H801.176V209.874C801.176 212.382 799.768 213.658 797.326 213.658C794.884 213.658 793.498 212.382 793.498 209.874V199.6H791.65V209.852C791.65 213.438 793.894 215.308 797.326 215.308ZM805.356 215H807.512L811.516 208.51H811.802L815.828 215H817.984L813.012 207.234L817.896 199.6H815.74L811.802 205.936H811.516L807.6 199.6H805.422L810.328 207.234L805.356 215ZM818.682 219.4H820.42L826.888 199.6H825.15L818.682 219.4ZM834.15 215.308C837.604 215.308 839.848 213.438 839.848 209.852V199.6H838V209.874C838 212.382 836.592 213.658 834.15 213.658C831.708 213.658 830.322 212.382 830.322 209.874V199.6H828.474V209.852C828.474 213.438 830.718 215.308 834.15 215.308ZM843.237 215H845.085V199.6H843.237V215Z" fill="black"/>
<rect x="755.627" y="185.414" width="30" height="30" transform="rotate(45 755.627 185.414)" stroke="black" stroke-width="2"/>
<path d="M969.074 215.308C972.418 215.308 974.772 213.284 974.772 210.204V209.94C974.772 206.838 972.462 204.99 969.734 204.99C967.644 204.99 966.61 205.76 966.104 206.486H965.752V204.638C965.752 202.592 966.984 201.36 969.184 201.36C971.34 201.36 972.33 202.504 972.33 204.022H974.662C974.662 201.162 972.594 199.292 969.184 199.292C965.752 199.292 963.442 201.206 963.442 204.814V210.138C963.442 213.24 965.708 215.308 969.074 215.308ZM969.096 213.24C967.072 213.24 965.752 212.052 965.752 210.16V209.984C965.752 208.092 967.094 206.86 969.096 206.86C971.12 206.86 972.462 208.092 972.462 209.984V210.16C972.462 212.052 971.142 213.24 969.096 213.24Z" fill="black"/>
<path d="M1004.76 215H1006.61V208.114H1013.47V206.442H1006.61V201.272H1014.07V199.6H1004.76V215ZM1019.86 215.308C1022.08 215.308 1022.98 214.252 1023.44 213.394H1023.71V213.504C1023.71 214.428 1024.34 215 1025.31 215H1026.83V213.526H1025.84C1025.44 213.526 1025.22 213.306 1025.22 212.866V208.004C1025.22 205.43 1023.6 203.934 1020.87 203.934C1018.16 203.934 1016.71 205.408 1016.2 207.212L1017.83 207.74C1018.16 206.354 1019.11 205.43 1020.85 205.43C1022.63 205.43 1023.51 206.376 1023.51 207.894V208.686H1019.88C1017.57 208.686 1015.83 209.764 1015.83 211.942C1015.83 214.098 1017.57 215.308 1019.86 215.308ZM1020.05 213.812C1018.56 213.812 1017.57 213.108 1017.57 211.898C1017.57 210.688 1018.56 210.094 1019.94 210.094H1023.51V210.336C1023.51 212.536 1022.12 213.812 1020.05 213.812ZM1035.17 215.308C1037.97 215.308 1040.25 213.218 1040.25 209.764V209.478C1040.25 206.046 1037.99 203.934 1035.17 203.934C1032.93 203.934 1031.78 204.946 1031.26 205.936H1030.95V199.6H1029.21V215H1030.9V213.218H1031.21C1031.78 214.296 1032.93 215.308 1035.17 215.308ZM1034.71 213.768C1032.49 213.768 1030.93 212.272 1030.93 209.72V209.522C1030.93 206.97 1032.49 205.474 1034.71 205.474C1036.93 205.474 1038.47 206.97 1038.47 209.522V209.72C1038.47 212.272 1036.91 213.768 1034.71 213.768ZM1043.37 215H1045.11V208.444C1045.11 206.64 1046.14 205.782 1047.7 205.782H1049.09V204.198H1047.81C1046.51 204.198 1045.74 204.616 1045.37 205.562H1045.06V204.242H1043.37V215ZM1052.52 202.57C1053.29 202.57 1053.86 202.02 1053.86 201.25C1053.86 200.458 1053.29 199.908 1052.52 199.908C1051.77 199.908 1051.2 200.458 1051.2 201.25C1051.2 202.02 1051.77 202.57 1052.52 202.57ZM1051.66 215H1053.4V204.242H1051.66V215ZM1062 215.308C1065.11 215.308 1066.78 213.372 1067.24 211.216L1065.52 210.842C1065.26 212.492 1064.16 213.746 1062.03 213.746C1059.89 213.746 1058.26 212.228 1058.26 209.72V209.522C1058.26 207.014 1059.89 205.496 1062.03 205.496C1064.16 205.496 1065.24 206.816 1065.46 208.4L1067.15 208.048C1066.8 205.87 1065.11 203.934 1062 203.934C1058.86 203.934 1056.53 206.046 1056.53 209.5V209.742C1056.53 213.196 1058.86 215.308 1062 215.308ZM1073.5 215.308C1075.72 215.308 1076.63 214.252 1077.09 213.394H1077.35V213.504C1077.35 214.428 1077.99 215 1078.96 215H1080.48V213.526H1079.49C1079.09 213.526 1078.87 213.306 1078.87 212.866V208.004C1078.87 205.43 1077.24 203.934 1074.51 203.934C1071.81 203.934 1070.36 205.408 1069.85 207.212L1071.48 207.74C1071.81 206.354 1072.75 205.43 1074.49 205.43C1076.27 205.43 1077.15 206.376 1077.15 207.894V208.686H1073.52C1071.21 208.686 1069.48 209.764 1069.48 211.942C1069.48 214.098 1071.21 215.308 1073.5 215.308ZM1073.7 213.812C1072.2 213.812 1071.21 213.108 1071.21 211.898C1071.21 210.688 1072.2 210.094 1073.59 210.094H1077.15V210.336C1077.15 212.536 1075.77 213.812 1073.7 213.812ZM1086.11 215H1088.97V213.482H1086.57C1086.11 213.482 1085.93 213.262 1085.93 212.822V205.76H1089.45V204.242H1085.93V200.414H1084.19V204.242H1080.96V205.76H1084.19V213.108C1084.19 214.274 1084.88 215 1086.11 215ZM1093.13 202.57C1093.9 202.57 1094.47 202.02 1094.47 201.25C1094.47 200.458 1093.9 199.908 1093.13 199.908C1092.38 199.908 1091.81 200.458 1091.81 201.25C1091.81 202.02 1092.38 202.57 1093.13 202.57ZM1092.27 215H1094.01V204.242H1092.27V215ZM1102.63 215.308C1105.89 215.308 1108.13 213.13 1108.13 209.764V209.478C1108.13 206.112 1105.89 203.934 1102.63 203.934C1099.38 203.934 1097.13 206.112 1097.13 209.478V209.764C1097.13 213.13 1099.38 215.308 1102.63 215.308ZM1102.63 213.746C1100.37 213.746 1098.87 212.184 1098.87 209.72V209.522C1098.87 207.058 1100.34 205.496 1102.63 205.496C1104.9 205.496 1106.39 207.058 1106.39 209.522V209.72C1106.39 212.184 1104.9 213.746 1102.63 213.746ZM1111.26 215H1113V209.588C1113 206.926 1114.45 205.562 1116.52 205.562C1118.32 205.562 1119.49 206.486 1119.49 208.62V215H1121.23V208.488C1121.23 205.606 1119.33 204.044 1116.96 204.044C1114.76 204.044 1113.72 205.034 1113.26 206.068H1112.95V204.242H1111.26V215Z" fill="black"/>
<rect x="968.627" y="185.414" width="30" height="30" transform="rotate(45 968.627 185.414)" stroke="black" stroke-width="2"/>
<path d="M846.326 93.308C849.956 93.308 851.98 91.13 851.98 87.632V87.346H850.154V87.698C850.154 90.008 848.944 91.658 846.326 91.658C843.708 91.658 842.168 89.964 842.168 87.104V83.496C842.168 80.636 843.708 78.942 846.326 78.942C848.944 78.942 850.154 80.592 850.154 82.902V83.078H851.98V82.968C851.98 79.47 849.956 77.292 846.326 77.292C842.674 77.292 840.32 79.47 840.32 83.54V87.06C840.32 91.13 842.674 93.308 846.326 93.308ZM859.913 93.308C863.169 93.308 865.413 91.13 865.413 87.764V87.478C865.413 84.112 863.169 81.934 859.913 81.934C856.657 81.934 854.413 84.112 854.413 87.478V87.764C854.413 91.13 856.657 93.308 859.913 93.308ZM859.913 91.746C857.647 91.746 856.151 90.184 856.151 87.72V87.522C856.151 85.058 857.625 83.496 859.913 83.496C862.179 83.496 863.675 85.058 863.675 87.522V87.72C863.675 90.184 862.179 91.746 859.913 91.746ZM868.541 93H870.279V86.532C870.279 84.596 871.401 83.54 872.985 83.54C874.481 83.54 875.361 84.442 875.361 85.872V93H877.099V86.532C877.099 84.596 878.221 83.54 879.805 83.54C881.301 83.54 882.181 84.442 882.181 85.872V93H883.919V85.718C883.919 83.43 882.401 82.044 880.267 82.044C878.441 82.044 877.495 82.88 877.011 83.936H876.703C876.219 82.88 875.207 82.044 873.535 82.044C871.841 82.044 870.961 82.814 870.543 83.584H870.235V82.242H868.541V93ZM887.469 97.4H889.207V91.306H889.515C890.043 92.296 891.187 93.308 893.431 93.308C896.247 93.308 898.513 91.196 898.513 87.764V87.478C898.513 84.024 896.225 81.934 893.431 81.934C891.187 81.934 890.043 82.946 889.471 84.024H889.163V82.242H887.469V97.4ZM892.969 91.768C890.747 91.768 889.185 90.272 889.185 87.72V87.522C889.185 84.97 890.747 83.474 892.969 83.474C895.169 83.474 896.731 84.97 896.731 87.522V87.72C896.731 90.272 895.191 91.768 892.969 91.768ZM901.627 93H903.365V77.6H901.627V93ZM911.947 93.308C914.829 93.308 916.105 91.702 916.765 90.338L915.269 89.612C914.741 90.8 913.839 91.768 911.991 91.768C909.857 91.768 908.317 90.382 908.251 88.072H917.007V87.28C917.007 84.002 914.895 81.934 911.837 81.934C908.691 81.934 906.491 84.178 906.491 87.5V87.764C906.491 91.086 908.669 93.308 911.947 93.308ZM908.273 86.642C908.537 84.64 909.879 83.474 911.837 83.474C913.773 83.474 915.115 84.64 915.247 86.642H908.273ZM920.039 93H921.777V86.532C921.777 84.596 922.899 83.54 924.483 83.54C925.979 83.54 926.859 84.442 926.859 85.872V93H928.597V86.532C928.597 84.596 929.719 83.54 931.303 83.54C932.799 83.54 933.679 84.442 933.679 85.872V93H935.417V85.718C935.417 83.43 933.899 82.044 931.765 82.044C929.939 82.044 928.993 82.88 928.509 83.936H928.201C927.717 82.88 926.705 82.044 925.033 82.044C923.339 82.044 922.459 82.814 922.041 83.584H921.733V82.242H920.039V93ZM943.895 93.308C946.777 93.308 948.053 91.702 948.713 90.338L947.217 89.612C946.689 90.8 945.787 91.768 943.939 91.768C941.805 91.768 940.265 90.382 940.199 88.072H948.955V87.28C948.955 84.002 946.843 81.934 943.785 81.934C940.639 81.934 938.439 84.178 938.439 87.5V87.764C938.439 91.086 940.617 93.308 943.895 93.308ZM940.221 86.642C940.485 84.64 941.827 83.474 943.785 83.474C945.721 83.474 947.063 84.64 947.195 86.642H940.221ZM951.986 93H953.724V87.588C953.724 84.926 955.176 83.562 957.244 83.562C959.048 83.562 960.214 84.486 960.214 86.62V93H961.952V86.488C961.952 83.606 960.06 82.044 957.684 82.044C955.484 82.044 954.45 83.034 953.988 84.068H953.68V82.242H951.986V93ZM969.138 93H971.998V91.482H969.6C969.138 91.482 968.962 91.262 968.962 90.822V83.76H972.482V82.242H968.962V78.414H967.224V82.242H963.99V83.76H967.224V91.108C967.224 92.274 967.906 93 969.138 93ZM978.532 93.308C980.754 93.308 981.656 92.252 982.118 91.394H982.382V91.504C982.382 92.428 983.02 93 983.988 93H985.506V91.526H984.516C984.12 91.526 983.9 91.306 983.9 90.866V86.004C983.9 83.43 982.272 81.934 979.544 81.934C976.838 81.934 975.386 83.408 974.88 85.212L976.508 85.74C976.838 84.354 977.784 83.43 979.522 83.43C981.304 83.43 982.184 84.376 982.184 85.894V86.686H978.554C976.244 86.686 974.506 87.764 974.506 89.942C974.506 92.098 976.244 93.308 978.532 93.308ZM978.73 91.812C977.234 91.812 976.244 91.108 976.244 89.898C976.244 88.688 977.234 88.094 978.62 88.094H982.184V88.336C982.184 90.536 980.798 91.812 978.73 91.812ZM987.887 93H989.625V86.444C989.625 84.64 990.659 83.782 992.221 83.782H993.607V82.198H992.331C991.033 82.198 990.263 82.616 989.889 83.562H989.581V82.242H987.887V93ZM997.478 97.4H1004.08C1005.31 97.4 1006.01 96.674 1006.01 95.508V82.242H1004.28V87.654C1004.28 90.338 1002.8 91.68 1000.76 91.68C998.93 91.68 997.786 90.778 997.786 88.644V82.242H996.048V88.776C996.048 91.658 997.918 93.198 1000.29 93.198C1002.49 93.198 1003.51 92.23 1003.97 91.284H1004.28V95.2C1004.28 95.64 1004.1 95.86 1003.64 95.86H997.478V97.4ZM1015.23 93H1017.08V86.796H1021.13C1023.84 86.796 1025.97 85.146 1025.97 82.352V82.066C1025.97 79.25 1023.88 77.6 1021.13 77.6H1015.23V93ZM1017.08 85.124V79.272H1020.93C1022.93 79.272 1024.12 80.306 1024.12 82.088V82.308C1024.12 84.112 1022.89 85.124 1020.93 85.124H1017.08ZM1028.51 93H1030.25V86.444C1030.25 84.64 1031.29 83.782 1032.85 83.782H1034.23V82.198H1032.96C1031.66 82.198 1030.89 82.616 1030.52 83.562H1030.21V82.242H1028.51V93ZM1041.39 93.308C1044.65 93.308 1046.89 91.13 1046.89 87.764V87.478C1046.89 84.112 1044.65 81.934 1041.39 81.934C1038.14 81.934 1035.89 84.112 1035.89 87.478V87.764C1035.89 91.13 1038.14 93.308 1041.39 93.308ZM1041.39 91.746C1039.13 91.746 1037.63 90.184 1037.63 87.72V87.522C1037.63 85.058 1039.1 83.496 1041.39 83.496C1043.66 83.496 1045.15 85.058 1045.15 87.522V87.72C1045.15 90.184 1043.66 91.746 1041.39 91.746ZM1059.64 80.592C1060.41 80.592 1060.99 80.042 1060.99 79.272C1060.99 78.48 1060.41 77.952 1059.64 77.952C1058.9 77.952 1058.32 78.48 1058.32 79.272C1058.32 80.042 1058.9 80.592 1059.64 80.592ZM1051.7 93H1053.44V83.76H1058.79V93H1060.52V82.242H1053.44V79.756C1053.44 79.316 1053.64 79.096 1054.1 79.096H1056.26V77.6H1053.62C1052.38 77.6 1051.7 78.326 1051.7 79.492V82.242H1048.4V83.76H1051.7V93ZM1064.18 93H1065.92V77.6H1064.18V93ZM1074.5 93.308C1077.38 93.308 1078.66 91.702 1079.32 90.338L1077.82 89.612C1077.29 90.8 1076.39 91.768 1074.54 91.768C1072.41 91.768 1070.87 90.382 1070.8 88.072H1079.56V87.28C1079.56 84.002 1077.45 81.934 1074.39 81.934C1071.24 81.934 1069.04 84.178 1069.04 87.5V87.764C1069.04 91.086 1071.22 93.308 1074.5 93.308ZM1070.82 86.642C1071.09 84.64 1072.43 83.474 1074.39 83.474C1076.32 83.474 1077.67 84.64 1077.8 86.642H1070.82Z" fill="black"/>
<path d="M634.074 326.308C637.418 326.308 639.772 324.284 639.772 321.204V320.94C639.772 317.838 637.462 315.99 634.734 315.99C632.644 315.99 631.61 316.76 631.104 317.486H630.752V315.638C630.752 313.592 631.984 312.36 634.184 312.36C636.34 312.36 637.33 313.504 637.33 315.022H639.662C639.662 312.162 637.594 310.292 634.184 310.292C630.752 310.292 628.442 312.206 628.442 315.814V321.138C628.442 324.24 630.708 326.308 634.074 326.308ZM634.096 324.24C632.072 324.24 630.752 323.052 630.752 321.16V320.984C630.752 319.092 632.094 317.86 634.096 317.86C636.12 317.86 637.462 319.092 637.462 320.984V321.16C637.462 323.052 636.142 324.24 634.096 324.24Z" fill="black"/>
<rect x="633.627" y="296.414" width="30" height="30" transform="rotate(45 633.627 296.414)" stroke="black" stroke-width="2"/>
<path d="M965.957 276H968.267V275.538C968.267 274.768 968.399 274.35 968.751 273.712L974.537 263.328V260.6H963.493V262.668H972.161V262.954L966.639 272.744C966.089 273.756 965.957 274.35 965.957 275.45V276Z" fill="black"/>
<path d="M1010.33 276.308C1013.96 276.308 1015.98 274.13 1015.98 270.632V270.346H1014.15V270.698C1014.15 273.008 1012.94 274.658 1010.33 274.658C1007.71 274.658 1006.17 272.964 1006.17 270.104V266.496C1006.17 263.636 1007.71 261.942 1010.33 261.942C1012.94 261.942 1014.15 263.592 1014.15 265.902V266.078H1015.98V265.968C1015.98 262.47 1013.96 260.292 1010.33 260.292C1006.67 260.292 1004.32 262.47 1004.32 266.54V270.06C1004.32 274.13 1006.67 276.308 1010.33 276.308ZM1023.91 276.308C1027.17 276.308 1029.41 274.13 1029.41 270.764V270.478C1029.41 267.112 1027.17 264.934 1023.91 264.934C1020.66 264.934 1018.41 267.112 1018.41 270.478V270.764C1018.41 274.13 1020.66 276.308 1023.91 276.308ZM1023.91 274.746C1021.65 274.746 1020.15 273.184 1020.15 270.72V270.522C1020.15 268.058 1021.63 266.496 1023.91 266.496C1026.18 266.496 1027.68 268.058 1027.68 270.522V270.72C1027.68 273.184 1026.18 274.746 1023.91 274.746ZM1032.54 276H1034.28V270.588C1034.28 267.926 1035.73 266.562 1037.8 266.562C1039.6 266.562 1040.77 267.486 1040.77 269.62V276H1042.51V269.488C1042.51 266.606 1040.61 265.044 1038.24 265.044C1036.04 265.044 1035 266.034 1034.54 267.068H1034.23V265.242H1032.54V276ZM1050.98 276.308C1054.09 276.308 1055.76 274.372 1056.22 272.216L1054.5 271.842C1054.24 273.492 1053.14 274.746 1051.01 274.746C1048.87 274.746 1047.24 273.228 1047.24 270.72V270.522C1047.24 268.014 1048.87 266.496 1051.01 266.496C1053.14 266.496 1054.22 267.816 1054.44 269.4L1056.13 269.048C1055.78 266.87 1054.09 264.934 1050.98 264.934C1047.84 264.934 1045.51 267.046 1045.51 270.5V270.742C1045.51 274.196 1047.84 276.308 1050.98 276.308ZM1064.11 276.308C1066.99 276.308 1068.27 274.702 1068.93 273.338L1067.43 272.612C1066.9 273.8 1066 274.768 1064.15 274.768C1062.02 274.768 1060.48 273.382 1060.41 271.072H1069.17V270.28C1069.17 267.002 1067.06 264.934 1064 264.934C1060.85 264.934 1058.65 267.178 1058.65 270.5V270.764C1058.65 274.086 1060.83 276.308 1064.11 276.308ZM1060.44 269.642C1060.7 267.64 1062.04 266.474 1064 266.474C1065.94 266.474 1067.28 267.64 1067.41 269.642H1060.44ZM1072.2 280.4H1073.94V274.306H1074.25C1074.78 275.296 1075.92 276.308 1078.16 276.308C1080.98 276.308 1083.25 274.196 1083.25 270.764V270.478C1083.25 267.024 1080.96 264.934 1078.16 264.934C1075.92 264.934 1074.78 265.946 1074.2 267.024H1073.9V265.242H1072.2V280.4ZM1077.7 274.768C1075.48 274.768 1073.92 273.272 1073.92 270.72V270.522C1073.92 267.97 1075.48 266.474 1077.7 266.474C1079.9 266.474 1081.46 267.97 1081.46 270.522V270.72C1081.46 273.272 1079.92 274.768 1077.7 274.768ZM1089.89 276H1092.75V274.482H1090.35C1089.89 274.482 1089.71 274.262 1089.71 273.822V266.76H1093.23V265.242H1089.71V261.414H1087.98V265.242H1084.74V266.76H1087.98V274.108C1087.98 275.274 1088.66 276 1089.89 276ZM1096.91 263.57C1097.68 263.57 1098.25 263.02 1098.25 262.25C1098.25 261.458 1097.68 260.908 1096.91 260.908C1096.16 260.908 1095.59 261.458 1095.59 262.25C1095.59 263.02 1096.16 263.57 1096.91 263.57ZM1096.05 276H1097.79V265.242H1096.05V276ZM1101.44 276H1103.18V270.588C1103.18 267.926 1104.63 266.562 1106.7 266.562C1108.5 266.562 1109.67 267.486 1109.67 269.62V276H1111.41V269.488C1111.41 266.606 1109.52 265.044 1107.14 265.044C1104.94 265.044 1103.91 266.034 1103.44 267.068H1103.14V265.242H1101.44V276ZM1114.41 270.676C1114.41 274.042 1116.67 276.11 1119.49 276.11C1121.75 276.11 1122.88 275.076 1123.4 274.108H1123.71V278.2C1123.71 278.64 1123.49 278.86 1123.05 278.86H1116.21V280.4H1123.51C1124.75 280.4 1125.41 279.674 1125.41 278.508V265.242H1123.76V267.024H1123.45C1122.88 265.968 1121.75 264.934 1119.49 264.934C1116.67 264.934 1114.41 267.002 1114.41 270.368V270.676ZM1119.95 274.57C1117.73 274.57 1116.17 273.096 1116.17 270.61V270.434C1116.17 267.948 1117.73 266.474 1119.95 266.474C1122.17 266.474 1123.71 267.948 1123.71 270.434V270.61C1123.71 273.096 1122.15 274.57 1119.95 274.57Z" fill="black"/>
<rect x="968.627" y="246.414" width="30" height="30" transform="rotate(45 968.627 246.414)" stroke="black" stroke-width="2"/>
<path d="M210.957 213H213.267V212.538C213.267 211.768 213.399 211.35 213.751 210.712L219.537 200.328V197.6H208.493V199.668H217.161V199.954L211.639 209.744C211.089 210.756 210.957 211.35 210.957 212.45V213Z" fill="black"/>
<rect x="213.627" y="183.414" width="30" height="30" transform="rotate(45 213.627 183.414)" stroke="black" stroke-width="2"/>
<path d="M969.007 337.308C972.549 337.308 974.903 335.614 974.903 332.908V332.666C974.903 330.488 973.385 329.454 972.263 329.19V328.838C973.385 328.508 974.661 327.518 974.661 325.582V325.34C974.661 322.876 972.351 321.292 969.007 321.292C965.641 321.292 963.353 322.876 963.353 325.34V325.582C963.353 327.518 964.629 328.508 965.751 328.838V329.19C964.629 329.454 963.089 330.488 963.089 332.666V332.908C963.089 335.614 965.443 337.308 969.007 337.308ZM969.007 328.046C966.895 328.046 965.641 327.232 965.641 325.78V325.604C965.641 324.174 966.917 323.36 969.007 323.36C971.075 323.36 972.351 324.174 972.351 325.604V325.78C972.351 327.232 971.097 328.046 969.007 328.046ZM969.007 335.24C966.741 335.24 965.399 334.338 965.399 332.776V332.6C965.399 331.016 966.719 330.114 969.007 330.114C971.273 330.114 972.593 331.016 972.593 332.6V332.776C972.593 334.338 971.251 335.24 969.007 335.24Z" fill="black"/>
<path d="M1004.76 337H1006.61V321.6H1004.76V337ZM1010.2 337H1011.94V321.6H1010.2V337ZM1015.59 337H1017.33V321.6H1015.59V337ZM1025.1 337.198C1027.3 337.198 1028.33 336.208 1028.81 335.174H1029.12V337H1030.82V326.242H1029.08V331.654C1029.08 334.316 1027.6 335.68 1025.56 335.68C1023.73 335.68 1022.59 334.756 1022.59 332.622V326.242H1020.85V332.754C1020.85 335.636 1022.72 337.198 1025.1 337.198ZM1038.79 337.308C1041.43 337.308 1043.12 336.12 1043.12 334.008C1043.12 331.918 1041.34 331.214 1039.07 330.818L1038.17 330.664C1036.81 330.422 1035.95 330.026 1035.95 328.992C1035.95 327.958 1036.85 327.386 1038.32 327.386C1039.78 327.386 1040.85 327.958 1041.12 329.498L1042.75 329.08C1042.31 327.078 1040.74 325.934 1038.32 325.934C1035.86 325.934 1034.23 327.078 1034.23 329.014C1034.23 330.95 1035.88 331.808 1037.99 332.182L1038.9 332.336C1040.46 332.622 1041.4 332.974 1041.4 334.074C1041.4 335.174 1040.39 335.856 1038.79 335.856C1037.16 335.856 1035.71 335.196 1035.4 333.084L1033.75 333.458C1034.12 336.12 1036.1 337.308 1038.79 337.308ZM1049.78 337H1052.64V335.482H1050.24C1049.78 335.482 1049.6 335.262 1049.6 334.822V327.76H1053.12V326.242H1049.6V322.414H1047.86V326.242H1044.63V327.76H1047.86V335.108C1047.86 336.274 1048.55 337 1049.78 337ZM1055.94 337H1057.68V330.444C1057.68 328.64 1058.71 327.782 1060.27 327.782H1061.66V326.198H1060.38C1059.08 326.198 1058.31 326.616 1057.94 327.562H1057.63V326.242H1055.94V337ZM1067.17 337.308C1069.39 337.308 1070.29 336.252 1070.75 335.394H1071.02V335.504C1071.02 336.428 1071.65 337 1072.62 337H1074.14V335.526H1073.15C1072.75 335.526 1072.53 335.306 1072.53 334.866V330.004C1072.53 327.43 1070.91 325.934 1068.18 325.934C1065.47 325.934 1064.02 327.408 1063.51 329.212L1065.14 329.74C1065.47 328.354 1066.42 327.43 1068.16 327.43C1069.94 327.43 1070.82 328.376 1070.82 329.894V330.686H1067.19C1064.88 330.686 1063.14 331.764 1063.14 333.942C1063.14 336.098 1064.88 337.308 1067.17 337.308ZM1067.36 335.812C1065.87 335.812 1064.88 335.108 1064.88 333.898C1064.88 332.688 1065.87 332.094 1067.25 332.094H1070.82V332.336C1070.82 334.536 1069.43 335.812 1067.36 335.812ZM1079.77 337H1082.63V335.482H1080.23C1079.77 335.482 1079.59 335.262 1079.59 334.822V327.76H1083.11V326.242H1079.59V322.414H1077.86V326.242H1074.62V327.76H1077.86V335.108C1077.86 336.274 1078.54 337 1079.77 337ZM1086.79 324.57C1087.56 324.57 1088.13 324.02 1088.13 323.25C1088.13 322.458 1087.56 321.908 1086.79 321.908C1086.04 321.908 1085.47 322.458 1085.47 323.25C1085.47 324.02 1086.04 324.57 1086.79 324.57ZM1085.93 337H1087.67V326.242H1085.93V337ZM1096.29 337.308C1099.55 337.308 1101.79 335.13 1101.79 331.764V331.478C1101.79 328.112 1099.55 325.934 1096.29 325.934C1093.04 325.934 1090.79 328.112 1090.79 331.478V331.764C1090.79 335.13 1093.04 337.308 1096.29 337.308ZM1096.29 335.746C1094.03 335.746 1092.53 334.184 1092.53 331.72V331.522C1092.53 329.058 1094.01 327.496 1096.29 327.496C1098.56 327.496 1100.06 329.058 1100.06 331.522V331.72C1100.06 334.184 1098.56 335.746 1096.29 335.746ZM1104.92 337H1106.66V331.588C1106.66 328.926 1108.11 327.562 1110.18 327.562C1111.98 327.562 1113.15 328.486 1113.15 330.62V337H1114.89V330.488C1114.89 327.606 1113 326.044 1110.62 326.044C1108.42 326.044 1107.39 327.034 1106.92 328.068H1106.62V326.242H1104.92V337Z" fill="black"/>
<rect x="968.627" y="307.414" width="30" height="30" transform="rotate(45 968.627 307.414)" stroke="black" stroke-width="2"/>
<path d="M597.007 508.308C600.549 508.308 602.903 506.614 602.903 503.908V503.666C602.903 501.488 601.385 500.454 600.263 500.19V499.838C601.385 499.508 602.661 498.518 602.661 496.582V496.34C602.661 493.876 600.351 492.292 597.007 492.292C593.641 492.292 591.353 493.876 591.353 496.34V496.582C591.353 498.518 592.629 499.508 593.751 499.838V500.19C592.629 500.454 591.089 501.488 591.089 503.666V503.908C591.089 506.614 593.443 508.308 597.007 508.308ZM597.007 499.046C594.895 499.046 593.641 498.232 593.641 496.78V496.604C593.641 495.174 594.917 494.36 597.007 494.36C599.075 494.36 600.351 495.174 600.351 496.604V496.78C600.351 498.232 599.097 499.046 597.007 499.046ZM597.007 506.24C594.741 506.24 593.399 505.338 593.399 503.776V503.6C593.399 502.016 594.719 501.114 597.007 501.114C599.273 501.114 600.593 502.016 600.593 503.6V503.776C600.593 505.338 599.251 506.24 597.007 506.24Z" fill="black"/>
<rect x="596.627" y="478.414" width="30" height="30" transform="rotate(45 596.627 478.414)" stroke="black" stroke-width="2"/>
<path d="M968.832 398.308C972.264 398.308 974.552 396.372 974.552 392.786V387.462C974.552 384.338 972.286 382.292 968.92 382.292C965.576 382.292 963.244 384.316 963.244 387.396V387.66C963.244 390.762 965.554 392.61 968.26 392.61C970.35 392.61 971.384 391.84 971.912 391.114H972.242V392.962C972.242 395.008 971.01 396.24 968.832 396.24C966.654 396.24 965.686 395.096 965.686 393.578H963.332C963.332 396.416 965.4 398.308 968.832 398.308ZM968.898 390.74C966.896 390.74 965.554 389.508 965.554 387.616V387.44C965.554 385.548 966.874 384.36 968.898 384.36C970.922 384.36 972.242 385.548 972.242 387.44V387.616C972.242 389.508 970.9 390.74 968.898 390.74Z" fill="black"/>
<path d="M1003.55 398H1005.46L1006.65 394.106H1013.21L1014.4 398H1016.31L1011.56 382.6H1008.3L1003.55 398ZM1007.14 392.434L1009.78 383.722H1010.08L1012.72 392.434H1007.14ZM1023.63 398.308C1026.74 398.308 1028.41 396.372 1028.87 394.216L1027.15 393.842C1026.89 395.492 1025.79 396.746 1023.66 396.746C1021.52 396.746 1019.89 395.228 1019.89 392.72V392.522C1019.89 390.014 1021.52 388.496 1023.66 388.496C1025.79 388.496 1026.87 389.816 1027.09 391.4L1028.78 391.048C1028.43 388.87 1026.74 386.934 1023.63 386.934C1020.49 386.934 1018.16 389.046 1018.16 392.5V392.742C1018.16 396.196 1020.49 398.308 1023.63 398.308ZM1036.78 398.308C1039.88 398.308 1041.56 396.372 1042.02 394.216L1040.3 393.842C1040.04 395.492 1038.94 396.746 1036.8 396.746C1034.67 396.746 1033.04 395.228 1033.04 392.72V392.522C1033.04 390.014 1034.67 388.496 1036.8 388.496C1038.94 388.496 1040.02 389.816 1040.24 391.4L1041.93 391.048C1041.58 388.87 1039.88 386.934 1036.78 386.934C1033.64 386.934 1031.3 389.046 1031.3 392.5V392.742C1031.3 396.196 1033.64 398.308 1036.78 398.308ZM1049.95 398.308C1053.21 398.308 1055.45 396.13 1055.45 392.764V392.478C1055.45 389.112 1053.21 386.934 1049.95 386.934C1046.7 386.934 1044.45 389.112 1044.45 392.478V392.764C1044.45 396.13 1046.7 398.308 1049.95 398.308ZM1049.95 396.746C1047.69 396.746 1046.19 395.184 1046.19 392.72V392.522C1046.19 390.058 1047.66 388.496 1049.95 388.496C1052.22 388.496 1053.71 390.058 1053.71 392.522V392.72C1053.71 395.184 1052.22 396.746 1049.95 396.746ZM1062.69 398.198C1064.89 398.198 1065.93 397.208 1066.41 396.174H1066.72V398H1068.41V387.242H1066.68V392.654C1066.68 395.316 1065.2 396.68 1063.16 396.68C1061.33 396.68 1060.19 395.756 1060.19 393.622V387.242H1058.45V393.754C1058.45 396.636 1060.32 398.198 1062.69 398.198ZM1072.05 398H1073.79V392.588C1073.79 389.926 1075.24 388.562 1077.31 388.562C1079.11 388.562 1080.28 389.486 1080.28 391.62V398H1082.02V391.488C1082.02 388.606 1080.12 387.044 1077.75 387.044C1075.55 387.044 1074.51 388.034 1074.05 389.068H1073.74V387.242H1072.05V398ZM1089.2 398H1092.06V396.482H1089.66C1089.2 396.482 1089.03 396.262 1089.03 395.822V388.76H1092.55V387.242H1089.03V383.414H1087.29V387.242H1084.05V388.76H1087.29V396.108C1087.29 397.274 1087.97 398 1089.2 398ZM1096.22 385.57C1096.99 385.57 1097.56 385.02 1097.56 384.25C1097.56 383.458 1096.99 382.908 1096.22 382.908C1095.47 382.908 1094.9 383.458 1094.9 384.25C1094.9 385.02 1095.47 385.57 1096.22 385.57ZM1095.36 398H1097.1V387.242H1095.36V398ZM1100.75 398H1102.49V392.588C1102.49 389.926 1103.94 388.562 1106.01 388.562C1107.82 388.562 1108.98 389.486 1108.98 391.62V398H1110.72V391.488C1110.72 388.606 1108.83 387.044 1106.45 387.044C1104.25 387.044 1103.22 388.034 1102.76 389.068H1102.45V387.242H1100.75V398ZM1113.72 392.676C1113.72 396.042 1115.98 398.11 1118.8 398.11C1121.07 398.11 1122.19 397.076 1122.72 396.108H1123.02V400.2C1123.02 400.64 1122.8 400.86 1122.36 400.86H1115.52V402.4H1122.83C1124.06 402.4 1124.72 401.674 1124.72 400.508V387.242H1123.07V389.024H1122.76C1122.19 387.968 1121.07 386.934 1118.8 386.934C1115.98 386.934 1113.72 389.002 1113.72 392.368V392.676ZM1119.26 396.57C1117.04 396.57 1115.48 395.096 1115.48 392.61V392.434C1115.48 389.948 1117.04 388.474 1119.26 388.474C1121.48 388.474 1123.02 389.948 1123.02 392.434V392.61C1123.02 395.096 1121.46 396.57 1119.26 396.57Z" fill="black"/>
<rect x="968.627" y="368.414" width="30" height="30" transform="rotate(45 968.627 368.414)" stroke="black" stroke-width="2"/>
<path d="M228.832 620.308C232.264 620.308 234.552 618.372 234.552 614.786V609.462C234.552 606.338 232.286 604.292 228.92 604.292C225.576 604.292 223.244 606.316 223.244 609.396V609.66C223.244 612.762 225.554 614.61 228.26 614.61C230.35 614.61 231.384 613.84 231.912 613.114H232.242V614.962C232.242 617.008 231.01 618.24 228.832 618.24C226.654 618.24 225.686 617.096 225.686 615.578H223.332C223.332 618.416 225.4 620.308 228.832 620.308ZM228.898 612.74C226.896 612.74 225.554 611.508 225.554 609.616V609.44C225.554 607.548 226.874 606.36 228.898 606.36C230.922 606.36 232.242 607.548 232.242 609.44V609.616C232.242 611.508 230.9 612.74 228.898 612.74Z" fill="black"/>
<rect x="228.627" y="590.414" width="30" height="30" transform="rotate(45 228.627 590.414)" stroke="black" stroke-width="2"/>
<path d="M138.874 316H141.184V300.6H136.96L133.55 307.42H135.992L138.522 302.228H138.874V316Z" fill="black"/>
<rect x="137.627" y="286.414" width="30" height="30" transform="rotate(45 137.627 286.414)" stroke="black" stroke-width="2"/>
<path d="M583.482 149H594.504V146.932H585.814V146.712C585.814 145.15 586.628 144.512 588.696 143.874L589.994 143.478C592.7 142.62 594.636 141.256 594.636 138.286V138.066C594.636 135.184 592.304 133.292 589.136 133.292C585.968 133.292 583.548 135.184 583.548 138.506V138.836H585.836V138.484C585.836 136.416 587.156 135.36 589.136 135.36C591.05 135.36 592.326 136.438 592.326 138.11V138.198C592.326 139.936 591.226 140.86 589.422 141.432L588.08 141.85C585.176 142.752 583.482 144.028 583.482 147.262V149Z" fill="black"/>
<rect x="588.627" y="119.414" width="30" height="30" transform="rotate(45 588.627 119.414)" stroke="black" stroke-width="2"/>
<path d="M750.482 276H761.504V273.932H752.814V273.712C752.814 272.15 753.628 271.512 755.696 270.874L756.994 270.478C759.7 269.62 761.636 268.256 761.636 265.286V265.066C761.636 262.184 759.304 260.292 756.136 260.292C752.968 260.292 750.548 262.184 750.548 265.506V265.836H752.836V265.484C752.836 263.416 754.156 262.36 756.136 262.36C758.05 262.36 759.326 263.438 759.326 265.11V265.198C759.326 266.936 758.226 267.86 756.422 268.432L755.08 268.85C752.176 269.752 750.482 271.028 750.482 274.262V276Z" fill="black"/>
<path d="M790.55 276H792.464L793.652 272.106H800.208L801.396 276H803.31L798.558 260.6H795.302L790.55 276ZM794.136 270.434L796.776 261.722H797.084L799.724 270.434H794.136ZM805.617 276H807.465V260.6H805.617V276Z" fill="black"/>
<rect x="755.627" y="246.414" width="30" height="30" transform="rotate(45 755.627 246.414)" stroke="black" stroke-width="2"/>
<path d="M501.017 121.308C504.405 121.308 506.671 119.394 506.671 116.446V116.182C506.671 113.388 504.471 112.112 502.139 112.112H501.193V111.804L506.363 108.724V105.6H495.583V107.668H503.855V107.976L498.443 111.166V113.828H501.237C502.975 113.828 504.361 114.532 504.361 116.248V116.446C504.361 118.052 503.107 119.24 501.017 119.24C498.905 119.24 497.519 118.03 497.519 116.094V115.742H495.209V116.138C495.209 119.372 497.629 121.308 501.017 121.308Z" fill="black"/>
<rect x="500.627" y="91.4142" width="30" height="30" transform="rotate(45 500.627 91.4142)" stroke="black" stroke-width="2"/>
<path d="M756.017 337.308C759.405 337.308 761.671 335.394 761.671 332.446V332.182C761.671 329.388 759.471 328.112 757.139 328.112H756.193V327.804L761.363 324.724V321.6H750.583V323.668H758.855V323.976L753.443 327.166V329.828H756.237C757.975 329.828 759.361 330.532 759.361 332.248V332.446C759.361 334.052 758.107 335.24 756.017 335.24C753.905 335.24 752.519 334.03 752.519 332.094V331.742H750.209V332.138C750.209 335.372 752.629 337.308 756.017 337.308Z" fill="black"/>
<path d="M791.034 337H798.734C801.396 337 803.376 335.504 803.376 332.974V332.754C803.376 330.598 801.924 329.63 800.824 329.366V329.058C801.902 328.728 803.354 327.804 803.354 325.648V325.472C803.354 323.14 801.462 321.6 798.756 321.6H791.034V323.25H793.19V335.35H791.034V337ZM795.038 328.398V323.272H798.602C800.384 323.272 801.506 324.24 801.506 325.736V325.956C801.506 327.43 800.384 328.398 798.602 328.398H795.038ZM795.038 335.328V330.07H798.536C800.472 330.07 801.528 331.038 801.528 332.6V332.798C801.528 334.36 800.472 335.328 798.536 335.328H795.038ZM806.371 337H808.109V321.6H806.371V337ZM816.736 337.308C819.992 337.308 822.236 335.13 822.236 331.764V331.478C822.236 328.112 819.992 325.934 816.736 325.934C813.48 325.934 811.236 328.112 811.236 331.478V331.764C811.236 335.13 813.48 337.308 816.736 337.308ZM816.736 335.746C814.47 335.746 812.974 334.184 812.974 331.72V331.522C812.974 329.058 814.448 327.496 816.736 327.496C819.002 327.496 820.498 329.058 820.498 331.522V331.72C820.498 334.184 819.002 335.746 816.736 335.746ZM830.313 337.308C833.415 337.308 835.087 335.372 835.549 333.216L833.833 332.842C833.569 334.492 832.469 335.746 830.335 335.746C828.201 335.746 826.573 334.228 826.573 331.72V331.522C826.573 329.014 828.201 327.496 830.335 327.496C832.469 327.496 833.547 328.816 833.767 330.4L835.461 330.048C835.109 327.87 833.415 325.934 830.313 325.934C827.167 325.934 824.835 328.046 824.835 331.5V331.742C824.835 335.196 827.167 337.308 830.313 337.308ZM838.512 337H840.25V332.314H840.558L845.684 337H848.082L841.944 331.478L847.906 326.242H845.486L840.558 330.664H840.25V321.6H838.512V337ZM854.719 337.308C857.821 337.308 859.493 335.372 859.955 333.216L858.239 332.842C857.975 334.492 856.875 335.746 854.741 335.746C852.607 335.746 850.979 334.228 850.979 331.72V331.522C850.979 329.014 852.607 327.496 854.741 327.496C856.875 327.496 857.953 328.816 858.173 330.4L859.867 330.048C859.515 327.87 857.821 325.934 854.719 325.934C851.573 325.934 849.241 328.046 849.241 331.5V331.742C849.241 335.196 851.573 337.308 854.719 337.308ZM862.918 337H864.656V331.588C864.656 328.926 866.108 327.562 868.176 327.562C869.98 327.562 871.146 328.486 871.146 330.62V337H872.884V330.488C872.884 327.606 870.992 326.044 868.616 326.044C866.438 326.044 865.426 327.012 864.964 327.958H864.656V321.6H862.918V337ZM879.71 337.308C881.932 337.308 882.834 336.252 883.296 335.394H883.56V335.504C883.56 336.428 884.198 337 885.166 337H886.684V335.526H885.694C885.298 335.526 885.078 335.306 885.078 334.866V330.004C885.078 327.43 883.45 325.934 880.722 325.934C878.016 325.934 876.564 327.408 876.058 329.212L877.686 329.74C878.016 328.354 878.962 327.43 880.7 327.43C882.482 327.43 883.362 328.376 883.362 329.894V330.686H879.732C877.422 330.686 875.684 331.764 875.684 333.942C875.684 336.098 877.422 337.308 879.71 337.308ZM879.908 335.812C878.412 335.812 877.422 335.108 877.422 333.898C877.422 332.688 878.412 332.094 879.798 332.094H883.362V332.336C883.362 334.536 881.976 335.812 879.908 335.812ZM889.922 324.57C890.692 324.57 891.264 324.02 891.264 323.25C891.264 322.458 890.692 321.908 889.922 321.908C889.174 321.908 888.602 322.458 888.602 323.25C888.602 324.02 889.174 324.57 889.922 324.57ZM889.064 337H890.802V326.242H889.064V337ZM894.457 337H896.195V331.588C896.195 328.926 897.647 327.562 899.715 327.562C901.519 327.562 902.685 328.486 902.685 330.62V337H904.423V330.488C904.423 327.606 902.531 326.044 900.155 326.044C897.955 326.044 896.921 327.034 896.459 328.068H896.151V326.242H894.457V337Z" fill="black"/>
<rect x="755.627" y="307.414" width="30" height="30" transform="rotate(45 755.627 307.414)" stroke="black" stroke-width="2"/>
<path d="M757.497 398H759.807V394.854H762.403V392.808H759.807V382.6H755.605L749.709 392.17V394.854H757.497V398ZM751.953 392.808V392.5L757.145 384.052H757.497V392.808H751.953Z" fill="black"/>
<path d="M793.322 398H796.644L799.482 383.7H799.79L802.628 398H805.928L808.436 382.6H806.588L804.41 396.812H804.102L801.286 382.6H797.986L795.148 396.812H794.84L792.662 382.6H790.814L793.322 398ZM815.703 398.308C818.585 398.308 819.861 396.702 820.521 395.338L819.025 394.612C818.497 395.8 817.595 396.768 815.747 396.768C813.613 396.768 812.073 395.382 812.007 393.072H820.763V392.28C820.763 389.002 818.651 386.934 815.593 386.934C812.447 386.934 810.247 389.178 810.247 392.5V392.764C810.247 396.086 812.425 398.308 815.703 398.308ZM812.029 391.642C812.293 389.64 813.635 388.474 815.593 388.474C817.529 388.474 818.871 389.64 819.003 391.642H812.029ZM829.757 398.308C832.551 398.308 834.839 396.218 834.839 392.764V392.478C834.839 389.046 832.573 386.934 829.757 386.934C827.513 386.934 826.369 387.946 825.841 388.936H825.533V382.6H823.795V398H825.489V396.218H825.797C826.369 397.296 827.513 398.308 829.757 398.308ZM829.295 396.768C827.073 396.768 825.511 395.272 825.511 392.72V392.522C825.511 389.97 827.073 388.474 829.295 388.474C831.517 388.474 833.057 389.97 833.057 392.522V392.72C833.057 395.272 831.495 396.768 829.295 396.768ZM842.507 398.308C844.751 398.308 845.873 397.296 846.467 396.218H846.775V398H848.469V382.6H846.731V388.936H846.423C845.873 387.946 844.751 386.934 842.507 386.934C839.691 386.934 837.425 389.046 837.425 392.478V392.764C837.425 396.218 839.713 398.308 842.507 398.308ZM842.969 396.768C840.747 396.768 839.185 395.272 839.185 392.72V392.522C839.185 389.97 840.747 388.474 842.969 388.474C845.191 388.474 846.731 389.97 846.731 392.522V392.72C846.731 395.272 845.169 396.768 842.969 396.768ZM857.039 398.308C859.921 398.308 861.197 396.702 861.857 395.338L860.361 394.612C859.833 395.8 858.931 396.768 857.083 396.768C854.949 396.768 853.409 395.382 853.343 393.072H862.099V392.28C862.099 389.002 859.987 386.934 856.929 386.934C853.783 386.934 851.583 389.178 851.583 392.5V392.764C851.583 396.086 853.761 398.308 857.039 398.308ZM853.365 391.642C853.629 389.64 854.971 388.474 856.929 388.474C858.865 388.474 860.207 389.64 860.339 391.642H853.365ZM869.465 398.308C872.105 398.308 873.799 397.12 873.799 395.008C873.799 392.918 872.017 392.214 869.751 391.818L868.849 391.664C867.485 391.422 866.627 391.026 866.627 389.992C866.627 388.958 867.529 388.386 869.003 388.386C870.455 388.386 871.533 388.958 871.797 390.498L873.425 390.08C872.985 388.078 871.423 386.934 869.003 386.934C866.539 386.934 864.911 388.078 864.911 390.014C864.911 391.95 866.561 392.808 868.673 393.182L869.575 393.336C871.137 393.622 872.083 393.974 872.083 395.074C872.083 396.174 871.071 396.856 869.465 396.856C867.837 396.856 866.385 396.196 866.077 394.084L864.427 394.458C864.801 397.12 866.781 398.308 869.465 398.308ZM877.59 385.57C878.36 385.57 878.932 385.02 878.932 384.25C878.932 383.458 878.36 382.908 877.59 382.908C876.842 382.908 876.27 383.458 876.27 384.25C876.27 385.02 876.842 385.57 877.59 385.57ZM876.732 398H878.47V387.242H876.732V398ZM881.597 392.676C881.597 396.042 883.863 398.11 886.679 398.11C888.945 398.11 890.067 397.076 890.595 396.108H890.903V400.2C890.903 400.64 890.683 400.86 890.243 400.86H883.401V402.4H890.705C891.937 402.4 892.597 401.674 892.597 400.508V387.242H890.947V389.024H890.639C890.067 387.968 888.945 386.934 886.679 386.934C883.863 386.934 881.597 389.002 881.597 392.368V392.676ZM887.141 396.57C884.919 396.57 883.357 395.096 883.357 392.61V392.434C883.357 389.948 884.919 388.474 887.141 388.474C889.363 388.474 890.903 389.948 890.903 392.434V392.61C890.903 395.096 889.341 396.57 887.141 396.57ZM896.24 398H897.978V392.588C897.978 389.926 899.43 388.562 901.498 388.562C903.302 388.562 904.468 389.486 904.468 391.62V398H906.206V391.488C906.206 388.606 904.314 387.044 901.938 387.044C899.738 387.044 898.704 388.034 898.242 389.068H897.934V387.242H896.24V398Z" fill="black"/>
<rect x="755.627" y="368.414" width="30" height="30" transform="rotate(45 755.627 368.414)" stroke="black" stroke-width="2"/>
<path d="M250.497 344H252.807V340.854H255.403V338.808H252.807V328.6H248.605L242.709 338.17V340.854H250.497V344ZM244.953 338.808V338.5L250.145 330.052H250.497V338.808H244.953Z" fill="black"/>
<rect x="248.627" y="314.414" width="30" height="30" transform="rotate(45 248.627 314.414)" stroke="black" stroke-width="2"/>
<path d="M756.059 459.308C759.579 459.308 761.713 457.218 761.713 454.006V453.764C761.713 450.552 759.513 448.726 756.807 448.726C754.937 448.726 753.947 449.518 753.529 450.222H753.177V445.69H761.185V443.6H750.867V452.07H753.793C754.145 451.454 754.805 450.64 756.323 450.64C758.127 450.64 759.403 451.872 759.403 453.786V453.984C759.403 455.964 758.171 457.24 756.037 457.24C753.947 457.24 752.737 456.008 752.737 454.138V453.918H750.383V454.16C750.383 457.262 752.583 459.308 756.059 459.308Z" fill="black"/>
<path d="M795.192 459H798.426L803.068 443.6H801.154L796.952 457.878H796.666L792.464 443.6H790.55L795.192 459ZM805.381 459H807.229V452.686H812.553C813.543 452.686 814.005 453.17 814.005 454.05V459H815.831V453.83C815.831 452.51 815.061 451.872 814.005 451.828V451.52C815.325 451.102 816.447 449.958 816.447 447.934V447.692C816.447 445.14 814.445 443.6 811.607 443.6H805.381V459ZM807.229 451.014V445.272H811.431C813.477 445.272 814.599 446.284 814.599 448.066V448.22C814.599 449.98 813.433 451.014 811.431 451.014H807.229Z" fill="black"/>
<rect x="755.627" y="429.414" width="30" height="30" transform="rotate(45 755.627 429.414)" stroke="black" stroke-width="2"/>
<path d="M327.059 446.308C330.579 446.308 332.713 444.218 332.713 441.006V440.764C332.713 437.552 330.513 435.726 327.807 435.726C325.937 435.726 324.947 436.518 324.529 437.222H324.177V432.69H332.185V430.6H321.867V439.07H324.793C325.145 438.454 325.805 437.64 327.323 437.64C329.127 437.64 330.403 438.872 330.403 440.786V440.984C330.403 442.964 329.171 444.24 327.037 444.24C324.947 444.24 323.737 443.008 323.737 441.138V440.918H321.383V441.16C321.383 444.262 323.583 446.308 327.059 446.308Z" fill="black"/>
<rect x="326.627" y="416.414" width="30" height="30" transform="rotate(45 326.627 416.414)" stroke="black" stroke-width="2"/>
<path d="M788.034 575H794.04C798.088 575 800.398 572.998 800.398 568.73V565.87C800.398 561.624 798.088 559.6 794.04 559.6H788.034V561.25H790.19V573.35H788.034V575ZM792.038 573.328V561.294H794.04C797.01 561.294 798.572 562.68 798.572 565.804V568.818C798.572 571.92 797.01 573.328 794.04 573.328H792.038ZM808.342 575.308C811.224 575.308 812.5 573.702 813.16 572.338L811.664 571.612C811.136 572.8 810.234 573.768 808.386 573.768C806.252 573.768 804.712 572.382 804.646 570.072H813.402V569.28C813.402 566.002 811.29 563.934 808.232 563.934C805.086 563.934 802.886 566.178 802.886 569.5V569.764C802.886 573.086 805.064 575.308 808.342 575.308ZM804.668 568.642C804.932 566.64 806.274 565.474 808.232 565.474C810.168 565.474 811.51 566.64 811.642 568.642H804.668ZM820.767 575.308C823.407 575.308 825.101 574.12 825.101 572.008C825.101 569.918 823.319 569.214 821.053 568.818L820.151 568.664C818.787 568.422 817.929 568.026 817.929 566.992C817.929 565.958 818.831 565.386 820.305 565.386C821.757 565.386 822.835 565.958 823.099 567.498L824.727 567.08C824.287 565.078 822.725 563.934 820.305 563.934C817.841 563.934 816.213 565.078 816.213 567.014C816.213 568.95 817.863 569.808 819.975 570.182L820.877 570.336C822.439 570.622 823.385 570.974 823.385 572.074C823.385 573.174 822.373 573.856 820.767 573.856C819.139 573.856 817.687 573.196 817.379 571.084L815.729 571.458C816.103 574.12 818.083 575.308 820.767 575.308ZM828.893 562.57C829.663 562.57 830.235 562.02 830.235 561.25C830.235 560.458 829.663 559.908 828.893 559.908C828.145 559.908 827.573 560.458 827.573 561.25C827.573 562.02 828.145 562.57 828.893 562.57ZM828.035 575H829.773V564.242H828.035V575ZM832.9 569.676C832.9 573.042 835.166 575.11 837.982 575.11C840.248 575.11 841.37 574.076 841.898 573.108H842.206V577.2C842.206 577.64 841.986 577.86 841.546 577.86H834.704V579.4H842.008C843.24 579.4 843.9 578.674 843.9 577.508V564.242H842.25V566.024H841.942C841.37 564.968 840.248 563.934 837.982 563.934C835.166 563.934 832.9 566.002 832.9 569.368V569.676ZM838.444 573.57C836.222 573.57 834.66 572.096 834.66 569.61V569.434C834.66 566.948 836.222 565.474 838.444 565.474C840.666 565.474 842.206 566.948 842.206 569.434V569.61C842.206 572.096 840.644 573.57 838.444 573.57ZM847.543 575H849.281V569.588C849.281 566.926 850.733 565.562 852.801 565.562C854.605 565.562 855.771 566.486 855.771 568.62V575H857.509V568.488C857.509 565.606 855.617 564.044 853.241 564.044C851.041 564.044 850.007 565.034 849.545 566.068H849.237V564.242H847.543V575ZM866.619 575H876.211V573.328H868.467V568.092H875.485V566.42H868.467V561.272H876.101V559.6H866.619V575ZM883.042 575H885.902V573.482H883.504C883.042 573.482 882.866 573.262 882.866 572.822V565.76H886.386V564.242H882.866V560.414H881.128V564.242H877.894V565.76H881.128V573.108C881.128 574.274 881.81 575 883.042 575ZM889.201 575H890.939V569.588C890.939 566.926 892.391 565.562 894.459 565.562C896.263 565.562 897.429 566.486 897.429 568.62V575H899.167V568.488C899.167 565.606 897.275 564.044 894.899 564.044C892.721 564.044 891.709 565.012 891.247 565.958H890.939V559.6H889.201V575ZM903.551 562.57C904.321 562.57 904.893 562.02 904.893 561.25C904.893 560.458 904.321 559.908 903.551 559.908C902.803 559.908 902.231 560.458 902.231 561.25C902.231 562.02 902.803 562.57 903.551 562.57ZM902.693 575H904.431V564.242H902.693V575ZM913.036 575.308C916.138 575.308 917.81 573.372 918.272 571.216L916.556 570.842C916.292 572.492 915.192 573.746 913.058 573.746C910.924 573.746 909.296 572.228 909.296 569.72V569.522C909.296 567.014 910.924 565.496 913.058 565.496C915.192 565.496 916.27 566.816 916.49 568.4L918.184 568.048C917.832 565.87 916.138 563.934 913.036 563.934C909.89 563.934 907.558 566.046 907.558 569.5V569.742C907.558 573.196 909.89 575.308 913.036 575.308ZM925.568 575.308C928.208 575.308 929.902 574.12 929.902 572.008C929.902 569.918 928.12 569.214 925.854 568.818L924.952 568.664C923.588 568.422 922.73 568.026 922.73 566.992C922.73 565.958 923.632 565.386 925.106 565.386C926.558 565.386 927.636 565.958 927.9 567.498L929.528 567.08C929.088 565.078 927.526 563.934 925.106 563.934C922.642 563.934 921.014 565.078 921.014 567.014C921.014 568.95 922.664 569.808 924.776 570.182L925.678 570.336C927.24 570.622 928.186 570.974 928.186 572.074C928.186 573.174 927.174 573.856 925.568 573.856C923.94 573.856 922.488 573.196 922.18 571.084L920.53 571.458C920.904 574.12 922.884 575.308 925.568 575.308Z" fill="black"/>
<path d="M753.874 575H756.184V559.6H751.96L748.55 566.42H750.992L753.522 561.228H753.874V575Z" fill="black"/>
<circle cx="753" cy="567" r="19" stroke="black" stroke-width="2"/>
<path d="M160.874 152H163.184V136.6H158.96L155.55 143.42H157.992L160.522 138.228H160.874V152Z" fill="black"/>
<circle cx="160" cy="144" r="19" stroke="black" stroke-width="2"/>
<path d="M438.482 230H449.504V227.932H440.814V227.712C440.814 226.15 441.628 225.512 443.696 224.874L444.994 224.478C447.7 223.62 449.636 222.256 449.636 219.286V219.066C449.636 216.184 447.304 214.292 444.136 214.292C440.968 214.292 438.548 216.184 438.548 219.506V219.836H440.836V219.484C440.836 217.416 442.156 216.36 444.136 216.36C446.05 216.36 447.326 217.438 447.326 219.11V219.198C447.326 220.936 446.226 221.86 444.422 222.432L443.08 222.85C440.176 223.752 438.482 225.028 438.482 228.262V230Z" fill="black"/>
<circle cx="444" cy="222" r="19" stroke="black" stroke-width="2"/>
<path d="M793.886 631.308C797.23 631.308 799.408 629.526 799.408 626.798C799.408 624.092 797.318 623.08 794.656 622.464L793.512 622.178C791.466 621.672 790.256 621.122 790.256 619.472C790.256 617.822 791.576 616.898 793.622 616.898C795.734 616.898 797.274 617.822 797.274 620.044V620.968H799.1V620.044C799.1 616.898 796.724 615.292 793.622 615.292C790.52 615.292 788.43 616.898 788.43 619.494C788.43 622.09 790.278 623.146 793.006 623.806L794.15 624.092C796.218 624.576 797.582 625.148 797.582 626.842C797.582 628.492 796.284 629.702 793.886 629.702C791.532 629.702 789.882 628.492 789.882 625.918V625.456H788.056V625.918C788.056 629.526 790.52 631.308 793.886 631.308ZM806.432 631.198C808.632 631.198 809.666 630.208 810.15 629.174H810.458V631H812.152V620.242H810.414V625.654C810.414 628.316 808.94 629.68 806.894 629.68C805.068 629.68 803.924 628.756 803.924 626.622V620.242H802.186V626.754C802.186 629.636 804.056 631.198 806.432 631.198ZM820.123 631.308C822.763 631.308 824.457 630.12 824.457 628.008C824.457 625.918 822.675 625.214 820.409 624.818L819.507 624.664C818.143 624.422 817.285 624.026 817.285 622.992C817.285 621.958 818.187 621.386 819.661 621.386C821.113 621.386 822.191 621.958 822.455 623.498L824.083 623.08C823.643 621.078 822.081 619.934 819.661 619.934C817.197 619.934 815.569 621.078 815.569 623.014C815.569 624.95 817.219 625.808 819.331 626.182L820.233 626.336C821.795 626.622 822.741 626.974 822.741 628.074C822.741 629.174 821.729 629.856 820.123 629.856C818.495 629.856 817.043 629.196 816.735 627.084L815.085 627.458C815.459 630.12 817.439 631.308 820.123 631.308ZM831.114 631H833.974V629.482H831.576C831.114 629.482 830.938 629.262 830.938 628.822V621.76H834.458V620.242H830.938V616.414H829.2V620.242H825.966V621.76H829.2V629.108C829.2 630.274 829.882 631 831.114 631ZM840.509 631.308C842.731 631.308 843.633 630.252 844.095 629.394H844.359V629.504C844.359 630.428 844.997 631 845.965 631H847.483V629.526H846.493C846.097 629.526 845.877 629.306 845.877 628.866V624.004C845.877 621.43 844.249 619.934 841.521 619.934C838.815 619.934 837.363 621.408 836.857 623.212L838.485 623.74C838.815 622.354 839.761 621.43 841.499 621.43C843.281 621.43 844.161 622.376 844.161 623.894V624.686H840.531C838.221 624.686 836.483 625.764 836.483 627.942C836.483 630.098 838.221 631.308 840.509 631.308ZM840.707 629.812C839.211 629.812 838.221 629.108 838.221 627.898C838.221 626.688 839.211 626.094 840.597 626.094H844.161V626.336C844.161 628.536 842.775 629.812 840.707 629.812ZM850.721 618.57C851.491 618.57 852.063 618.02 852.063 617.25C852.063 616.458 851.491 615.908 850.721 615.908C849.973 615.908 849.401 616.458 849.401 617.25C849.401 618.02 849.973 618.57 850.721 618.57ZM849.863 631H851.601V620.242H849.863V631ZM855.256 631H856.994V625.588C856.994 622.926 858.446 621.562 860.514 621.562C862.318 621.562 863.484 622.486 863.484 624.62V631H865.222V624.488C865.222 621.606 863.33 620.044 860.954 620.044C858.754 620.044 857.72 621.034 857.258 622.068H856.95V620.242H855.256V631ZM872.048 631.308C874.27 631.308 875.172 630.252 875.634 629.394H875.898V629.504C875.898 630.428 876.536 631 877.504 631H879.022V629.526H878.032C877.636 629.526 877.416 629.306 877.416 628.866V624.004C877.416 621.43 875.788 619.934 873.06 619.934C870.354 619.934 868.902 621.408 868.396 623.212L870.024 623.74C870.354 622.354 871.3 621.43 873.038 621.43C874.82 621.43 875.7 622.376 875.7 623.894V624.686H872.07C869.76 624.686 868.022 625.764 868.022 627.942C868.022 630.098 869.76 631.308 872.048 631.308ZM872.246 629.812C870.75 629.812 869.76 629.108 869.76 627.898C869.76 626.688 870.75 626.094 872.136 626.094H875.7V626.336C875.7 628.536 874.314 629.812 872.246 629.812ZM887.364 631.308C890.158 631.308 892.446 629.218 892.446 625.764V625.478C892.446 622.046 890.18 619.934 887.364 619.934C885.12 619.934 883.976 620.946 883.448 621.936H883.14V615.6H881.402V631H883.096V629.218H883.404C883.976 630.296 885.12 631.308 887.364 631.308ZM886.902 629.768C884.68 629.768 883.118 628.272 883.118 625.72V625.522C883.118 622.97 884.68 621.474 886.902 621.474C889.124 621.474 890.664 622.97 890.664 625.522V625.72C890.664 628.272 889.102 629.768 886.902 629.768ZM896.418 618.57C897.188 618.57 897.76 618.02 897.76 617.25C897.76 616.458 897.188 615.908 896.418 615.908C895.67 615.908 895.098 616.458 895.098 617.25C895.098 618.02 895.67 618.57 896.418 618.57ZM895.56 631H897.298V620.242H895.56V631ZM900.953 631H902.691V615.6H900.953V631ZM907.204 618.57C907.974 618.57 908.546 618.02 908.546 617.25C908.546 616.458 907.974 615.908 907.204 615.908C906.456 615.908 905.884 616.458 905.884 617.25C905.884 618.02 906.456 618.57 907.204 618.57ZM906.346 631H908.084V620.242H906.346V631ZM915.698 631H918.558V629.482H916.16C915.698 629.482 915.522 629.262 915.522 628.822V621.76H919.042V620.242H915.522V616.414H913.784V620.242H910.55V621.76H913.784V629.108C913.784 630.274 914.466 631 915.698 631ZM923.155 635.4H929.755C930.987 635.4 931.691 634.674 931.691 633.508V620.242H929.953V625.654C929.953 628.338 928.479 629.68 926.433 629.68C924.607 629.68 923.463 628.778 923.463 626.644V620.242H921.725V626.776C921.725 629.658 923.595 631.198 925.971 631.198C928.171 631.198 929.183 630.23 929.645 629.284H929.953V633.2C929.953 633.64 929.777 633.86 929.315 633.86H923.155V635.4Z" fill="black"/>
<path d="M747.482 631H758.504V628.932H749.814V628.712C749.814 627.15 750.628 626.512 752.696 625.874L753.994 625.478C756.7 624.62 758.636 623.256 758.636 620.286V620.066C758.636 617.184 756.304 615.292 753.136 615.292C749.968 615.292 747.548 617.184 747.548 620.506V620.836H749.836V620.484C749.836 618.416 751.156 617.36 753.136 617.36C755.05 617.36 756.326 618.438 756.326 620.11V620.198C756.326 621.936 755.226 622.86 753.422 623.432L752.08 623.85C749.176 624.752 747.482 626.028 747.482 629.262V631Z" fill="black"/>
<circle cx="753" cy="623" r="19" stroke="black" stroke-width="2"/>
<path d="M793.886 687.308C797.23 687.308 799.408 685.526 799.408 682.798C799.408 680.092 797.318 679.08 794.656 678.464L793.512 678.178C791.466 677.672 790.256 677.122 790.256 675.472C790.256 673.822 791.576 672.898 793.622 672.898C795.734 672.898 797.274 673.822 797.274 676.044V676.968H799.1V676.044C799.1 672.898 796.724 671.292 793.622 671.292C790.52 671.292 788.43 672.898 788.43 675.494C788.43 678.09 790.278 679.146 793.006 679.806L794.15 680.092C796.218 680.576 797.582 681.148 797.582 682.842C797.582 684.492 796.284 685.702 793.886 685.702C791.532 685.702 789.882 684.492 789.882 681.918V681.456H788.056V681.918C788.056 685.526 790.52 687.308 793.886 687.308ZM807.29 687.308C810.546 687.308 812.79 685.13 812.79 681.764V681.478C812.79 678.112 810.546 675.934 807.29 675.934C804.034 675.934 801.79 678.112 801.79 681.478V681.764C801.79 685.13 804.034 687.308 807.29 687.308ZM807.29 685.746C805.024 685.746 803.528 684.184 803.528 681.72V681.522C803.528 679.058 805.002 677.496 807.29 677.496C809.556 677.496 811.052 679.058 811.052 681.522V681.72C811.052 684.184 809.556 685.746 807.29 685.746ZM820.868 687.308C823.97 687.308 825.642 685.372 826.104 683.216L824.388 682.842C824.124 684.492 823.024 685.746 820.89 685.746C818.756 685.746 817.128 684.228 817.128 681.72V681.522C817.128 679.014 818.756 677.496 820.89 677.496C823.024 677.496 824.102 678.816 824.322 680.4L826.016 680.048C825.664 677.87 823.97 675.934 820.868 675.934C817.722 675.934 815.39 678.046 815.39 681.5V681.742C815.39 685.196 817.722 687.308 820.868 687.308ZM829.924 674.57C830.694 674.57 831.266 674.02 831.266 673.25C831.266 672.458 830.694 671.908 829.924 671.908C829.176 671.908 828.604 672.458 828.604 673.25C828.604 674.02 829.176 674.57 829.924 674.57ZM829.066 687H830.804V676.242H829.066V687ZM837.759 687.308C839.981 687.308 840.883 686.252 841.345 685.394H841.609V685.504C841.609 686.428 842.247 687 843.215 687H844.733V685.526H843.743C843.347 685.526 843.127 685.306 843.127 684.866V680.004C843.127 677.43 841.499 675.934 838.771 675.934C836.065 675.934 834.613 677.408 834.107 679.212L835.735 679.74C836.065 678.354 837.011 677.43 838.749 677.43C840.531 677.43 841.411 678.376 841.411 679.894V680.686H837.781C835.471 680.686 833.733 681.764 833.733 683.942C833.733 686.098 835.471 687.308 837.759 687.308ZM837.957 685.812C836.461 685.812 835.471 685.108 835.471 683.898C835.471 682.688 836.461 682.094 837.847 682.094H841.411V682.336C841.411 684.536 840.025 685.812 837.957 685.812ZM847.113 687H848.851V671.6H847.113V687ZM858.09 687H859.938V671.6H858.09V687ZM863.527 687H865.265V680.532C865.265 678.596 866.387 677.54 867.971 677.54C869.467 677.54 870.347 678.442 870.347 679.872V687H872.085V680.532C872.085 678.596 873.207 677.54 874.791 677.54C876.287 677.54 877.167 678.442 877.167 679.872V687H878.905V679.718C878.905 677.43 877.387 676.044 875.253 676.044C873.427 676.044 872.481 676.88 871.997 677.936H871.689C871.205 676.88 870.193 676.044 868.521 676.044C866.827 676.044 865.947 676.814 865.529 677.584H865.221V676.242H863.527V687ZM882.455 691.4H884.193V685.306H884.501C885.029 686.296 886.173 687.308 888.417 687.308C891.233 687.308 893.499 685.196 893.499 681.764V681.478C893.499 678.024 891.211 675.934 888.417 675.934C886.173 675.934 885.029 676.946 884.457 678.024H884.149V676.242H882.455V691.4ZM887.955 685.768C885.733 685.768 884.171 684.272 884.171 681.72V681.522C884.171 678.97 885.733 677.474 887.955 677.474C890.155 677.474 891.717 678.97 891.717 681.522V681.72C891.717 684.272 890.177 685.768 887.955 685.768ZM899.913 687.308C902.135 687.308 903.037 686.252 903.499 685.394H903.763V685.504C903.763 686.428 904.401 687 905.369 687H906.887V685.526H905.897C905.501 685.526 905.281 685.306 905.281 684.866V680.004C905.281 677.43 903.653 675.934 900.925 675.934C898.219 675.934 896.767 677.408 896.261 679.212L897.889 679.74C898.219 678.354 899.165 677.43 900.903 677.43C902.685 677.43 903.565 678.376 903.565 679.894V680.686H899.935C897.625 680.686 895.887 681.764 895.887 683.942C895.887 686.098 897.625 687.308 899.913 687.308ZM900.111 685.812C898.615 685.812 897.625 685.108 897.625 683.898C897.625 682.688 898.615 682.094 900.001 682.094H903.565V682.336C903.565 684.536 902.179 685.812 900.111 685.812ZM913.917 687.308C917.019 687.308 918.691 685.372 919.153 683.216L917.437 682.842C917.173 684.492 916.073 685.746 913.939 685.746C911.805 685.746 910.177 684.228 910.177 681.72V681.522C910.177 679.014 911.805 677.496 913.939 677.496C916.073 677.496 917.151 678.816 917.371 680.4L919.065 680.048C918.713 677.87 917.019 675.934 913.917 675.934C910.771 675.934 908.439 678.046 908.439 681.5V681.742C908.439 685.196 910.771 687.308 913.917 687.308ZM925.645 687H928.505V685.482H926.107C925.645 685.482 925.469 685.262 925.469 684.822V677.76H928.989V676.242H925.469V672.414H923.731V676.242H920.497V677.76H923.731V685.108C923.731 686.274 924.413 687 925.645 687Z" fill="black"/>
<path d="M753.017 687.308C756.405 687.308 758.671 685.394 758.671 682.446V682.182C758.671 679.388 756.471 678.112 754.139 678.112H753.193V677.804L758.363 674.724V671.6H747.583V673.668H755.855V673.976L750.443 677.166V679.828H753.237C754.975 679.828 756.361 680.532 756.361 682.248V682.446C756.361 684.052 755.107 685.24 753.017 685.24C750.905 685.24 749.519 684.03 749.519 682.094V681.742H747.209V682.138C747.209 685.372 749.629 687.308 753.017 687.308Z" fill="black"/>
<circle cx="753" cy="679" r="19" stroke="black" stroke-width="2"/>
<path d="M576.017 383.308C579.405 383.308 581.671 381.394 581.671 378.446V378.182C581.671 375.388 579.471 374.112 577.139 374.112H576.193V373.804L581.363 370.724V367.6H570.583V369.668H578.855V369.976L573.443 373.166V375.828H576.237C577.975 375.828 579.361 376.532 579.361 378.248V378.446C579.361 380.052 578.107 381.24 576.017 381.24C573.905 381.24 572.519 380.03 572.519 378.094V377.742H570.209V378.138C570.209 381.372 572.629 383.308 576.017 383.308Z" fill="black"/>
<circle cx="576" cy="375" r="19" stroke="black" stroke-width="2"/>
<rect x="733" y="67" width="85" height="38" fill="#0026FF" fill-opacity="0.12"/>
</svg>
