<svg width="1190" height="750" viewBox="0 0 1190 750" fill="none" xmlns="http://www.w3.org/2000/svg">
<rect width="1190" height="750" fill="white"/>
<rect x="99" y="67" width="580" height="580" fill="#F5F5F5"/>
<path d="M79 67V667H679" stroke="black" stroke-width="2"/>
<path d="M47 68.452L47 71.356L52.632 71.356L52.632 74.788C52.632 77.604 54.48 79.716 57.362 79.716L57.67 79.716C60.552 79.716 62.4 77.692 62.4 74.788L62.4 68.452L47 68.452ZM55.272 71.356L59.76 71.356L59.76 74.502C59.76 75.888 58.946 76.812 57.626 76.812L57.406 76.812C56.086 76.812 55.272 75.866 55.272 74.502L55.272 71.356ZM46.692 84.9905C46.692 87.2785 47.924 87.9605 48.474 88.1585L48.474 88.5765L48.452 88.5765C47.572 88.5765 47 89.3685 47 90.4465L47 92.2945L49.288 92.2945L49.288 91.4145C49.288 91.0185 49.508 90.7985 49.948 90.7985L54.018 90.7985C56.746 90.7985 58.22 88.9945 58.22 86.1345C58.22 83.2965 56.79 81.8665 55.14 81.3385L54.282 83.8905C55.272 84.0885 55.976 84.7045 55.976 86.0905C55.976 87.4985 55.228 88.1145 54.216 88.1145L53.6 88.1145L53.6 85.1225C53.6 82.6585 52.434 80.8985 50.19 80.8985C47.946 80.8985 46.692 82.6585 46.692 84.9905ZM48.936 85.4745C48.936 84.2865 49.486 83.6705 50.278 83.6705C51.07 83.6705 51.532 84.2865 51.532 85.3205L51.532 88.1145L51.312 88.1145C49.86 88.1145 48.936 87.0145 48.936 85.4745ZM46.692 98.7673C46.692 101.539 47.99 103.343 50.278 103.343C52.566 103.343 53.27 101.407 53.71 98.9433L53.82 98.3273C53.996 97.3153 54.282 96.6993 54.986 96.6993C55.624 96.6993 56.02 97.2713 56.02 98.3273C56.02 99.3833 55.602 100.131 54.48 100.373L55.272 102.947C57.032 102.441 58.22 100.769 58.22 98.3273C58.22 95.7313 57.01 94.0153 54.854 94.0153C52.698 94.0153 51.84 95.9073 51.422 98.1953L51.312 98.8113C51.07 100.109 50.762 100.659 50.08 100.659C49.398 100.659 48.892 100.043 48.892 98.7673C48.892 97.4913 49.376 96.4573 50.916 96.1713L50.256 93.6193C47.968 93.9933 46.692 95.9073 46.692 98.7673ZM46.692 110.304C46.692 113.076 47.99 114.88 50.278 114.88C52.566 114.88 53.27 112.944 53.71 110.48L53.82 109.864C53.996 108.852 54.282 108.236 54.986 108.236C55.624 108.236 56.02 108.808 56.02 109.864C56.02 110.92 55.602 111.668 54.48 111.91L55.272 114.484C57.032 113.978 58.22 112.306 58.22 109.864C58.22 107.268 57.01 105.552 54.854 105.552C52.698 105.552 51.84 107.444 51.422 109.732L51.312 110.348C51.07 111.646 50.762 112.196 50.08 112.196C49.398 112.196 48.892 111.58 48.892 110.304C48.892 109.028 49.376 107.994 50.916 107.708L50.256 105.156C47.968 105.53 46.692 107.444 46.692 110.304ZM59.188 118.696C59.188 119.708 59.892 120.478 60.948 120.478C62.004 120.478 62.708 119.708 62.708 118.696C62.708 117.684 62.004 116.914 60.948 116.914C59.892 116.914 59.188 117.684 59.188 118.696ZM47 117.31L47 120.082L57.912 120.082L57.912 117.31L47 117.31ZM46.692 128.345C46.692 131.601 48.76 134.065 52.28 134.065L52.632 134.065C56.152 134.065 58.22 131.601 58.22 128.345C58.22 125.089 56.152 122.625 52.632 122.625L52.28 122.625C48.76 122.625 46.692 125.089 46.692 128.345ZM49.156 128.345C49.156 126.651 50.3 125.397 52.346 125.397L52.566 125.397C54.612 125.397 55.756 126.629 55.756 128.345C55.756 130.061 54.612 131.293 52.566 131.293L52.346 131.293C50.3 131.293 49.156 130.039 49.156 128.345ZM47 136.624L47 139.396L52.544 139.396C54.568 139.396 55.756 140.386 55.756 142.08C55.756 143.576 54.942 144.412 53.292 144.412L47 144.412L47 147.184L53.512 147.184C56.218 147.184 58.088 145.49 58.088 142.938C58.088 140.98 57.23 140.1 56.482 139.748L56.482 139.352L57.912 139.352L57.912 136.624L47 136.624Z" fill="black"/>
<path d="M559.452 695H562.356V689.368H565.788C568.604 689.368 570.716 687.52 570.716 684.638V684.33C570.716 681.448 568.692 679.6 565.788 679.6H559.452V695ZM562.356 686.728V682.24H565.502C566.888 682.24 567.812 683.054 567.812 684.374V684.594C567.812 685.914 566.866 686.728 565.502 686.728H562.356ZM572.817 695H575.589V688.796C575.589 687.256 576.601 686.508 578.009 686.508H579.373V684.044H578.053C577.041 684.044 576.249 684.44 575.941 685.32H575.545V684.088H572.817V695ZM586.345 695.308C589.601 695.308 592.065 693.24 592.065 689.72V689.368C592.065 685.848 589.601 683.78 586.345 683.78C583.089 683.78 580.625 685.848 580.625 689.368V689.72C580.625 693.24 583.089 695.308 586.345 695.308ZM586.345 692.844C584.651 692.844 583.397 691.7 583.397 689.654V689.434C583.397 687.388 584.629 686.244 586.345 686.244C588.061 686.244 589.293 687.388 589.293 689.434V689.654C589.293 691.7 588.039 692.844 586.345 692.844ZM604.642 682.9C605.654 682.9 606.424 682.196 606.424 681.14C606.424 680.084 605.654 679.38 604.642 679.38C603.63 679.38 602.86 680.084 602.86 681.14C602.86 682.196 603.63 682.9 604.642 682.9ZM596.084 695H598.856V686.376H603.256V695H606.028V684.088H598.856V682.548C598.856 682.108 599.076 681.888 599.472 681.888H601.144V679.6H598.504C597.052 679.6 596.084 680.568 596.084 682.064V684.088H593.312V686.376H596.084V695ZM614.23 695.308C617.354 695.308 619.136 693.482 619.708 691.128L617.024 690.49C616.782 691.898 615.968 692.844 614.296 692.844C612.624 692.844 611.348 691.722 611.348 689.654V689.434C611.348 687.366 612.624 686.244 614.296 686.244C615.968 686.244 616.782 687.256 616.958 688.576L619.642 688.004C619.18 685.584 617.354 683.78 614.23 683.78C611.062 683.78 608.576 685.826 608.576 689.39V689.698C608.576 693.262 611.062 695.308 614.23 695.308ZM623.381 682.812C624.393 682.812 625.163 682.108 625.163 681.052C625.163 679.996 624.393 679.292 623.381 679.292C622.369 679.292 621.599 679.996 621.599 681.052C621.599 682.108 622.369 682.812 623.381 682.812ZM621.995 695H624.767V684.088H621.995V695ZM632.811 695.308C635.803 695.308 637.101 693.614 637.717 692.448L635.451 691.26C635.077 692.096 634.439 692.888 632.899 692.888C631.359 692.888 630.193 691.854 630.127 690.358H638.069V689.412C638.069 686.068 635.979 683.78 632.767 683.78C629.511 683.78 627.311 685.98 627.311 689.412V689.676C627.311 693.108 629.533 695.308 632.811 695.308ZM630.149 688.29C630.347 687.036 631.249 686.2 632.745 686.2C634.175 686.2 635.121 687.036 635.253 688.29H630.149ZM640.536 695H643.308V689.456C643.308 687.432 644.298 686.244 645.992 686.244C647.488 686.244 648.324 687.058 648.324 688.708V695H651.096V688.488C651.096 685.782 649.402 683.912 646.85 683.912C644.892 683.912 644.012 684.77 643.66 685.518H643.264V684.088H640.536V695ZM659.219 695.308C662.343 695.308 664.125 693.482 664.697 691.128L662.013 690.49C661.771 691.898 660.957 692.844 659.285 692.844C657.613 692.844 656.337 691.722 656.337 689.654V689.434C656.337 687.366 657.613 686.244 659.285 686.244C660.957 686.244 661.771 687.256 661.947 688.576L664.631 688.004C664.169 685.584 662.343 683.78 659.219 683.78C656.051 683.78 653.565 685.826 653.565 689.39V689.698C653.565 693.262 656.051 695.308 659.219 695.308ZM668.171 699.4H675.035C676.487 699.4 677.455 698.432 677.455 696.936V684.088H674.683V689.632C674.683 691.656 673.693 692.844 671.999 692.844C670.503 692.844 669.667 692.03 669.667 690.38V684.088H666.895V690.6C666.895 693.306 668.589 695.176 671.141 695.176C673.099 695.176 673.979 694.318 674.331 693.57H674.727V696.32C674.727 696.76 674.507 696.98 674.111 696.98H668.171V699.4Z" fill="black"/>
<path d="M734.452 89H737.356V83.368H740.788C743.604 83.368 745.716 81.52 745.716 78.638V78.33C745.716 75.448 743.692 73.6 740.788 73.6H734.452V89ZM737.356 80.728V76.24H740.502C741.888 76.24 742.812 77.054 742.812 78.374V78.594C742.812 79.914 741.866 80.728 740.502 80.728H737.356ZM747.817 89H750.589V82.796C750.589 81.256 751.601 80.508 753.009 80.508H754.373V78.044H753.053C752.041 78.044 751.249 78.44 750.941 79.32H750.545V78.088H747.817V89ZM761.345 89.308C764.601 89.308 767.065 87.24 767.065 83.72V83.368C767.065 79.848 764.601 77.78 761.345 77.78C758.089 77.78 755.625 79.848 755.625 83.368V83.72C755.625 87.24 758.089 89.308 761.345 89.308ZM761.345 86.844C759.651 86.844 758.397 85.7 758.397 83.654V83.434C758.397 81.388 759.629 80.244 761.345 80.244C763.061 80.244 764.293 81.388 764.293 83.434V83.654C764.293 85.7 763.039 86.844 761.345 86.844ZM771.084 89H773.856V80.376H776.716V78.088H773.856V76.548C773.856 76.108 774.076 75.888 774.472 75.888H776.364V73.6H773.504C772.052 73.6 771.084 74.568 771.084 76.064V78.088H768.312V80.376H771.084V89ZM783.491 89.308C786.483 89.308 787.781 87.614 788.397 86.448L786.131 85.26C785.757 86.096 785.119 86.888 783.579 86.888C782.039 86.888 780.873 85.854 780.807 84.358H788.749V83.412C788.749 80.068 786.659 77.78 783.447 77.78C780.191 77.78 777.991 79.98 777.991 83.412V83.676C777.991 87.108 780.213 89.308 783.491 89.308ZM780.829 82.29C781.027 81.036 781.929 80.2 783.425 80.2C784.855 80.2 785.801 81.036 785.933 82.29H780.829ZM795.748 89.308C798.52 89.308 800.324 88.01 800.324 85.722C800.324 83.434 798.388 82.73 795.924 82.29L795.308 82.18C794.296 82.004 793.68 81.718 793.68 81.014C793.68 80.376 794.252 79.98 795.308 79.98C796.364 79.98 797.112 80.398 797.354 81.52L799.928 80.728C799.422 78.968 797.75 77.78 795.308 77.78C792.712 77.78 790.996 78.99 790.996 81.146C790.996 83.302 792.888 84.16 795.176 84.578L795.792 84.688C797.09 84.93 797.64 85.238 797.64 85.92C797.64 86.602 797.024 87.108 795.748 87.108C794.472 87.108 793.438 86.624 793.152 85.084L790.6 85.744C790.974 88.032 792.888 89.308 795.748 89.308ZM807.285 89.308C810.057 89.308 811.861 88.01 811.861 85.722C811.861 83.434 809.925 82.73 807.461 82.29L806.845 82.18C805.833 82.004 805.217 81.718 805.217 81.014C805.217 80.376 805.789 79.98 806.845 79.98C807.901 79.98 808.649 80.398 808.891 81.52L811.465 80.728C810.959 78.968 809.287 77.78 806.845 77.78C804.249 77.78 802.533 78.99 802.533 81.146C802.533 83.302 804.425 84.16 806.713 84.578L807.329 84.688C808.627 84.93 809.177 85.238 809.177 85.92C809.177 86.602 808.561 87.108 807.285 87.108C806.009 87.108 804.975 86.624 804.689 85.084L802.137 85.744C802.511 88.032 804.425 89.308 807.285 89.308ZM815.676 76.812C816.688 76.812 817.458 76.108 817.458 75.052C817.458 73.996 816.688 73.292 815.676 73.292C814.664 73.292 813.894 73.996 813.894 75.052C813.894 76.108 814.664 76.812 815.676 76.812ZM814.29 89H817.062V78.088H814.29V89ZM825.326 89.308C828.582 89.308 831.046 87.24 831.046 83.72V83.368C831.046 79.848 828.582 77.78 825.326 77.78C822.07 77.78 819.606 79.848 819.606 83.368V83.72C819.606 87.24 822.07 89.308 825.326 89.308ZM825.326 86.844C823.632 86.844 822.378 85.7 822.378 83.654V83.434C822.378 81.388 823.61 80.244 825.326 80.244C827.042 80.244 828.274 81.388 828.274 83.434V83.654C828.274 85.7 827.02 86.844 825.326 86.844ZM833.604 89H836.376V83.456C836.376 81.432 837.366 80.244 839.06 80.244C840.556 80.244 841.392 81.058 841.392 82.708V89H844.164V82.488C844.164 79.782 842.47 77.912 839.918 77.912C837.96 77.912 837.08 78.77 836.728 79.518H836.332V78.088H833.604V89ZM850.549 89.308C852.837 89.308 853.519 88.076 853.717 87.526H854.135V87.548C854.135 88.428 854.927 89 856.005 89H857.853V86.712H856.973C856.577 86.712 856.357 86.492 856.357 86.052V81.982C856.357 79.254 854.553 77.78 851.693 77.78C848.855 77.78 847.425 79.21 846.897 80.86L849.449 81.718C849.647 80.728 850.263 80.024 851.649 80.024C853.057 80.024 853.673 80.772 853.673 81.784V82.4H850.681C848.217 82.4 846.457 83.566 846.457 85.81C846.457 88.054 848.217 89.308 850.549 89.308ZM851.033 87.064C849.845 87.064 849.229 86.514 849.229 85.722C849.229 84.93 849.845 84.468 850.879 84.468H853.673V84.688C853.673 86.14 852.573 87.064 851.033 87.064ZM859.88 89H862.652V73.6H859.88V89Z" fill="black"/>
<path d="M734.452 462H737.356V456.368H740.788C743.604 456.368 745.716 454.52 745.716 451.638V451.33C745.716 448.448 743.692 446.6 740.788 446.6H734.452V462ZM737.356 453.728V449.24H740.502C741.888 449.24 742.812 450.054 742.812 451.374V451.594C742.812 452.914 741.866 453.728 740.502 453.728H737.356ZM752.532 462.308C755.524 462.308 756.822 460.614 757.438 459.448L755.172 458.26C754.798 459.096 754.16 459.888 752.62 459.888C751.08 459.888 749.914 458.854 749.848 457.358H757.79V456.412C757.79 453.068 755.7 450.78 752.488 450.78C749.232 450.78 747.032 452.98 747.032 456.412V456.676C747.032 460.108 749.254 462.308 752.532 462.308ZM749.87 455.29C750.068 454.036 750.97 453.2 752.466 453.2C753.896 453.2 754.842 454.036 754.974 455.29H749.87ZM760.257 462H763.029V455.796C763.029 454.256 764.041 453.508 765.449 453.508H766.813V451.044H765.493C764.481 451.044 763.689 451.44 763.381 452.32H762.985V451.088H760.257V462ZM773.254 462.308C776.026 462.308 777.83 461.01 777.83 458.722C777.83 456.434 775.894 455.73 773.43 455.29L772.814 455.18C771.802 455.004 771.186 454.718 771.186 454.014C771.186 453.376 771.758 452.98 772.814 452.98C773.87 452.98 774.618 453.398 774.86 454.52L777.434 453.728C776.928 451.968 775.256 450.78 772.814 450.78C770.218 450.78 768.502 451.99 768.502 454.146C768.502 456.302 770.394 457.16 772.682 457.578L773.298 457.688C774.596 457.93 775.146 458.238 775.146 458.92C775.146 459.602 774.53 460.108 773.254 460.108C771.978 460.108 770.944 459.624 770.658 458.084L768.106 458.744C768.48 461.032 770.394 462.308 773.254 462.308ZM785.451 462.308C788.707 462.308 791.171 460.24 791.171 456.72V456.368C791.171 452.848 788.707 450.78 785.451 450.78C782.195 450.78 779.731 452.848 779.731 456.368V456.72C779.731 460.24 782.195 462.308 785.451 462.308ZM785.451 459.844C783.757 459.844 782.503 458.7 782.503 456.654V456.434C782.503 454.388 783.735 453.244 785.451 453.244C787.167 453.244 788.399 454.388 788.399 456.434V456.654C788.399 458.7 787.145 459.844 785.451 459.844ZM793.729 462H796.501V456.456C796.501 454.432 797.491 453.244 799.185 453.244C800.681 453.244 801.517 454.058 801.517 455.708V462H804.289V455.488C804.289 452.782 802.595 450.912 800.043 450.912C798.085 450.912 797.205 451.77 796.853 452.518H796.457V451.088H793.729V462ZM810.674 462.308C812.962 462.308 813.644 461.076 813.842 460.526H814.26V460.548C814.26 461.428 815.052 462 816.13 462H817.978V459.712H817.098C816.702 459.712 816.482 459.492 816.482 459.052V454.982C816.482 452.254 814.678 450.78 811.818 450.78C808.98 450.78 807.55 452.21 807.022 453.86L809.574 454.718C809.772 453.728 810.388 453.024 811.774 453.024C813.182 453.024 813.798 453.772 813.798 454.784V455.4H810.806C808.342 455.4 806.582 456.566 806.582 458.81C806.582 461.054 808.342 462.308 810.674 462.308ZM811.158 460.064C809.97 460.064 809.354 459.514 809.354 458.722C809.354 457.93 809.97 457.468 811.004 457.468H813.798V457.688C813.798 459.14 812.698 460.064 811.158 460.064ZM820.005 462H822.777V446.6H820.005V462Z" fill="black"/>
<path d="M86.084 695.308C89.67 695.308 91.98 693.284 91.98 689.17V685.43C91.98 681.404 89.67 679.292 86.084 679.292C82.498 679.292 80.21 681.404 80.21 685.43V689.17C80.21 693.284 82.498 695.308 86.084 695.308ZM86.084 693.24C83.708 693.24 82.52 691.832 82.52 689.258V685.298C82.52 682.812 83.796 681.36 86.084 681.36C88.35 681.36 89.67 682.768 89.67 685.298V689.258C89.67 691.788 88.504 693.24 86.084 693.24Z" fill="black"/>
<path d="M756.874 142H759.184V126.6H754.96L751.55 133.42H753.992L756.522 128.228H756.874V142Z" fill="black"/>
<path d="M797.326 142.308C800.78 142.308 803.024 140.438 803.024 136.852V126.6H801.176V136.874C801.176 139.382 799.768 140.658 797.326 140.658C794.884 140.658 793.498 139.382 793.498 136.874V126.6H791.65V136.852C791.65 140.438 793.894 142.308 797.326 142.308ZM805.356 142H807.512L811.516 135.51H811.802L815.828 142H817.984L813.012 134.234L817.896 126.6H815.74L811.802 132.936H811.516L807.6 126.6H805.422L810.328 134.234L805.356 142ZM818.682 146.4H820.42L826.888 126.6H825.15L818.682 146.4ZM834.15 142.308C837.604 142.308 839.848 140.438 839.848 136.852V126.6H838V136.874C838 139.382 836.592 140.658 834.15 140.658C831.708 140.658 830.322 139.382 830.322 136.874V126.6H828.474V136.852C828.474 140.438 830.718 142.308 834.15 142.308ZM843.237 142H845.085V126.6H843.237V142Z" fill="black"/>
<rect x="755.627" y="112.414" width="30" height="30" transform="rotate(45 755.627 112.414)" stroke="black" stroke-width="2"/>
<path d="M969.074 142.308C972.418 142.308 974.772 140.284 974.772 137.204V136.94C974.772 133.838 972.462 131.99 969.734 131.99C967.644 131.99 966.61 132.76 966.104 133.486H965.752V131.638C965.752 129.592 966.984 128.36 969.184 128.36C971.34 128.36 972.33 129.504 972.33 131.022H974.662C974.662 128.162 972.594 126.292 969.184 126.292C965.752 126.292 963.442 128.206 963.442 131.814V137.138C963.442 140.24 965.708 142.308 969.074 142.308ZM969.096 140.24C967.072 140.24 965.752 139.052 965.752 137.16V136.984C965.752 135.092 967.094 133.86 969.096 133.86C971.12 133.86 972.462 135.092 972.462 136.984V137.16C972.462 139.052 971.142 140.24 969.096 140.24Z" fill="black"/>
<path d="M1004.76 142H1006.61V135.114H1013.47V133.442H1006.61V128.272H1014.07V126.6H1004.76V142ZM1019.86 142.308C1022.08 142.308 1022.98 141.252 1023.44 140.394H1023.71V140.504C1023.71 141.428 1024.34 142 1025.31 142H1026.83V140.526H1025.84C1025.44 140.526 1025.22 140.306 1025.22 139.866V135.004C1025.22 132.43 1023.6 130.934 1020.87 130.934C1018.16 130.934 1016.71 132.408 1016.2 134.212L1017.83 134.74C1018.16 133.354 1019.11 132.43 1020.85 132.43C1022.63 132.43 1023.51 133.376 1023.51 134.894V135.686H1019.88C1017.57 135.686 1015.83 136.764 1015.83 138.942C1015.83 141.098 1017.57 142.308 1019.86 142.308ZM1020.05 140.812C1018.56 140.812 1017.57 140.108 1017.57 138.898C1017.57 137.688 1018.56 137.094 1019.94 137.094H1023.51V137.336C1023.51 139.536 1022.12 140.812 1020.05 140.812ZM1035.17 142.308C1037.97 142.308 1040.25 140.218 1040.25 136.764V136.478C1040.25 133.046 1037.99 130.934 1035.17 130.934C1032.93 130.934 1031.78 131.946 1031.26 132.936H1030.95V126.6H1029.21V142H1030.9V140.218H1031.21C1031.78 141.296 1032.93 142.308 1035.17 142.308ZM1034.71 140.768C1032.49 140.768 1030.93 139.272 1030.93 136.72V136.522C1030.93 133.97 1032.49 132.474 1034.71 132.474C1036.93 132.474 1038.47 133.97 1038.47 136.522V136.72C1038.47 139.272 1036.91 140.768 1034.71 140.768ZM1043.37 142H1045.11V135.444C1045.11 133.64 1046.14 132.782 1047.7 132.782H1049.09V131.198H1047.81C1046.51 131.198 1045.74 131.616 1045.37 132.562H1045.06V131.242H1043.37V142ZM1052.52 129.57C1053.29 129.57 1053.86 129.02 1053.86 128.25C1053.86 127.458 1053.29 126.908 1052.52 126.908C1051.77 126.908 1051.2 127.458 1051.2 128.25C1051.2 129.02 1051.77 129.57 1052.52 129.57ZM1051.66 142H1053.4V131.242H1051.66V142ZM1062 142.308C1065.11 142.308 1066.78 140.372 1067.24 138.216L1065.52 137.842C1065.26 139.492 1064.16 140.746 1062.03 140.746C1059.89 140.746 1058.26 139.228 1058.26 136.72V136.522C1058.26 134.014 1059.89 132.496 1062.03 132.496C1064.16 132.496 1065.24 133.816 1065.46 135.4L1067.15 135.048C1066.8 132.87 1065.11 130.934 1062 130.934C1058.86 130.934 1056.53 133.046 1056.53 136.5V136.742C1056.53 140.196 1058.86 142.308 1062 142.308ZM1073.5 142.308C1075.72 142.308 1076.63 141.252 1077.09 140.394H1077.35V140.504C1077.35 141.428 1077.99 142 1078.96 142H1080.48V140.526H1079.49C1079.09 140.526 1078.87 140.306 1078.87 139.866V135.004C1078.87 132.43 1077.24 130.934 1074.51 130.934C1071.81 130.934 1070.36 132.408 1069.85 134.212L1071.48 134.74C1071.81 133.354 1072.75 132.43 1074.49 132.43C1076.27 132.43 1077.15 133.376 1077.15 134.894V135.686H1073.52C1071.21 135.686 1069.48 136.764 1069.48 138.942C1069.48 141.098 1071.21 142.308 1073.5 142.308ZM1073.7 140.812C1072.2 140.812 1071.21 140.108 1071.21 138.898C1071.21 137.688 1072.2 137.094 1073.59 137.094H1077.15V137.336C1077.15 139.536 1075.77 140.812 1073.7 140.812ZM1086.11 142H1088.97V140.482H1086.57C1086.11 140.482 1085.93 140.262 1085.93 139.822V132.76H1089.45V131.242H1085.93V127.414H1084.19V131.242H1080.96V132.76H1084.19V140.108C1084.19 141.274 1084.88 142 1086.11 142ZM1093.13 129.57C1093.9 129.57 1094.47 129.02 1094.47 128.25C1094.47 127.458 1093.9 126.908 1093.13 126.908C1092.38 126.908 1091.81 127.458 1091.81 128.25C1091.81 129.02 1092.38 129.57 1093.13 129.57ZM1092.27 142H1094.01V131.242H1092.27V142ZM1102.63 142.308C1105.89 142.308 1108.13 140.13 1108.13 136.764V136.478C1108.13 133.112 1105.89 130.934 1102.63 130.934C1099.38 130.934 1097.13 133.112 1097.13 136.478V136.764C1097.13 140.13 1099.38 142.308 1102.63 142.308ZM1102.63 140.746C1100.37 140.746 1098.87 139.184 1098.87 136.72V136.522C1098.87 134.058 1100.34 132.496 1102.63 132.496C1104.9 132.496 1106.39 134.058 1106.39 136.522V136.72C1106.39 139.184 1104.9 140.746 1102.63 140.746ZM1111.26 142H1113V136.588C1113 133.926 1114.45 132.562 1116.52 132.562C1118.32 132.562 1119.49 133.486 1119.49 135.62V142H1121.23V135.488C1121.23 132.606 1119.33 131.044 1116.96 131.044C1114.76 131.044 1113.72 132.034 1113.26 133.068H1112.95V131.242H1111.26V142Z" fill="black"/>
<rect x="968.627" y="112.414" width="30" height="30" transform="rotate(45 968.627 112.414)" stroke="black" stroke-width="2"/>
<path d="M146.074 326.308C149.418 326.308 151.772 324.284 151.772 321.204V320.94C151.772 317.838 149.462 315.99 146.734 315.99C144.644 315.99 143.61 316.76 143.104 317.486H142.752V315.638C142.752 313.592 143.984 312.36 146.184 312.36C148.34 312.36 149.33 313.504 149.33 315.022H151.662C151.662 312.162 149.594 310.292 146.184 310.292C142.752 310.292 140.442 312.206 140.442 315.814V321.138C140.442 324.24 142.708 326.308 146.074 326.308ZM146.096 324.24C144.072 324.24 142.752 323.052 142.752 321.16V320.984C142.752 319.092 144.094 317.86 146.096 317.86C148.12 317.86 149.462 319.092 149.462 320.984V321.16C149.462 323.052 148.142 324.24 146.096 324.24Z" fill="black"/>
<rect x="145.627" y="296.414" width="30" height="30" transform="rotate(45 145.627 296.414)" stroke="black" stroke-width="2"/>
<path d="M965.957 203H968.267V202.538C968.267 201.768 968.399 201.35 968.751 200.712L974.537 190.328V187.6H963.493V189.668H972.161V189.954L966.639 199.744C966.089 200.756 965.957 201.35 965.957 202.45V203Z" fill="black"/>
<path d="M1010.33 203.308C1013.96 203.308 1015.98 201.13 1015.98 197.632V197.346H1014.15V197.698C1014.15 200.008 1012.94 201.658 1010.33 201.658C1007.71 201.658 1006.17 199.964 1006.17 197.104V193.496C1006.17 190.636 1007.71 188.942 1010.33 188.942C1012.94 188.942 1014.15 190.592 1014.15 192.902V193.078H1015.98V192.968C1015.98 189.47 1013.96 187.292 1010.33 187.292C1006.67 187.292 1004.32 189.47 1004.32 193.54V197.06C1004.32 201.13 1006.67 203.308 1010.33 203.308ZM1023.91 203.308C1027.17 203.308 1029.41 201.13 1029.41 197.764V197.478C1029.41 194.112 1027.17 191.934 1023.91 191.934C1020.66 191.934 1018.41 194.112 1018.41 197.478V197.764C1018.41 201.13 1020.66 203.308 1023.91 203.308ZM1023.91 201.746C1021.65 201.746 1020.15 200.184 1020.15 197.72V197.522C1020.15 195.058 1021.63 193.496 1023.91 193.496C1026.18 193.496 1027.68 195.058 1027.68 197.522V197.72C1027.68 200.184 1026.18 201.746 1023.91 201.746ZM1032.54 203H1034.28V197.588C1034.28 194.926 1035.73 193.562 1037.8 193.562C1039.6 193.562 1040.77 194.486 1040.77 196.62V203H1042.51V196.488C1042.51 193.606 1040.61 192.044 1038.24 192.044C1036.04 192.044 1035 193.034 1034.54 194.068H1034.23V192.242H1032.54V203ZM1050.98 203.308C1054.09 203.308 1055.76 201.372 1056.22 199.216L1054.5 198.842C1054.24 200.492 1053.14 201.746 1051.01 201.746C1048.87 201.746 1047.24 200.228 1047.24 197.72V197.522C1047.24 195.014 1048.87 193.496 1051.01 193.496C1053.14 193.496 1054.22 194.816 1054.44 196.4L1056.13 196.048C1055.78 193.87 1054.09 191.934 1050.98 191.934C1047.84 191.934 1045.51 194.046 1045.51 197.5V197.742C1045.51 201.196 1047.84 203.308 1050.98 203.308ZM1064.11 203.308C1066.99 203.308 1068.27 201.702 1068.93 200.338L1067.43 199.612C1066.9 200.8 1066 201.768 1064.15 201.768C1062.02 201.768 1060.48 200.382 1060.41 198.072H1069.17V197.28C1069.17 194.002 1067.06 191.934 1064 191.934C1060.85 191.934 1058.65 194.178 1058.65 197.5V197.764C1058.65 201.086 1060.83 203.308 1064.11 203.308ZM1060.44 196.642C1060.7 194.64 1062.04 193.474 1064 193.474C1065.94 193.474 1067.28 194.64 1067.41 196.642H1060.44ZM1072.2 207.4H1073.94V201.306H1074.25C1074.78 202.296 1075.92 203.308 1078.16 203.308C1080.98 203.308 1083.25 201.196 1083.25 197.764V197.478C1083.25 194.024 1080.96 191.934 1078.16 191.934C1075.92 191.934 1074.78 192.946 1074.2 194.024H1073.9V192.242H1072.2V207.4ZM1077.7 201.768C1075.48 201.768 1073.92 200.272 1073.92 197.72V197.522C1073.92 194.97 1075.48 193.474 1077.7 193.474C1079.9 193.474 1081.46 194.97 1081.46 197.522V197.72C1081.46 200.272 1079.92 201.768 1077.7 201.768ZM1089.89 203H1092.75V201.482H1090.35C1089.89 201.482 1089.71 201.262 1089.71 200.822V193.76H1093.23V192.242H1089.71V188.414H1087.98V192.242H1084.74V193.76H1087.98V201.108C1087.98 202.274 1088.66 203 1089.89 203ZM1096.91 190.57C1097.68 190.57 1098.25 190.02 1098.25 189.25C1098.25 188.458 1097.68 187.908 1096.91 187.908C1096.16 187.908 1095.59 188.458 1095.59 189.25C1095.59 190.02 1096.16 190.57 1096.91 190.57ZM1096.05 203H1097.79V192.242H1096.05V203ZM1101.44 203H1103.18V197.588C1103.18 194.926 1104.63 193.562 1106.7 193.562C1108.5 193.562 1109.67 194.486 1109.67 196.62V203H1111.41V196.488C1111.41 193.606 1109.52 192.044 1107.14 192.044C1104.94 192.044 1103.91 193.034 1103.44 194.068H1103.14V192.242H1101.44V203ZM1114.41 197.676C1114.41 201.042 1116.67 203.11 1119.49 203.11C1121.75 203.11 1122.88 202.076 1123.4 201.108H1123.71V205.2C1123.71 205.64 1123.49 205.86 1123.05 205.86H1116.21V207.4H1123.51C1124.75 207.4 1125.41 206.674 1125.41 205.508V192.242H1123.76V194.024H1123.45C1122.88 192.968 1121.75 191.934 1119.49 191.934C1116.67 191.934 1114.41 194.002 1114.41 197.368V197.676ZM1119.95 201.57C1117.73 201.57 1116.17 200.096 1116.17 197.61V197.434C1116.17 194.948 1117.73 193.474 1119.95 193.474C1122.17 193.474 1123.71 194.948 1123.71 197.434V197.61C1123.71 200.096 1122.15 201.57 1119.95 201.57Z" fill="black"/>
<rect x="968.627" y="173.414" width="30" height="30" transform="rotate(45 968.627 173.414)" stroke="black" stroke-width="2"/>
<path d="M567.957 210H570.267V209.538C570.267 208.768 570.399 208.35 570.751 207.712L576.537 197.328V194.6H565.493V196.668H574.161V196.954L568.639 206.744C568.089 207.756 567.957 208.35 567.957 209.45V210Z" fill="black"/>
<rect x="570.627" y="180.414" width="30" height="30" transform="rotate(45 570.627 180.414)" stroke="black" stroke-width="2"/>
<path d="M969.007 264.308C972.549 264.308 974.903 262.614 974.903 259.908V259.666C974.903 257.488 973.385 256.454 972.263 256.19V255.838C973.385 255.508 974.661 254.518 974.661 252.582V252.34C974.661 249.876 972.351 248.292 969.007 248.292C965.641 248.292 963.353 249.876 963.353 252.34V252.582C963.353 254.518 964.629 255.508 965.751 255.838V256.19C964.629 256.454 963.089 257.488 963.089 259.666V259.908C963.089 262.614 965.443 264.308 969.007 264.308ZM969.007 255.046C966.895 255.046 965.641 254.232 965.641 252.78V252.604C965.641 251.174 966.917 250.36 969.007 250.36C971.075 250.36 972.351 251.174 972.351 252.604V252.78C972.351 254.232 971.097 255.046 969.007 255.046ZM969.007 262.24C966.741 262.24 965.399 261.338 965.399 259.776V259.6C965.399 258.016 966.719 257.114 969.007 257.114C971.273 257.114 972.593 258.016 972.593 259.6V259.776C972.593 261.338 971.251 262.24 969.007 262.24Z" fill="black"/>
<path d="M1004.76 264H1006.61V248.6H1004.76V264ZM1010.2 264H1011.94V248.6H1010.2V264ZM1015.59 264H1017.33V248.6H1015.59V264ZM1025.1 264.198C1027.3 264.198 1028.33 263.208 1028.81 262.174H1029.12V264H1030.82V253.242H1029.08V258.654C1029.08 261.316 1027.6 262.68 1025.56 262.68C1023.73 262.68 1022.59 261.756 1022.59 259.622V253.242H1020.85V259.754C1020.85 262.636 1022.72 264.198 1025.1 264.198ZM1038.79 264.308C1041.43 264.308 1043.12 263.12 1043.12 261.008C1043.12 258.918 1041.34 258.214 1039.07 257.818L1038.17 257.664C1036.81 257.422 1035.95 257.026 1035.95 255.992C1035.95 254.958 1036.85 254.386 1038.32 254.386C1039.78 254.386 1040.85 254.958 1041.12 256.498L1042.75 256.08C1042.31 254.078 1040.74 252.934 1038.32 252.934C1035.86 252.934 1034.23 254.078 1034.23 256.014C1034.23 257.95 1035.88 258.808 1037.99 259.182L1038.9 259.336C1040.46 259.622 1041.4 259.974 1041.4 261.074C1041.4 262.174 1040.39 262.856 1038.79 262.856C1037.16 262.856 1035.71 262.196 1035.4 260.084L1033.75 260.458C1034.12 263.12 1036.1 264.308 1038.79 264.308ZM1049.78 264H1052.64V262.482H1050.24C1049.78 262.482 1049.6 262.262 1049.6 261.822V254.76H1053.12V253.242H1049.6V249.414H1047.86V253.242H1044.63V254.76H1047.86V262.108C1047.86 263.274 1048.55 264 1049.78 264ZM1055.94 264H1057.68V257.444C1057.68 255.64 1058.71 254.782 1060.27 254.782H1061.66V253.198H1060.38C1059.08 253.198 1058.31 253.616 1057.94 254.562H1057.63V253.242H1055.94V264ZM1067.17 264.308C1069.39 264.308 1070.29 263.252 1070.75 262.394H1071.02V262.504C1071.02 263.428 1071.65 264 1072.62 264H1074.14V262.526H1073.15C1072.75 262.526 1072.53 262.306 1072.53 261.866V257.004C1072.53 254.43 1070.91 252.934 1068.18 252.934C1065.47 252.934 1064.02 254.408 1063.51 256.212L1065.14 256.74C1065.47 255.354 1066.42 254.43 1068.16 254.43C1069.94 254.43 1070.82 255.376 1070.82 256.894V257.686H1067.19C1064.88 257.686 1063.14 258.764 1063.14 260.942C1063.14 263.098 1064.88 264.308 1067.17 264.308ZM1067.36 262.812C1065.87 262.812 1064.88 262.108 1064.88 260.898C1064.88 259.688 1065.87 259.094 1067.25 259.094H1070.82V259.336C1070.82 261.536 1069.43 262.812 1067.36 262.812ZM1079.77 264H1082.63V262.482H1080.23C1079.77 262.482 1079.59 262.262 1079.59 261.822V254.76H1083.11V253.242H1079.59V249.414H1077.86V253.242H1074.62V254.76H1077.86V262.108C1077.86 263.274 1078.54 264 1079.77 264ZM1086.79 251.57C1087.56 251.57 1088.13 251.02 1088.13 250.25C1088.13 249.458 1087.56 248.908 1086.79 248.908C1086.04 248.908 1085.47 249.458 1085.47 250.25C1085.47 251.02 1086.04 251.57 1086.79 251.57ZM1085.93 264H1087.67V253.242H1085.93V264ZM1096.29 264.308C1099.55 264.308 1101.79 262.13 1101.79 258.764V258.478C1101.79 255.112 1099.55 252.934 1096.29 252.934C1093.04 252.934 1090.79 255.112 1090.79 258.478V258.764C1090.79 262.13 1093.04 264.308 1096.29 264.308ZM1096.29 262.746C1094.03 262.746 1092.53 261.184 1092.53 258.72V258.522C1092.53 256.058 1094.01 254.496 1096.29 254.496C1098.56 254.496 1100.06 256.058 1100.06 258.522V258.72C1100.06 261.184 1098.56 262.746 1096.29 262.746ZM1104.92 264H1106.66V258.588C1106.66 255.926 1108.11 254.562 1110.18 254.562C1111.98 254.562 1113.15 255.486 1113.15 257.62V264H1114.89V257.488C1114.89 254.606 1113 253.044 1110.62 253.044C1108.42 253.044 1107.39 254.034 1106.92 255.068H1106.62V253.242H1104.92V264Z" fill="black"/>
<rect x="968.627" y="234.414" width="30" height="30" transform="rotate(45 968.627 234.414)" stroke="black" stroke-width="2"/>
<path d="M183.007 508.308C186.549 508.308 188.903 506.614 188.903 503.908V503.666C188.903 501.488 187.385 500.454 186.263 500.19V499.838C187.385 499.508 188.661 498.518 188.661 496.582V496.34C188.661 493.876 186.351 492.292 183.007 492.292C179.641 492.292 177.353 493.876 177.353 496.34V496.582C177.353 498.518 178.629 499.508 179.751 499.838V500.19C178.629 500.454 177.089 501.488 177.089 503.666V503.908C177.089 506.614 179.443 508.308 183.007 508.308ZM183.007 499.046C180.895 499.046 179.641 498.232 179.641 496.78V496.604C179.641 495.174 180.917 494.36 183.007 494.36C185.075 494.36 186.351 495.174 186.351 496.604V496.78C186.351 498.232 185.097 499.046 183.007 499.046ZM183.007 506.24C180.741 506.24 179.399 505.338 179.399 503.776V503.6C179.399 502.016 180.719 501.114 183.007 501.114C185.273 501.114 186.593 502.016 186.593 503.6V503.776C186.593 505.338 185.251 506.24 183.007 506.24Z" fill="black"/>
<rect x="182.627" y="478.414" width="30" height="30" transform="rotate(45 182.627 478.414)" stroke="black" stroke-width="2"/>
<path d="M968.832 325.308C972.264 325.308 974.552 323.372 974.552 319.786V314.462C974.552 311.338 972.286 309.292 968.92 309.292C965.576 309.292 963.244 311.316 963.244 314.396V314.66C963.244 317.762 965.554 319.61 968.26 319.61C970.35 319.61 971.384 318.84 971.912 318.114H972.242V319.962C972.242 322.008 971.01 323.24 968.832 323.24C966.654 323.24 965.686 322.096 965.686 320.578H963.332C963.332 323.416 965.4 325.308 968.832 325.308ZM968.898 317.74C966.896 317.74 965.554 316.508 965.554 314.616V314.44C965.554 312.548 966.874 311.36 968.898 311.36C970.922 311.36 972.242 312.548 972.242 314.44V314.616C972.242 316.508 970.9 317.74 968.898 317.74Z" fill="black"/>
<path d="M1003.55 325H1005.46L1006.65 321.106H1013.21L1014.4 325H1016.31L1011.56 309.6H1008.3L1003.55 325ZM1007.14 319.434L1009.78 310.722H1010.08L1012.72 319.434H1007.14ZM1023.63 325.308C1026.74 325.308 1028.41 323.372 1028.87 321.216L1027.15 320.842C1026.89 322.492 1025.79 323.746 1023.66 323.746C1021.52 323.746 1019.89 322.228 1019.89 319.72V319.522C1019.89 317.014 1021.52 315.496 1023.66 315.496C1025.79 315.496 1026.87 316.816 1027.09 318.4L1028.78 318.048C1028.43 315.87 1026.74 313.934 1023.63 313.934C1020.49 313.934 1018.16 316.046 1018.16 319.5V319.742C1018.16 323.196 1020.49 325.308 1023.63 325.308ZM1036.78 325.308C1039.88 325.308 1041.56 323.372 1042.02 321.216L1040.3 320.842C1040.04 322.492 1038.94 323.746 1036.8 323.746C1034.67 323.746 1033.04 322.228 1033.04 319.72V319.522C1033.04 317.014 1034.67 315.496 1036.8 315.496C1038.94 315.496 1040.02 316.816 1040.24 318.4L1041.93 318.048C1041.58 315.87 1039.88 313.934 1036.78 313.934C1033.64 313.934 1031.3 316.046 1031.3 319.5V319.742C1031.3 323.196 1033.64 325.308 1036.78 325.308ZM1049.95 325.308C1053.21 325.308 1055.45 323.13 1055.45 319.764V319.478C1055.45 316.112 1053.21 313.934 1049.95 313.934C1046.7 313.934 1044.45 316.112 1044.45 319.478V319.764C1044.45 323.13 1046.7 325.308 1049.95 325.308ZM1049.95 323.746C1047.69 323.746 1046.19 322.184 1046.19 319.72V319.522C1046.19 317.058 1047.66 315.496 1049.95 315.496C1052.22 315.496 1053.71 317.058 1053.71 319.522V319.72C1053.71 322.184 1052.22 323.746 1049.95 323.746ZM1062.69 325.198C1064.89 325.198 1065.93 324.208 1066.41 323.174H1066.72V325H1068.41V314.242H1066.68V319.654C1066.68 322.316 1065.2 323.68 1063.16 323.68C1061.33 323.68 1060.19 322.756 1060.19 320.622V314.242H1058.45V320.754C1058.45 323.636 1060.32 325.198 1062.69 325.198ZM1072.05 325H1073.79V319.588C1073.79 316.926 1075.24 315.562 1077.31 315.562C1079.11 315.562 1080.28 316.486 1080.28 318.62V325H1082.02V318.488C1082.02 315.606 1080.12 314.044 1077.75 314.044C1075.55 314.044 1074.51 315.034 1074.05 316.068H1073.74V314.242H1072.05V325ZM1089.2 325H1092.06V323.482H1089.66C1089.2 323.482 1089.03 323.262 1089.03 322.822V315.76H1092.55V314.242H1089.03V310.414H1087.29V314.242H1084.05V315.76H1087.29V323.108C1087.29 324.274 1087.97 325 1089.2 325ZM1096.22 312.57C1096.99 312.57 1097.56 312.02 1097.56 311.25C1097.56 310.458 1096.99 309.908 1096.22 309.908C1095.47 309.908 1094.9 310.458 1094.9 311.25C1094.9 312.02 1095.47 312.57 1096.22 312.57ZM1095.36 325H1097.1V314.242H1095.36V325ZM1100.75 325H1102.49V319.588C1102.49 316.926 1103.94 315.562 1106.01 315.562C1107.82 315.562 1108.98 316.486 1108.98 318.62V325H1110.72V318.488C1110.72 315.606 1108.83 314.044 1106.45 314.044C1104.25 314.044 1103.22 315.034 1102.76 316.068H1102.45V314.242H1100.75V325ZM1113.72 319.676C1113.72 323.042 1115.98 325.11 1118.8 325.11C1121.07 325.11 1122.19 324.076 1122.72 323.108H1123.02V327.2C1123.02 327.64 1122.8 327.86 1122.36 327.86H1115.52V329.4H1122.83C1124.06 329.4 1124.72 328.674 1124.72 327.508V314.242H1123.07V316.024H1122.76C1122.19 314.968 1121.07 313.934 1118.8 313.934C1115.98 313.934 1113.72 316.002 1113.72 319.368V319.676ZM1119.26 323.57C1117.04 323.57 1115.48 322.096 1115.48 319.61V319.434C1115.48 316.948 1117.04 315.474 1119.26 315.474C1121.48 315.474 1123.02 316.948 1123.02 319.434V319.61C1123.02 322.096 1121.46 323.57 1119.26 323.57Z" fill="black"/>
<rect x="968.627" y="295.414" width="30" height="30" transform="rotate(45 968.627 295.414)" stroke="black" stroke-width="2"/>
<path d="M550.832 620.308C554.264 620.308 556.552 618.372 556.552 614.786V609.462C556.552 606.338 554.286 604.292 550.92 604.292C547.576 604.292 545.244 606.316 545.244 609.396V609.66C545.244 612.762 547.554 614.61 550.26 614.61C552.35 614.61 553.384 613.84 553.912 613.114H554.242V614.962C554.242 617.008 553.01 618.24 550.832 618.24C548.654 618.24 547.686 617.096 547.686 615.578H545.332C545.332 618.416 547.4 620.308 550.832 620.308ZM550.898 612.74C548.896 612.74 547.554 611.508 547.554 609.616V609.44C547.554 607.548 548.874 606.36 550.898 606.36C552.922 606.36 554.242 607.548 554.242 609.44V609.616C554.242 611.508 552.9 612.74 550.898 612.74Z" fill="black"/>
<rect x="550.627" y="590.414" width="30" height="30" transform="rotate(45 550.627 590.414)" stroke="black" stroke-width="2"/>
<path d="M642.874 316H645.184V300.6H640.96L637.55 307.42H639.992L642.522 302.228H642.874V316Z" fill="black"/>
<rect x="641.627" y="286.414" width="30" height="30" transform="rotate(45 641.627 286.414)" stroke="black" stroke-width="2"/>
<path d="M185.482 149H196.504V146.932H187.814V146.712C187.814 145.15 188.628 144.512 190.696 143.874L191.994 143.478C194.7 142.62 196.636 141.256 196.636 138.286V138.066C196.636 135.184 194.304 133.292 191.136 133.292C187.968 133.292 185.548 135.184 185.548 138.506V138.836H187.836V138.484C187.836 136.416 189.156 135.36 191.136 135.36C193.05 135.36 194.326 136.438 194.326 138.11V138.198C194.326 139.936 193.226 140.86 191.422 141.432L190.08 141.85C187.176 142.752 185.482 144.028 185.482 147.262V149Z" fill="black"/>
<rect x="190.627" y="119.414" width="30" height="30" transform="rotate(45 190.627 119.414)" stroke="black" stroke-width="2"/>
<path d="M750.482 203H761.504V200.932H752.814V200.712C752.814 199.15 753.628 198.512 755.696 197.874L756.994 197.478C759.7 196.62 761.636 195.256 761.636 192.286V192.066C761.636 189.184 759.304 187.292 756.136 187.292C752.968 187.292 750.548 189.184 750.548 192.506V192.836H752.836V192.484C752.836 190.416 754.156 189.36 756.136 189.36C758.05 189.36 759.326 190.438 759.326 192.11V192.198C759.326 193.936 758.226 194.86 756.422 195.432L755.08 195.85C752.176 196.752 750.482 198.028 750.482 201.262V203Z" fill="black"/>
<path d="M790.55 203H792.464L793.652 199.106H800.208L801.396 203H803.31L798.558 187.6H795.302L790.55 203ZM794.136 197.434L796.776 188.722H797.084L799.724 197.434H794.136ZM805.617 203H807.465V187.6H805.617V203Z" fill="black"/>
<rect x="755.627" y="173.414" width="30" height="30" transform="rotate(45 755.627 173.414)" stroke="black" stroke-width="2"/>
<path d="M279.017 121.308C282.405 121.308 284.671 119.394 284.671 116.446V116.182C284.671 113.388 282.471 112.112 280.139 112.112H279.193V111.804L284.363 108.724V105.6H273.583V107.668H281.855V107.976L276.443 111.166V113.828H279.237C280.975 113.828 282.361 114.532 282.361 116.248V116.446C282.361 118.052 281.107 119.24 279.017 119.24C276.905 119.24 275.519 118.03 275.519 116.094V115.742H273.209V116.138C273.209 119.372 275.629 121.308 279.017 121.308Z" fill="black"/>
<rect x="278.627" y="91.4142" width="30" height="30" transform="rotate(45 278.627 91.4142)" stroke="black" stroke-width="2"/>
<path d="M756.017 264.308C759.405 264.308 761.671 262.394 761.671 259.446V259.182C761.671 256.388 759.471 255.112 757.139 255.112H756.193V254.804L761.363 251.724V248.6H750.583V250.668H758.855V250.976L753.443 254.166V256.828H756.237C757.975 256.828 759.361 257.532 759.361 259.248V259.446C759.361 261.052 758.107 262.24 756.017 262.24C753.905 262.24 752.519 261.03 752.519 259.094V258.742H750.209V259.138C750.209 262.372 752.629 264.308 756.017 264.308Z" fill="black"/>
<path d="M791.034 264H798.734C801.396 264 803.376 262.504 803.376 259.974V259.754C803.376 257.598 801.924 256.63 800.824 256.366V256.058C801.902 255.728 803.354 254.804 803.354 252.648V252.472C803.354 250.14 801.462 248.6 798.756 248.6H791.034V250.25H793.19V262.35H791.034V264ZM795.038 255.398V250.272H798.602C800.384 250.272 801.506 251.24 801.506 252.736V252.956C801.506 254.43 800.384 255.398 798.602 255.398H795.038ZM795.038 262.328V257.07H798.536C800.472 257.07 801.528 258.038 801.528 259.6V259.798C801.528 261.36 800.472 262.328 798.536 262.328H795.038ZM806.371 264H808.109V248.6H806.371V264ZM816.736 264.308C819.992 264.308 822.236 262.13 822.236 258.764V258.478C822.236 255.112 819.992 252.934 816.736 252.934C813.48 252.934 811.236 255.112 811.236 258.478V258.764C811.236 262.13 813.48 264.308 816.736 264.308ZM816.736 262.746C814.47 262.746 812.974 261.184 812.974 258.72V258.522C812.974 256.058 814.448 254.496 816.736 254.496C819.002 254.496 820.498 256.058 820.498 258.522V258.72C820.498 261.184 819.002 262.746 816.736 262.746ZM830.313 264.308C833.415 264.308 835.087 262.372 835.549 260.216L833.833 259.842C833.569 261.492 832.469 262.746 830.335 262.746C828.201 262.746 826.573 261.228 826.573 258.72V258.522C826.573 256.014 828.201 254.496 830.335 254.496C832.469 254.496 833.547 255.816 833.767 257.4L835.461 257.048C835.109 254.87 833.415 252.934 830.313 252.934C827.167 252.934 824.835 255.046 824.835 258.5V258.742C824.835 262.196 827.167 264.308 830.313 264.308ZM838.512 264H840.25V259.314H840.558L845.684 264H848.082L841.944 258.478L847.906 253.242H845.486L840.558 257.664H840.25V248.6H838.512V264ZM854.719 264.308C857.821 264.308 859.493 262.372 859.955 260.216L858.239 259.842C857.975 261.492 856.875 262.746 854.741 262.746C852.607 262.746 850.979 261.228 850.979 258.72V258.522C850.979 256.014 852.607 254.496 854.741 254.496C856.875 254.496 857.953 255.816 858.173 257.4L859.867 257.048C859.515 254.87 857.821 252.934 854.719 252.934C851.573 252.934 849.241 255.046 849.241 258.5V258.742C849.241 262.196 851.573 264.308 854.719 264.308ZM862.918 264H864.656V258.588C864.656 255.926 866.108 254.562 868.176 254.562C869.98 254.562 871.146 255.486 871.146 257.62V264H872.884V257.488C872.884 254.606 870.992 253.044 868.616 253.044C866.438 253.044 865.426 254.012 864.964 254.958H864.656V248.6H862.918V264ZM879.71 264.308C881.932 264.308 882.834 263.252 883.296 262.394H883.56V262.504C883.56 263.428 884.198 264 885.166 264H886.684V262.526H885.694C885.298 262.526 885.078 262.306 885.078 261.866V257.004C885.078 254.43 883.45 252.934 880.722 252.934C878.016 252.934 876.564 254.408 876.058 256.212L877.686 256.74C878.016 255.354 878.962 254.43 880.7 254.43C882.482 254.43 883.362 255.376 883.362 256.894V257.686H879.732C877.422 257.686 875.684 258.764 875.684 260.942C875.684 263.098 877.422 264.308 879.71 264.308ZM879.908 262.812C878.412 262.812 877.422 262.108 877.422 260.898C877.422 259.688 878.412 259.094 879.798 259.094H883.362V259.336C883.362 261.536 881.976 262.812 879.908 262.812ZM889.922 251.57C890.692 251.57 891.264 251.02 891.264 250.25C891.264 249.458 890.692 248.908 889.922 248.908C889.174 248.908 888.602 249.458 888.602 250.25C888.602 251.02 889.174 251.57 889.922 251.57ZM889.064 264H890.802V253.242H889.064V264ZM894.457 264H896.195V258.588C896.195 255.926 897.647 254.562 899.715 254.562C901.519 254.562 902.685 255.486 902.685 257.62V264H904.423V257.488C904.423 254.606 902.531 253.044 900.155 253.044C897.955 253.044 896.921 254.034 896.459 255.068H896.151V253.242H894.457V264Z" fill="black"/>
<rect x="755.627" y="234.414" width="30" height="30" transform="rotate(45 755.627 234.414)" stroke="black" stroke-width="2"/>
<path d="M757.497 325H759.807V321.854H762.403V319.808H759.807V309.6H755.605L749.709 319.17V321.854H757.497V325ZM751.953 319.808V319.5L757.145 311.052H757.497V319.808H751.953Z" fill="black"/>
<path d="M793.322 325H796.644L799.482 310.7H799.79L802.628 325H805.928L808.436 309.6H806.588L804.41 323.812H804.102L801.286 309.6H797.986L795.148 323.812H794.84L792.662 309.6H790.814L793.322 325ZM815.703 325.308C818.585 325.308 819.861 323.702 820.521 322.338L819.025 321.612C818.497 322.8 817.595 323.768 815.747 323.768C813.613 323.768 812.073 322.382 812.007 320.072H820.763V319.28C820.763 316.002 818.651 313.934 815.593 313.934C812.447 313.934 810.247 316.178 810.247 319.5V319.764C810.247 323.086 812.425 325.308 815.703 325.308ZM812.029 318.642C812.293 316.64 813.635 315.474 815.593 315.474C817.529 315.474 818.871 316.64 819.003 318.642H812.029ZM829.757 325.308C832.551 325.308 834.839 323.218 834.839 319.764V319.478C834.839 316.046 832.573 313.934 829.757 313.934C827.513 313.934 826.369 314.946 825.841 315.936H825.533V309.6H823.795V325H825.489V323.218H825.797C826.369 324.296 827.513 325.308 829.757 325.308ZM829.295 323.768C827.073 323.768 825.511 322.272 825.511 319.72V319.522C825.511 316.97 827.073 315.474 829.295 315.474C831.517 315.474 833.057 316.97 833.057 319.522V319.72C833.057 322.272 831.495 323.768 829.295 323.768ZM842.507 325.308C844.751 325.308 845.873 324.296 846.467 323.218H846.775V325H848.469V309.6H846.731V315.936H846.423C845.873 314.946 844.751 313.934 842.507 313.934C839.691 313.934 837.425 316.046 837.425 319.478V319.764C837.425 323.218 839.713 325.308 842.507 325.308ZM842.969 323.768C840.747 323.768 839.185 322.272 839.185 319.72V319.522C839.185 316.97 840.747 315.474 842.969 315.474C845.191 315.474 846.731 316.97 846.731 319.522V319.72C846.731 322.272 845.169 323.768 842.969 323.768ZM857.039 325.308C859.921 325.308 861.197 323.702 861.857 322.338L860.361 321.612C859.833 322.8 858.931 323.768 857.083 323.768C854.949 323.768 853.409 322.382 853.343 320.072H862.099V319.28C862.099 316.002 859.987 313.934 856.929 313.934C853.783 313.934 851.583 316.178 851.583 319.5V319.764C851.583 323.086 853.761 325.308 857.039 325.308ZM853.365 318.642C853.629 316.64 854.971 315.474 856.929 315.474C858.865 315.474 860.207 316.64 860.339 318.642H853.365ZM869.465 325.308C872.105 325.308 873.799 324.12 873.799 322.008C873.799 319.918 872.017 319.214 869.751 318.818L868.849 318.664C867.485 318.422 866.627 318.026 866.627 316.992C866.627 315.958 867.529 315.386 869.003 315.386C870.455 315.386 871.533 315.958 871.797 317.498L873.425 317.08C872.985 315.078 871.423 313.934 869.003 313.934C866.539 313.934 864.911 315.078 864.911 317.014C864.911 318.95 866.561 319.808 868.673 320.182L869.575 320.336C871.137 320.622 872.083 320.974 872.083 322.074C872.083 323.174 871.071 323.856 869.465 323.856C867.837 323.856 866.385 323.196 866.077 321.084L864.427 321.458C864.801 324.12 866.781 325.308 869.465 325.308ZM877.59 312.57C878.36 312.57 878.932 312.02 878.932 311.25C878.932 310.458 878.36 309.908 877.59 309.908C876.842 309.908 876.27 310.458 876.27 311.25C876.27 312.02 876.842 312.57 877.59 312.57ZM876.732 325H878.47V314.242H876.732V325ZM881.597 319.676C881.597 323.042 883.863 325.11 886.679 325.11C888.945 325.11 890.067 324.076 890.595 323.108H890.903V327.2C890.903 327.64 890.683 327.86 890.243 327.86H883.401V329.4H890.705C891.937 329.4 892.597 328.674 892.597 327.508V314.242H890.947V316.024H890.639C890.067 314.968 888.945 313.934 886.679 313.934C883.863 313.934 881.597 316.002 881.597 319.368V319.676ZM887.141 323.57C884.919 323.57 883.357 322.096 883.357 319.61V319.434C883.357 316.948 884.919 315.474 887.141 315.474C889.363 315.474 890.903 316.948 890.903 319.434V319.61C890.903 322.096 889.341 323.57 887.141 323.57ZM896.24 325H897.978V319.588C897.978 316.926 899.43 315.562 901.498 315.562C903.302 315.562 904.468 316.486 904.468 318.62V325H906.206V318.488C906.206 315.606 904.314 314.044 901.938 314.044C899.738 314.044 898.704 315.034 898.242 316.068H897.934V314.242H896.24V325Z" fill="black"/>
<rect x="755.627" y="295.414" width="30" height="30" transform="rotate(45 755.627 295.414)" stroke="black" stroke-width="2"/>
<path d="M532.497 344H534.807V340.854H537.403V338.808H534.807V328.6H530.605L524.709 338.17V340.854H532.497V344ZM526.953 338.808V338.5L532.145 330.052H532.497V338.808H526.953Z" fill="black"/>
<rect x="530.627" y="314.414" width="30" height="30" transform="rotate(45 530.627 314.414)" stroke="black" stroke-width="2"/>
<path d="M756.059 386.308C759.579 386.308 761.713 384.218 761.713 381.006V380.764C761.713 377.552 759.513 375.726 756.807 375.726C754.937 375.726 753.947 376.518 753.529 377.222H753.177V372.69H761.185V370.6H750.867V379.07H753.793C754.145 378.454 754.805 377.64 756.323 377.64C758.127 377.64 759.403 378.872 759.403 380.786V380.984C759.403 382.964 758.171 384.24 756.037 384.24C753.947 384.24 752.737 383.008 752.737 381.138V380.918H750.383V381.16C750.383 384.262 752.583 386.308 756.059 386.308Z" fill="black"/>
<path d="M795.192 386H798.426L803.068 370.6H801.154L796.952 384.878H796.666L792.464 370.6H790.55L795.192 386ZM805.381 386H807.229V379.686H812.553C813.543 379.686 814.005 380.17 814.005 381.05V386H815.831V380.83C815.831 379.51 815.061 378.872 814.005 378.828V378.52C815.325 378.102 816.447 376.958 816.447 374.934V374.692C816.447 372.14 814.445 370.6 811.607 370.6H805.381V386ZM807.229 378.014V372.272H811.431C813.477 372.272 814.599 373.284 814.599 375.066V375.22C814.599 376.98 813.433 378.014 811.431 378.014H807.229Z" fill="black"/>
<rect x="755.627" y="356.414" width="30" height="30" transform="rotate(45 755.627 356.414)" stroke="black" stroke-width="2"/>
<path d="M453.059 446.308C456.579 446.308 458.713 444.218 458.713 441.006V440.764C458.713 437.552 456.513 435.726 453.807 435.726C451.937 435.726 450.947 436.518 450.529 437.222H450.177V432.69H458.185V430.6H447.867V439.07H450.793C451.145 438.454 451.805 437.64 453.323 437.64C455.127 437.64 456.403 438.872 456.403 440.786V440.984C456.403 442.964 455.171 444.24 453.037 444.24C450.947 444.24 449.737 443.008 449.737 441.138V440.918H447.383V441.16C447.383 444.262 449.583 446.308 453.059 446.308Z" fill="black"/>
<rect x="452.627" y="416.414" width="30" height="30" transform="rotate(45 452.627 416.414)" stroke="black" stroke-width="2"/>
<path d="M788.034 512H794.04C798.088 512 800.398 509.998 800.398 505.73V502.87C800.398 498.624 798.088 496.6 794.04 496.6H788.034V498.25H790.19V510.35H788.034V512ZM792.038 510.328V498.294H794.04C797.01 498.294 798.572 499.68 798.572 502.804V505.818C798.572 508.92 797.01 510.328 794.04 510.328H792.038ZM808.342 512.308C811.224 512.308 812.5 510.702 813.16 509.338L811.664 508.612C811.136 509.8 810.234 510.768 808.386 510.768C806.252 510.768 804.712 509.382 804.646 507.072H813.402V506.28C813.402 503.002 811.29 500.934 808.232 500.934C805.086 500.934 802.886 503.178 802.886 506.5V506.764C802.886 510.086 805.064 512.308 808.342 512.308ZM804.668 505.642C804.932 503.64 806.274 502.474 808.232 502.474C810.168 502.474 811.51 503.64 811.642 505.642H804.668ZM820.767 512.308C823.407 512.308 825.101 511.12 825.101 509.008C825.101 506.918 823.319 506.214 821.053 505.818L820.151 505.664C818.787 505.422 817.929 505.026 817.929 503.992C817.929 502.958 818.831 502.386 820.305 502.386C821.757 502.386 822.835 502.958 823.099 504.498L824.727 504.08C824.287 502.078 822.725 500.934 820.305 500.934C817.841 500.934 816.213 502.078 816.213 504.014C816.213 505.95 817.863 506.808 819.975 507.182L820.877 507.336C822.439 507.622 823.385 507.974 823.385 509.074C823.385 510.174 822.373 510.856 820.767 510.856C819.139 510.856 817.687 510.196 817.379 508.084L815.729 508.458C816.103 511.12 818.083 512.308 820.767 512.308ZM828.893 499.57C829.663 499.57 830.235 499.02 830.235 498.25C830.235 497.458 829.663 496.908 828.893 496.908C828.145 496.908 827.573 497.458 827.573 498.25C827.573 499.02 828.145 499.57 828.893 499.57ZM828.035 512H829.773V501.242H828.035V512ZM832.9 506.676C832.9 510.042 835.166 512.11 837.982 512.11C840.248 512.11 841.37 511.076 841.898 510.108H842.206V514.2C842.206 514.64 841.986 514.86 841.546 514.86H834.704V516.4H842.008C843.24 516.4 843.9 515.674 843.9 514.508V501.242H842.25V503.024H841.942C841.37 501.968 840.248 500.934 837.982 500.934C835.166 500.934 832.9 503.002 832.9 506.368V506.676ZM838.444 510.57C836.222 510.57 834.66 509.096 834.66 506.61V506.434C834.66 503.948 836.222 502.474 838.444 502.474C840.666 502.474 842.206 503.948 842.206 506.434V506.61C842.206 509.096 840.644 510.57 838.444 510.57ZM847.543 512H849.281V506.588C849.281 503.926 850.733 502.562 852.801 502.562C854.605 502.562 855.771 503.486 855.771 505.62V512H857.509V505.488C857.509 502.606 855.617 501.044 853.241 501.044C851.041 501.044 850.007 502.034 849.545 503.068H849.237V501.242H847.543V512ZM866.619 512H876.211V510.328H868.467V505.092H875.485V503.42H868.467V498.272H876.101V496.6H866.619V512ZM883.042 512H885.902V510.482H883.504C883.042 510.482 882.866 510.262 882.866 509.822V502.76H886.386V501.242H882.866V497.414H881.128V501.242H877.894V502.76H881.128V510.108C881.128 511.274 881.81 512 883.042 512ZM889.201 512H890.939V506.588C890.939 503.926 892.391 502.562 894.459 502.562C896.263 502.562 897.429 503.486 897.429 505.62V512H899.167V505.488C899.167 502.606 897.275 501.044 894.899 501.044C892.721 501.044 891.709 502.012 891.247 502.958H890.939V496.6H889.201V512ZM903.551 499.57C904.321 499.57 904.893 499.02 904.893 498.25C904.893 497.458 904.321 496.908 903.551 496.908C902.803 496.908 902.231 497.458 902.231 498.25C902.231 499.02 902.803 499.57 903.551 499.57ZM902.693 512H904.431V501.242H902.693V512ZM913.036 512.308C916.138 512.308 917.81 510.372 918.272 508.216L916.556 507.842C916.292 509.492 915.192 510.746 913.058 510.746C910.924 510.746 909.296 509.228 909.296 506.72V506.522C909.296 504.014 910.924 502.496 913.058 502.496C915.192 502.496 916.27 503.816 916.49 505.4L918.184 505.048C917.832 502.87 916.138 500.934 913.036 500.934C909.89 500.934 907.558 503.046 907.558 506.5V506.742C907.558 510.196 909.89 512.308 913.036 512.308ZM925.568 512.308C928.208 512.308 929.902 511.12 929.902 509.008C929.902 506.918 928.12 506.214 925.854 505.818L924.952 505.664C923.588 505.422 922.73 505.026 922.73 503.992C922.73 502.958 923.632 502.386 925.106 502.386C926.558 502.386 927.636 502.958 927.9 504.498L929.528 504.08C929.088 502.078 927.526 500.934 925.106 500.934C922.642 500.934 921.014 502.078 921.014 504.014C921.014 505.95 922.664 506.808 924.776 507.182L925.678 507.336C927.24 507.622 928.186 507.974 928.186 509.074C928.186 510.174 927.174 510.856 925.568 510.856C923.94 510.856 922.488 510.196 922.18 508.084L920.53 508.458C920.904 511.12 922.884 512.308 925.568 512.308Z" fill="black"/>
<path d="M753.874 512H756.184V496.6H751.96L748.55 503.42H750.992L753.522 498.228H753.874V512Z" fill="black"/>
<circle cx="753" cy="504" r="19" stroke="black" stroke-width="2"/>
<path d="M622.874 149H625.184V133.6H620.96L617.55 140.42H619.992L622.522 135.228H622.874V149Z" fill="black"/>
<circle cx="622" cy="141" r="19" stroke="black" stroke-width="2"/>
<path d="M327.482 230H338.504V227.932H329.814V227.712C329.814 226.15 330.628 225.512 332.696 224.874L333.994 224.478C336.7 223.62 338.636 222.256 338.636 219.286V219.066C338.636 216.184 336.304 214.292 333.136 214.292C329.968 214.292 327.548 216.184 327.548 219.506V219.836H329.836V219.484C329.836 217.416 331.156 216.36 333.136 216.36C335.05 216.36 336.326 217.438 336.326 219.11V219.198C336.326 220.936 335.226 221.86 333.422 222.432L332.08 222.85C329.176 223.752 327.482 225.028 327.482 228.262V230Z" fill="black"/>
<circle cx="333" cy="222" r="19" stroke="black" stroke-width="2"/>
<path d="M532.472 141.165C532.563 140.904 532.426 140.619 532.165 140.528L527.917 139.044C527.656 138.953 527.371 139.09 527.28 139.351C527.189 139.612 527.326 139.897 527.587 139.988L531.363 141.307L530.044 145.083C529.953 145.344 530.09 145.629 530.351 145.72C530.612 145.811 530.897 145.674 530.988 145.413L532.472 141.165ZM211 141C210.796 141.456 210.796 141.456 210.796 141.457C210.796 141.457 210.796 141.457 210.796 141.457C210.796 141.457 210.796 141.457 210.796 141.457C210.797 141.457 210.797 141.457 210.797 141.457C210.798 141.458 210.8 141.458 210.801 141.459C210.805 141.46 210.809 141.462 210.816 141.465C210.828 141.471 210.847 141.479 210.872 141.49C210.923 141.512 210.997 141.545 211.096 141.588C211.294 141.674 211.59 141.802 211.98 141.967C212.761 142.297 213.922 142.777 215.446 143.383L215.815 142.453C214.298 141.851 213.144 141.373 212.369 141.046C211.982 140.882 211.69 140.756 211.495 140.671C211.398 140.629 211.325 140.597 211.276 140.575C211.252 140.565 211.233 140.557 211.221 140.551C211.215 140.549 211.211 140.547 211.208 140.545C211.207 140.545 211.206 140.544 211.205 140.544C211.205 140.544 211.204 140.544 211.204 140.544C211.204 140.544 211.204 140.544 211.204 140.544C211.204 140.544 211.204 140.544 211.204 140.544C211.204 140.544 211.204 140.544 211 141ZM224.853 146.913C227.637 147.905 230.81 148.994 234.352 150.148L234.661 149.197C231.129 148.046 227.964 146.96 225.189 145.971L224.853 146.913ZM243.966 153.147C247.001 154.054 250.225 154.981 253.628 155.914L253.893 154.95C250.497 154.018 247.28 153.094 244.252 152.189L243.966 153.147ZM263.339 158.463C266.476 159.251 269.736 160.035 273.114 160.808L273.337 159.833C269.966 159.062 266.713 158.28 263.582 157.494L263.339 158.463ZM282.95 162.951C286.144 163.613 289.427 164.26 292.795 164.886L292.978 163.903C289.617 163.278 286.34 162.632 283.153 161.972L282.95 162.951ZM302.704 166.625C305.947 167.161 309.258 167.674 312.636 168.162L312.779 167.173C309.408 166.686 306.103 166.173 302.867 165.639L302.704 166.625ZM322.588 169.498C325.864 169.904 329.196 170.285 332.582 170.635L332.685 169.641C329.306 169.291 325.981 168.911 322.711 168.506L322.588 169.498ZM342.601 171.57C345.893 171.844 349.23 172.088 352.612 172.3L352.674 171.302C349.3 171.09 345.969 170.847 342.684 170.574L342.601 171.57ZM362.643 172.826C364.314 172.897 365.995 172.959 367.685 173.013L367.717 172.013C366.03 171.96 364.353 171.897 362.686 171.827L362.643 172.826ZM367.685 173.013C369.457 173.069 371.221 173.112 372.977 173.142L372.994 172.142C371.243 172.113 369.484 172.07 367.717 172.013L367.685 173.013ZM383.524 173.165C387.078 173.122 390.595 173.026 394.071 172.883L394.03 171.884C390.563 172.026 387.056 172.122 383.511 172.166L383.524 173.165ZM404.619 172.3C408.173 172.054 411.679 171.76 415.134 171.425L415.037 170.43C411.592 170.764 408.095 171.057 404.55 171.303L404.619 172.3ZM425.611 170.264C429.165 169.822 432.657 169.339 436.082 168.819L435.932 167.831C432.515 168.349 429.033 168.831 425.488 169.272L425.611 170.264ZM446.477 167.104C450.022 166.472 453.484 165.805 456.859 165.112L456.657 164.133C453.292 164.824 449.838 165.489 446.301 166.12L446.477 167.104ZM467.144 162.862C470.685 162.039 474.11 161.194 477.412 160.336L477.161 159.369C473.867 160.224 470.45 161.067 466.917 161.888L467.144 162.862ZM487.598 157.55C491.15 156.528 494.522 155.505 497.702 154.497L497.4 153.544C494.228 154.549 490.864 155.569 487.321 156.589L487.598 157.55ZM507.712 151.172C511.405 149.887 514.723 148.666 517.636 147.55L517.279 146.616C514.375 147.729 511.067 148.947 507.384 150.228L507.712 151.172ZM527.407 143.601C528.978 142.928 530.179 142.391 530.988 142.022C531.392 141.837 531.699 141.695 531.905 141.598C532.008 141.55 532.085 141.513 532.138 141.488C532.164 141.476 532.183 141.467 532.197 141.46C532.203 141.457 532.208 141.455 532.212 141.453C532.213 141.452 532.215 141.452 532.216 141.451C532.216 141.451 532.216 141.451 532.217 141.451C532.217 141.451 532.217 141.45 532.217 141.45C532.217 141.45 532.217 141.45 532.217 141.45C532.217 141.45 532.217 141.45 532 141C531.783 140.55 531.783 140.55 531.783 140.55C531.783 140.55 531.783 140.55 531.783 140.55C531.783 140.55 531.783 140.55 531.783 140.55C531.783 140.55 531.782 140.55 531.782 140.55C531.781 140.55 531.78 140.551 531.779 140.552C531.776 140.553 531.771 140.555 531.765 140.558C531.752 140.564 531.733 140.573 531.708 140.585C531.657 140.609 531.581 140.646 531.48 140.693C531.277 140.788 530.974 140.929 530.573 141.112C529.771 141.478 528.577 142.012 527.013 142.682L527.407 143.601Z" fill="black"/>
<path d="M513.998 195.458C513.975 195.182 513.733 194.978 513.458 195.002L508.974 195.384C508.699 195.407 508.495 195.649 508.518 195.924C508.542 196.2 508.784 196.404 509.059 196.38L513.044 196.041L513.384 200.026C513.407 200.301 513.649 200.505 513.924 200.482C514.2 200.458 514.404 200.216 514.38 199.941L513.998 195.458ZM168.169 316.69C168.173 317.19 168.173 317.19 168.173 317.19C168.173 317.19 168.173 317.19 168.173 317.19C168.173 317.19 168.173 317.19 168.173 317.19C168.174 317.19 168.174 317.19 168.174 317.19C168.175 317.19 168.177 317.19 168.178 317.19C168.182 317.19 168.187 317.19 168.193 317.19C168.207 317.19 168.226 317.19 168.253 317.189C168.305 317.189 168.383 317.188 168.487 317.186C168.694 317.184 169.003 317.179 169.41 317.171C170.225 317.156 171.434 317.128 173.012 317.079L172.981 316.08C171.407 316.128 170.202 316.156 169.391 316.171C168.986 316.179 168.679 316.184 168.474 316.187C168.371 316.188 168.294 316.189 168.242 316.189C168.216 316.19 168.197 316.19 168.184 316.19C168.178 316.19 168.173 316.19 168.17 316.19C168.168 316.19 168.167 316.19 168.166 316.19C168.166 316.19 168.166 316.19 168.166 316.19C168.166 316.19 168.166 316.19 168.165 316.19C168.165 316.19 168.165 316.19 168.165 316.19C168.165 316.19 168.165 316.19 168.169 316.69ZM182.786 316.671C185.668 316.524 188.94 316.335 192.572 316.093L192.506 315.095C188.879 315.337 185.612 315.525 182.735 315.672L182.786 316.671ZM202.323 315.376C205.387 315.13 208.626 314.85 212.03 314.533L211.938 313.537C208.538 313.854 205.302 314.133 202.243 314.379L202.323 315.376ZM221.749 313.567C224.881 313.237 228.123 312.876 231.468 312.483L231.351 311.49C228.011 311.883 224.772 312.243 221.644 312.573L221.749 313.567ZM241.17 311.284C244.318 310.875 247.542 310.439 250.837 309.973L250.697 308.983C247.406 309.449 244.186 309.884 241.041 310.292L241.17 311.284ZM260.509 308.546C263.676 308.06 266.899 307.547 270.174 307.005L270.01 306.018C266.74 306.56 263.521 307.073 260.358 307.558L260.509 308.546ZM279.802 305.352C282.961 304.79 286.162 304.202 289.402 303.585L289.215 302.603C285.979 303.218 282.782 303.806 279.626 304.367L279.802 305.352ZM298.985 301.702C302.141 301.061 305.329 300.394 308.547 299.7L308.336 298.722C305.122 299.416 301.938 300.082 298.786 300.722L298.985 301.702ZM318.084 297.578C321.231 296.857 324.402 296.109 327.594 295.334L327.358 294.362C324.17 295.136 321.003 295.883 317.861 296.603L318.084 297.578ZM337.074 292.966C340.207 292.161 343.357 291.329 346.522 290.47L346.26 289.505C343.1 290.363 339.954 291.193 336.826 291.997L337.074 292.966ZM355.935 287.846C357.501 287.397 359.07 286.942 360.641 286.48L360.359 285.52C358.79 285.982 357.223 286.436 355.66 286.884L355.935 287.846ZM360.641 286.48C362.26 286.004 363.865 285.52 365.458 285.029L365.164 284.073C363.575 284.563 361.973 285.045 360.359 285.52L360.641 286.48ZM374.978 281.959C378.179 280.88 381.324 279.774 384.414 278.642L384.071 277.703C380.989 278.832 377.851 279.936 374.659 281.011L374.978 281.959ZM393.759 275.08C396.902 273.834 399.983 272.563 403.003 271.273L402.61 270.353C399.598 271.64 396.525 272.907 393.391 274.15L393.759 275.08ZM412.137 267.224C415.219 265.808 418.232 264.373 421.174 262.924L420.732 262.027C417.798 263.472 414.794 264.903 411.72 266.315L412.137 267.224ZM430.101 258.377C433.112 256.791 436.041 255.195 438.89 253.593L438.399 252.722C435.559 254.319 432.638 255.911 429.635 257.492L430.101 258.377ZM447.521 248.582C450.461 246.82 453.304 245.059 456.049 243.307L455.511 242.464C452.774 244.212 449.939 245.967 447.007 247.725L447.521 248.582ZM464.396 237.81C467.254 235.868 469.988 233.948 472.599 232.059L472.013 231.249C469.41 233.132 466.684 235.047 463.834 236.983L464.396 237.81ZM480.599 226.087C483.381 223.943 485.988 221.861 488.421 219.859L487.786 219.087C485.361 221.082 482.761 223.158 479.988 225.295L480.599 226.087ZM496.046 213.366C498.841 210.901 501.307 208.625 503.445 206.586L502.755 205.863C500.626 207.893 498.169 210.16 495.384 212.616L496.046 213.366ZM510.528 199.507C511.643 198.331 512.48 197.412 513.039 196.785C513.319 196.472 513.529 196.232 513.669 196.07C513.74 195.989 513.792 195.928 513.828 195.886C513.846 195.865 513.859 195.85 513.868 195.839C513.873 195.834 513.876 195.83 513.878 195.827C513.88 195.825 513.881 195.824 513.881 195.824C513.882 195.823 513.882 195.823 513.882 195.823C513.882 195.823 513.882 195.822 513.882 195.822C513.882 195.822 513.882 195.822 513.882 195.822C513.882 195.822 513.882 195.822 513.5 195.5C513.118 195.178 513.118 195.178 513.118 195.178C513.118 195.178 513.118 195.178 513.118 195.178C513.118 195.178 513.118 195.178 513.118 195.178C513.118 195.178 513.117 195.178 513.117 195.178C513.117 195.179 513.116 195.18 513.115 195.181C513.113 195.183 513.11 195.187 513.106 195.192C513.097 195.202 513.085 195.216 513.068 195.236C513.034 195.276 512.983 195.336 512.914 195.415C512.776 195.574 512.57 195.81 512.293 196.119C511.741 196.739 510.91 197.651 509.802 198.819L510.528 199.507Z" fill="black"/>
<path d="M558.403 113.551C558.558 113.322 558.498 113.011 558.27 112.857L554.543 110.335C554.314 110.18 554.003 110.24 553.848 110.468C553.694 110.697 553.754 111.008 553.982 111.163L557.295 113.405L555.053 116.717C554.899 116.946 554.958 117.257 555.187 117.412C555.416 117.566 555.727 117.506 555.881 117.278L558.403 113.551ZM301 113C300.868 113.482 300.868 113.482 300.868 113.482C300.868 113.482 300.868 113.482 300.868 113.482C300.868 113.482 300.869 113.482 300.869 113.482C300.869 113.483 300.869 113.483 300.87 113.483C300.871 113.483 300.872 113.483 300.874 113.484C300.877 113.485 300.882 113.486 300.889 113.488C300.902 113.492 300.922 113.497 300.948 113.504C301.001 113.518 301.079 113.539 301.182 113.566C301.389 113.621 301.698 113.702 302.105 113.805C302.92 114.013 304.129 114.314 305.71 114.686L305.94 113.713C304.365 113.342 303.161 113.043 302.352 112.836C301.948 112.733 301.642 112.653 301.438 112.599C301.336 112.572 301.259 112.552 301.208 112.538C301.182 112.531 301.163 112.526 301.15 112.523C301.144 112.521 301.139 112.52 301.136 112.519C301.135 112.518 301.133 112.518 301.133 112.518C301.132 112.518 301.132 112.518 301.132 112.518C301.132 112.518 301.132 112.518 301.132 112.518C301.132 112.518 301.132 112.518 301.132 112.518C301.132 112.518 301.132 112.518 301 113ZM315.448 116.817C318.329 117.405 321.607 118.04 325.251 118.696L325.428 117.712C321.792 117.057 318.522 116.424 315.648 115.837L315.448 116.817ZM335.099 120.36C338.206 120.853 341.498 121.345 344.964 121.825L345.101 120.834C341.642 120.355 338.356 119.864 335.255 119.373L335.099 120.36ZM354.864 123.102C358.056 123.484 361.364 123.85 364.782 124.195L364.883 123.2C361.471 122.856 358.169 122.49 354.983 122.109L354.864 123.102ZM374.717 125.108C377.953 125.375 381.273 125.621 384.671 125.841L384.735 124.843C381.344 124.624 378.03 124.378 374.799 124.111L374.717 125.108ZM394.647 126.396C397.906 126.548 401.226 126.673 404.604 126.77L404.633 125.77C401.26 125.674 397.946 125.548 394.694 125.397L394.647 126.396ZM414.584 126.963C416.239 126.98 417.905 126.99 419.584 126.991L419.585 125.991C417.909 125.99 416.246 125.98 414.595 125.963L414.584 126.963ZM419.584 126.991C421.243 126.993 422.903 126.987 424.561 126.974L424.553 125.974C422.898 125.987 421.241 125.993 419.585 125.991L419.584 126.991ZM434.514 126.81C437.844 126.728 441.162 126.619 444.459 126.486L444.419 125.487C441.127 125.619 437.814 125.728 434.489 125.811L434.514 126.81ZM454.404 126.014C457.744 125.831 461.055 125.627 464.328 125.404L464.26 124.406C460.991 124.629 457.685 124.833 454.349 125.015L454.404 126.014ZM474.262 124.664C477.621 124.392 480.929 124.104 484.175 123.802L484.082 122.806C480.84 123.108 477.537 123.396 474.181 123.667L474.262 124.664ZM494.064 122.826C497.453 122.472 500.757 122.107 503.963 121.736L503.848 120.743C500.646 121.113 497.345 121.478 493.96 121.831L494.064 122.826ZM513.845 120.538C517.285 120.102 520.578 119.665 523.702 119.235L523.566 118.245C520.445 118.674 517.156 119.111 513.719 119.546L513.845 120.538ZM533.564 117.822C537.186 117.283 540.472 116.77 543.378 116.302L543.219 115.315C540.317 115.782 537.034 116.294 533.416 116.833L533.564 117.822ZM553.193 114.652C554.777 114.373 555.999 114.15 556.826 113.998C557.239 113.921 557.553 113.862 557.764 113.822C557.87 113.803 557.95 113.787 558.003 113.777C558.03 113.772 558.05 113.768 558.064 113.766C558.07 113.764 558.075 113.763 558.079 113.763C558.081 113.762 558.082 113.762 558.083 113.762C558.083 113.762 558.083 113.762 558.084 113.762C558.084 113.762 558.084 113.762 558.084 113.762C558.084 113.762 558.084 113.762 558.084 113.762C558.084 113.762 558.084 113.762 557.989 113.271C557.895 112.78 557.895 112.78 557.895 112.78C557.895 112.78 557.895 112.78 557.895 112.78C557.895 112.78 557.895 112.78 557.894 112.78C557.894 112.78 557.894 112.78 557.894 112.78C557.893 112.78 557.892 112.78 557.89 112.781C557.887 112.781 557.882 112.782 557.875 112.784C557.862 112.786 557.842 112.79 557.816 112.795C557.763 112.805 557.684 112.82 557.579 112.84C557.369 112.879 557.056 112.938 556.644 113.014C555.82 113.167 554.601 113.388 553.019 113.667L553.193 114.652Z" fill="black"/>
<path d="M793.886 568.308C797.23 568.308 799.408 566.526 799.408 563.798C799.408 561.092 797.318 560.08 794.656 559.464L793.512 559.178C791.466 558.672 790.256 558.122 790.256 556.472C790.256 554.822 791.576 553.898 793.622 553.898C795.734 553.898 797.274 554.822 797.274 557.044V557.968H799.1V557.044C799.1 553.898 796.724 552.292 793.622 552.292C790.52 552.292 788.43 553.898 788.43 556.494C788.43 559.09 790.278 560.146 793.006 560.806L794.15 561.092C796.218 561.576 797.582 562.148 797.582 563.842C797.582 565.492 796.284 566.702 793.886 566.702C791.532 566.702 789.882 565.492 789.882 562.918V562.456H788.056V562.918C788.056 566.526 790.52 568.308 793.886 568.308ZM806.432 568.198C808.632 568.198 809.666 567.208 810.15 566.174H810.458V568H812.152V557.242H810.414V562.654C810.414 565.316 808.94 566.68 806.894 566.68C805.068 566.68 803.924 565.756 803.924 563.622V557.242H802.186V563.754C802.186 566.636 804.056 568.198 806.432 568.198ZM820.123 568.308C822.763 568.308 824.457 567.12 824.457 565.008C824.457 562.918 822.675 562.214 820.409 561.818L819.507 561.664C818.143 561.422 817.285 561.026 817.285 559.992C817.285 558.958 818.187 558.386 819.661 558.386C821.113 558.386 822.191 558.958 822.455 560.498L824.083 560.08C823.643 558.078 822.081 556.934 819.661 556.934C817.197 556.934 815.569 558.078 815.569 560.014C815.569 561.95 817.219 562.808 819.331 563.182L820.233 563.336C821.795 563.622 822.741 563.974 822.741 565.074C822.741 566.174 821.729 566.856 820.123 566.856C818.495 566.856 817.043 566.196 816.735 564.084L815.085 564.458C815.459 567.12 817.439 568.308 820.123 568.308ZM831.114 568H833.974V566.482H831.576C831.114 566.482 830.938 566.262 830.938 565.822V558.76H834.458V557.242H830.938V553.414H829.2V557.242H825.966V558.76H829.2V566.108C829.2 567.274 829.882 568 831.114 568ZM840.509 568.308C842.731 568.308 843.633 567.252 844.095 566.394H844.359V566.504C844.359 567.428 844.997 568 845.965 568H847.483V566.526H846.493C846.097 566.526 845.877 566.306 845.877 565.866V561.004C845.877 558.43 844.249 556.934 841.521 556.934C838.815 556.934 837.363 558.408 836.857 560.212L838.485 560.74C838.815 559.354 839.761 558.43 841.499 558.43C843.281 558.43 844.161 559.376 844.161 560.894V561.686H840.531C838.221 561.686 836.483 562.764 836.483 564.942C836.483 567.098 838.221 568.308 840.509 568.308ZM840.707 566.812C839.211 566.812 838.221 566.108 838.221 564.898C838.221 563.688 839.211 563.094 840.597 563.094H844.161V563.336C844.161 565.536 842.775 566.812 840.707 566.812ZM850.721 555.57C851.491 555.57 852.063 555.02 852.063 554.25C852.063 553.458 851.491 552.908 850.721 552.908C849.973 552.908 849.401 553.458 849.401 554.25C849.401 555.02 849.973 555.57 850.721 555.57ZM849.863 568H851.601V557.242H849.863V568ZM855.256 568H856.994V562.588C856.994 559.926 858.446 558.562 860.514 558.562C862.318 558.562 863.484 559.486 863.484 561.62V568H865.222V561.488C865.222 558.606 863.33 557.044 860.954 557.044C858.754 557.044 857.72 558.034 857.258 559.068H856.95V557.242H855.256V568ZM872.048 568.308C874.27 568.308 875.172 567.252 875.634 566.394H875.898V566.504C875.898 567.428 876.536 568 877.504 568H879.022V566.526H878.032C877.636 566.526 877.416 566.306 877.416 565.866V561.004C877.416 558.43 875.788 556.934 873.06 556.934C870.354 556.934 868.902 558.408 868.396 560.212L870.024 560.74C870.354 559.354 871.3 558.43 873.038 558.43C874.82 558.43 875.7 559.376 875.7 560.894V561.686H872.07C869.76 561.686 868.022 562.764 868.022 564.942C868.022 567.098 869.76 568.308 872.048 568.308ZM872.246 566.812C870.75 566.812 869.76 566.108 869.76 564.898C869.76 563.688 870.75 563.094 872.136 563.094H875.7V563.336C875.7 565.536 874.314 566.812 872.246 566.812ZM887.364 568.308C890.158 568.308 892.446 566.218 892.446 562.764V562.478C892.446 559.046 890.18 556.934 887.364 556.934C885.12 556.934 883.976 557.946 883.448 558.936H883.14V552.6H881.402V568H883.096V566.218H883.404C883.976 567.296 885.12 568.308 887.364 568.308ZM886.902 566.768C884.68 566.768 883.118 565.272 883.118 562.72V562.522C883.118 559.97 884.68 558.474 886.902 558.474C889.124 558.474 890.664 559.97 890.664 562.522V562.72C890.664 565.272 889.102 566.768 886.902 566.768ZM896.418 555.57C897.188 555.57 897.76 555.02 897.76 554.25C897.76 553.458 897.188 552.908 896.418 552.908C895.67 552.908 895.098 553.458 895.098 554.25C895.098 555.02 895.67 555.57 896.418 555.57ZM895.56 568H897.298V557.242H895.56V568ZM900.953 568H902.691V552.6H900.953V568ZM907.204 555.57C907.974 555.57 908.546 555.02 908.546 554.25C908.546 553.458 907.974 552.908 907.204 552.908C906.456 552.908 905.884 553.458 905.884 554.25C905.884 555.02 906.456 555.57 907.204 555.57ZM906.346 568H908.084V557.242H906.346V568ZM915.698 568H918.558V566.482H916.16C915.698 566.482 915.522 566.262 915.522 565.822V558.76H919.042V557.242H915.522V553.414H913.784V557.242H910.55V558.76H913.784V566.108C913.784 567.274 914.466 568 915.698 568ZM923.155 572.4H929.755C930.987 572.4 931.691 571.674 931.691 570.508V557.242H929.953V562.654C929.953 565.338 928.479 566.68 926.433 566.68C924.607 566.68 923.463 565.778 923.463 563.644V557.242H921.725V563.776C921.725 566.658 923.595 568.198 925.971 568.198C928.171 568.198 929.183 567.23 929.645 566.284H929.953V570.2C929.953 570.64 929.777 570.86 929.315 570.86H923.155V572.4Z" fill="black"/>
<path d="M747.482 568H758.504V565.932H749.814V565.712C749.814 564.15 750.628 563.512 752.696 562.874L753.994 562.478C756.7 561.62 758.636 560.256 758.636 557.286V557.066C758.636 554.184 756.304 552.292 753.136 552.292C749.968 552.292 747.548 554.184 747.548 557.506V557.836H749.836V557.484C749.836 555.416 751.156 554.36 753.136 554.36C755.05 554.36 756.326 555.438 756.326 557.11V557.198C756.326 558.936 755.226 559.86 753.422 560.432L752.08 560.85C749.176 561.752 747.482 563.028 747.482 566.262V568Z" fill="black"/>
<circle cx="753" cy="560" r="19" stroke="black" stroke-width="2"/>
<path d="M793.886 624.308C797.23 624.308 799.408 622.526 799.408 619.798C799.408 617.092 797.318 616.08 794.656 615.464L793.512 615.178C791.466 614.672 790.256 614.122 790.256 612.472C790.256 610.822 791.576 609.898 793.622 609.898C795.734 609.898 797.274 610.822 797.274 613.044V613.968H799.1V613.044C799.1 609.898 796.724 608.292 793.622 608.292C790.52 608.292 788.43 609.898 788.43 612.494C788.43 615.09 790.278 616.146 793.006 616.806L794.15 617.092C796.218 617.576 797.582 618.148 797.582 619.842C797.582 621.492 796.284 622.702 793.886 622.702C791.532 622.702 789.882 621.492 789.882 618.918V618.456H788.056V618.918C788.056 622.526 790.52 624.308 793.886 624.308ZM807.29 624.308C810.546 624.308 812.79 622.13 812.79 618.764V618.478C812.79 615.112 810.546 612.934 807.29 612.934C804.034 612.934 801.79 615.112 801.79 618.478V618.764C801.79 622.13 804.034 624.308 807.29 624.308ZM807.29 622.746C805.024 622.746 803.528 621.184 803.528 618.72V618.522C803.528 616.058 805.002 614.496 807.29 614.496C809.556 614.496 811.052 616.058 811.052 618.522V618.72C811.052 621.184 809.556 622.746 807.29 622.746ZM820.868 624.308C823.97 624.308 825.642 622.372 826.104 620.216L824.388 619.842C824.124 621.492 823.024 622.746 820.89 622.746C818.756 622.746 817.128 621.228 817.128 618.72V618.522C817.128 616.014 818.756 614.496 820.89 614.496C823.024 614.496 824.102 615.816 824.322 617.4L826.016 617.048C825.664 614.87 823.97 612.934 820.868 612.934C817.722 612.934 815.39 615.046 815.39 618.5V618.742C815.39 622.196 817.722 624.308 820.868 624.308ZM829.924 611.57C830.694 611.57 831.266 611.02 831.266 610.25C831.266 609.458 830.694 608.908 829.924 608.908C829.176 608.908 828.604 609.458 828.604 610.25C828.604 611.02 829.176 611.57 829.924 611.57ZM829.066 624H830.804V613.242H829.066V624ZM837.759 624.308C839.981 624.308 840.883 623.252 841.345 622.394H841.609V622.504C841.609 623.428 842.247 624 843.215 624H844.733V622.526H843.743C843.347 622.526 843.127 622.306 843.127 621.866V617.004C843.127 614.43 841.499 612.934 838.771 612.934C836.065 612.934 834.613 614.408 834.107 616.212L835.735 616.74C836.065 615.354 837.011 614.43 838.749 614.43C840.531 614.43 841.411 615.376 841.411 616.894V617.686H837.781C835.471 617.686 833.733 618.764 833.733 620.942C833.733 623.098 835.471 624.308 837.759 624.308ZM837.957 622.812C836.461 622.812 835.471 622.108 835.471 620.898C835.471 619.688 836.461 619.094 837.847 619.094H841.411V619.336C841.411 621.536 840.025 622.812 837.957 622.812ZM847.113 624H848.851V608.6H847.113V624ZM858.09 624H859.938V608.6H858.09V624ZM863.527 624H865.265V617.532C865.265 615.596 866.387 614.54 867.971 614.54C869.467 614.54 870.347 615.442 870.347 616.872V624H872.085V617.532C872.085 615.596 873.207 614.54 874.791 614.54C876.287 614.54 877.167 615.442 877.167 616.872V624H878.905V616.718C878.905 614.43 877.387 613.044 875.253 613.044C873.427 613.044 872.481 613.88 871.997 614.936H871.689C871.205 613.88 870.193 613.044 868.521 613.044C866.827 613.044 865.947 613.814 865.529 614.584H865.221V613.242H863.527V624ZM882.455 628.4H884.193V622.306H884.501C885.029 623.296 886.173 624.308 888.417 624.308C891.233 624.308 893.499 622.196 893.499 618.764V618.478C893.499 615.024 891.211 612.934 888.417 612.934C886.173 612.934 885.029 613.946 884.457 615.024H884.149V613.242H882.455V628.4ZM887.955 622.768C885.733 622.768 884.171 621.272 884.171 618.72V618.522C884.171 615.97 885.733 614.474 887.955 614.474C890.155 614.474 891.717 615.97 891.717 618.522V618.72C891.717 621.272 890.177 622.768 887.955 622.768ZM899.913 624.308C902.135 624.308 903.037 623.252 903.499 622.394H903.763V622.504C903.763 623.428 904.401 624 905.369 624H906.887V622.526H905.897C905.501 622.526 905.281 622.306 905.281 621.866V617.004C905.281 614.43 903.653 612.934 900.925 612.934C898.219 612.934 896.767 614.408 896.261 616.212L897.889 616.74C898.219 615.354 899.165 614.43 900.903 614.43C902.685 614.43 903.565 615.376 903.565 616.894V617.686H899.935C897.625 617.686 895.887 618.764 895.887 620.942C895.887 623.098 897.625 624.308 899.913 624.308ZM900.111 622.812C898.615 622.812 897.625 622.108 897.625 620.898C897.625 619.688 898.615 619.094 900.001 619.094H903.565V619.336C903.565 621.536 902.179 622.812 900.111 622.812ZM913.917 624.308C917.019 624.308 918.691 622.372 919.153 620.216L917.437 619.842C917.173 621.492 916.073 622.746 913.939 622.746C911.805 622.746 910.177 621.228 910.177 618.72V618.522C910.177 616.014 911.805 614.496 913.939 614.496C916.073 614.496 917.151 615.816 917.371 617.4L919.065 617.048C918.713 614.87 917.019 612.934 913.917 612.934C910.771 612.934 908.439 615.046 908.439 618.5V618.742C908.439 622.196 910.771 624.308 913.917 624.308ZM925.645 624H928.505V622.482H926.107C925.645 622.482 925.469 622.262 925.469 621.822V614.76H928.989V613.242H925.469V609.414H923.731V613.242H920.497V614.76H923.731V622.108C923.731 623.274 924.413 624 925.645 624Z" fill="black"/>
<path d="M753.017 624.308C756.405 624.308 758.671 622.394 758.671 619.446V619.182C758.671 616.388 756.471 615.112 754.139 615.112H753.193V614.804L758.363 611.724V608.6H747.583V610.668H755.855V610.976L750.443 614.166V616.828H753.237C754.975 616.828 756.361 617.532 756.361 619.248V619.446C756.361 621.052 755.107 622.24 753.017 622.24C750.905 622.24 749.519 621.03 749.519 619.094V618.742H747.209V619.138C747.209 622.372 749.629 624.308 753.017 624.308Z" fill="black"/>
<circle cx="753" cy="616" r="19" stroke="black" stroke-width="2"/>
<path d="M201.017 383.308C204.405 383.308 206.671 381.394 206.671 378.446V378.182C206.671 375.388 204.471 374.112 202.139 374.112H201.193V373.804L206.363 370.724V367.6H195.583V369.668H203.855V369.976L198.443 373.166V375.828H201.237C202.975 375.828 204.361 376.532 204.361 378.248V378.446C204.361 380.052 203.107 381.24 201.017 381.24C198.905 381.24 197.519 380.03 197.519 378.094V377.742H195.209V378.138C195.209 381.372 197.629 383.308 201.017 383.308Z" fill="black"/>
<circle cx="201" cy="375" r="19" stroke="black" stroke-width="2"/>
</svg>
