<svg width="756" height="755" viewBox="0 0 756 755" fill="none" xmlns="http://www.w3.org/2000/svg">
<rect width="756" height="755" fill="white"/>
<path d="M465 630L576.5 199.5C594.5 153.5 427.333 147.667 341.5 150.5L365.5 609L465 630Z" fill="url(#paint0_linear_223_362)"/>
<path d="M306 624.5L194 189C212 154.5 341.5 150.5 341.5 150.5L365.5 609L306 624.5Z" fill="url(#paint1_linear_223_362)"/>
<path d="M194 189L195.525 194.931C208.44 219.513 299 229 299 229L341 616L306 624.5L195.525 194.931C194.534 193.044 194 191.068 194 189Z" fill="url(#paint2_linear_223_362)"/>
<path d="M464.5 627L575.5 198.5C512 254.5 298.5 229.5 298.5 229.5L341 616L464.5 627Z" fill="url(#paint3_linear_223_362)"/>
<path opacity="0.5" d="M571.604 170.495C572.154 170.437 572.552 169.945 572.494 169.395C572.437 168.846 571.945 168.448 571.395 168.505L571.604 170.495ZM543.5 314L544.473 314.232L543.5 314ZM403 410L393.96 402.816L392.259 414.237L403 410ZM397.17 408.093C395.972 407.901 394.61 407.681 393.099 407.431L392.772 409.404C394.287 409.655 395.653 409.876 396.855 410.068L397.17 408.093ZM389.09 406.757C387.831 406.542 386.501 406.312 385.107 406.067L384.761 408.037C386.158 408.282 387.491 408.513 388.753 408.728L389.09 406.757ZM381.117 405.356C379.822 405.123 378.483 404.878 377.103 404.622L376.739 406.589C378.121 406.845 379.464 407.09 380.762 407.325L381.117 405.356ZM373.06 403.863C371.765 403.617 370.442 403.362 369.092 403.098L368.709 405.061C370.062 405.325 371.389 405.581 372.686 405.828L373.06 403.863ZM365.095 402.309C363.775 402.045 362.433 401.774 361.071 401.494L360.669 403.454C362.034 403.734 363.379 404.006 364.703 404.27L365.095 402.309ZM357.114 400.673C355.794 400.396 354.459 400.112 353.11 399.821L352.689 401.776C354.041 402.068 355.38 402.352 356.702 402.63L357.114 400.673ZM349.142 398.955C347.826 398.664 346.499 398.367 345.163 398.065L344.721 400.015C346.061 400.319 347.391 400.616 348.71 400.908L349.142 398.955ZM341.19 397.152C339.876 396.847 338.556 396.535 337.23 396.219L336.765 398.164C338.095 398.482 339.42 398.794 340.736 399.1L341.19 397.152ZM333.263 395.258C331.952 394.936 330.636 394.609 329.318 394.277L328.829 396.216C330.151 396.55 331.471 396.878 332.786 397.201L333.263 395.258ZM325.366 393.265C324.056 392.926 322.744 392.58 321.433 392.23L320.917 394.162C322.233 394.514 323.549 394.86 324.863 395.201L325.366 393.265ZM317.501 391.164C316.193 390.803 314.886 390.438 313.581 390.067L313.034 391.991C314.344 392.363 315.657 392.73 316.971 393.092L317.501 391.164ZM309.672 388.939C308.366 388.556 307.065 388.168 305.768 387.774L305.188 389.688C306.49 390.083 307.798 390.473 309.109 390.858L309.672 388.939ZM301.883 386.575C300.583 386.166 299.29 385.752 298.006 385.333L297.385 387.235C298.677 387.656 299.977 388.072 301.284 388.483L301.883 386.575ZM294.146 384.05C292.856 383.612 291.575 383.169 290.306 382.721L289.639 384.606C290.917 385.058 292.206 385.504 293.504 385.944L294.146 384.05ZM286.476 381.338C285.199 380.866 283.936 380.39 282.689 379.907L281.968 381.773C283.225 382.259 284.497 382.739 285.783 383.214L286.476 381.338ZM278.894 378.403C277.634 377.89 276.392 377.372 275.171 376.847L274.382 378.685C275.616 379.215 276.869 379.738 278.141 380.255L278.894 378.403ZM271.44 375.198C270.192 374.63 268.968 374.054 267.772 373.473L266.898 375.272C268.11 375.861 269.348 376.443 270.611 377.018L271.44 375.198ZM264.177 371.662C262.949 371.02 261.754 370.371 260.597 369.715L259.61 371.455C260.789 372.123 262.004 372.783 263.251 373.435L264.177 371.662ZM257.13 367.657C255.97 366.935 254.858 366.205 253.795 365.468L252.655 367.112C253.747 367.869 254.888 368.617 256.073 369.355L257.13 367.657ZM250.54 363.062C249.453 362.201 248.436 361.332 247.493 360.454L246.13 361.917C247.115 362.835 248.174 363.74 249.299 364.63L250.54 363.062ZM244.729 357.604C243.83 356.568 243.039 355.524 242.362 354.471L240.68 355.554C241.415 356.695 242.264 357.816 243.218 358.915L244.729 357.604ZM240.571 351.039C240.332 350.441 240.129 349.84 239.965 349.237L238.035 349.763C238.221 350.443 238.447 351.116 238.714 351.782L240.571 351.039ZM239.965 349.237C239.809 348.666 239.74 348.1 239.753 347.536L237.753 347.492C237.736 348.252 237.83 349.01 238.035 349.763L239.965 349.237ZM240.699 344.272C241.22 343.321 241.958 342.347 242.919 341.355L241.482 339.964C240.426 341.054 239.57 342.17 238.945 343.312L240.699 344.272ZM245.831 338.805C246.793 338.072 247.864 337.338 249.039 336.604L247.98 334.908C246.76 335.67 245.637 336.439 244.619 337.214L245.831 338.805ZM252.373 334.671C253.502 334.06 254.699 333.451 255.961 332.844L255.095 331.042C253.807 331.661 252.581 332.284 251.421 332.912L252.373 334.671ZM259.456 331.241C260.642 330.722 261.874 330.204 263.151 329.689L262.402 327.835C261.109 328.357 259.859 328.882 258.654 329.41L259.456 331.241ZM266.801 328.268C268.003 327.816 269.239 327.366 270.506 326.919L269.84 325.033C268.561 325.485 267.313 325.939 266.097 326.396L266.801 328.268ZM274.325 325.609C275.528 325.208 276.756 324.81 278.008 324.413L277.404 322.506C276.143 322.906 274.906 323.307 273.693 323.712L274.325 325.609ZM281.834 323.231C283.084 322.854 284.355 322.479 285.647 322.107L285.092 320.185C283.794 320.56 282.515 320.937 281.256 321.316L281.834 323.231ZM289.413 321.044C290.687 320.691 291.978 320.341 293.287 319.994L292.773 318.061C291.459 318.41 290.161 318.762 288.88 319.116L289.413 321.044ZM297.125 318.994C298.38 318.673 299.649 318.354 300.931 318.038L300.452 316.096C299.165 316.414 297.89 316.734 296.63 317.056L297.125 318.994ZM304.819 317.096C306.102 316.79 307.397 316.487 308.704 316.186L308.255 314.237C306.943 314.539 305.643 314.843 304.355 315.15L304.819 317.096ZM312.529 315.32C313.814 315.033 315.11 314.749 316.416 314.467L315.994 312.512C314.684 312.795 313.383 313.08 312.093 313.368L312.529 315.32ZM320.353 313.631C321.623 313.365 322.901 313.101 324.188 312.84L323.79 310.88C322.5 311.142 321.217 311.406 319.943 311.673L320.353 313.631ZM328.072 312.064C329.374 311.807 330.684 311.553 332.001 311.301L331.625 309.337C330.305 309.589 328.991 309.844 327.685 310.102L328.072 312.064ZM335.898 310.567C337.186 310.328 338.48 310.092 339.78 309.857L339.425 307.889C338.122 308.124 336.824 308.361 335.533 308.601L335.898 310.567ZM343.696 309.161C345.007 308.932 346.323 308.705 347.644 308.48L347.308 306.508C345.984 306.734 344.665 306.961 343.351 307.191L343.696 309.161ZM351.53 307.829C352.829 307.614 354.133 307.402 355.441 307.192L355.124 305.217C353.813 305.428 352.506 305.64 351.204 305.856L351.53 307.829ZM359.374 306.57C360.682 306.367 361.994 306.165 363.308 305.967L363.009 303.989C361.692 304.188 360.378 304.39 359.066 304.594L359.374 306.57ZM367.222 305.384C368.529 305.192 369.839 305.003 371.151 304.817L370.869 302.837C369.555 303.024 368.242 303.213 366.932 303.405L367.222 305.384ZM375.091 304.265C376.402 304.085 377.714 303.907 379.027 303.732L378.762 301.749C377.446 301.925 376.132 302.103 374.819 302.284L375.091 304.265ZM382.96 303.216C384.272 303.046 385.585 302.88 386.899 302.716L386.651 300.732C385.335 300.896 384.019 301.063 382.704 301.232L382.96 303.216ZM390.84 302.233C392.156 302.075 393.472 301.919 394.788 301.767L394.557 299.78C393.239 299.933 391.92 300.089 390.601 300.248L390.84 302.233ZM398.735 301.317C400.05 301.17 401.364 301.026 402.677 300.885L402.464 298.897C401.148 299.038 399.83 299.182 398.513 299.33L398.735 301.317ZM406.619 300.471C407.942 300.335 409.264 300.202 410.584 300.072L410.388 298.081C409.065 298.212 407.74 298.345 406.414 298.482L406.619 300.471ZM414.538 299.691C415.854 299.568 417.168 299.447 418.478 299.33L418.3 297.338C416.987 297.456 415.67 297.576 414.351 297.7L414.538 299.691ZM422.435 298.986C423.763 298.873 425.089 298.764 426.411 298.659L426.251 296.665C424.926 296.771 423.598 296.88 422.266 296.993L422.435 298.986ZM430.364 298.352C431.678 298.254 432.988 298.159 434.293 298.067L434.153 296.072C432.844 296.164 431.531 296.259 430.214 296.358L430.364 298.352ZM438.282 297.798C439.613 297.711 440.939 297.629 442.259 297.55L442.14 295.554C440.816 295.633 439.487 295.715 438.153 295.802L438.282 297.798ZM446.2 297.326C447.522 297.255 448.838 297.187 450.147 297.124L450.051 295.126C448.738 295.19 447.418 295.258 446.092 295.329L446.2 297.326ZM454.154 296.942C455.482 296.886 456.802 296.834 458.114 296.787L458.042 294.788C456.725 294.836 455.401 294.888 454.069 294.944L454.154 296.942ZM462.024 296.658C463.374 296.619 464.715 296.583 466.046 296.553L466.001 294.554C464.666 294.584 463.32 294.619 461.965 294.659L462.024 296.658ZM470.027 296.478C471.343 296.458 472.648 296.443 473.942 296.433L473.927 294.434C472.628 294.443 471.318 294.458 469.997 294.478L470.027 296.478ZM477.938 296.42C479.284 296.422 480.617 296.429 481.935 296.442L481.955 294.442C480.631 294.429 479.292 294.422 477.94 294.42L477.938 296.42ZM485.846 296.5C487.192 296.526 488.521 296.56 489.832 296.6L489.893 294.601C488.574 294.56 487.238 294.527 485.886 294.5L485.846 296.5ZM493.83 296.745C495.143 296.8 496.438 296.863 497.712 296.933L497.822 294.936C496.539 294.866 495.236 294.802 493.914 294.746L493.83 296.745ZM501.725 297.184C503.069 297.278 504.388 297.381 505.68 297.493L505.853 295.501C504.549 295.388 503.219 295.284 501.865 295.189L501.725 297.184ZM509.532 297.863C510.911 298.008 512.256 298.165 513.564 298.334L513.82 296.35C512.495 296.18 511.136 296.021 509.742 295.874L509.532 297.863ZM517.381 298.875C518.754 299.088 520.08 299.316 521.357 299.558L521.73 297.593C520.429 297.346 519.081 297.115 517.688 296.898L517.381 298.875ZM525.133 300.351C526.495 300.667 527.787 301.003 529.007 301.359L529.567 299.439C528.308 299.072 526.979 298.727 525.585 298.403L525.133 300.351ZM532.57 302.533C533.914 303.034 535.132 303.566 536.22 304.127L537.136 302.349C535.966 301.746 534.674 301.183 533.269 300.659L532.57 302.533ZM539.414 306.148C540.468 306.987 541.262 307.864 541.808 308.772L543.522 307.742C542.828 306.588 541.859 305.538 540.66 304.583L539.414 306.148ZM542.737 311.968C542.745 312.539 542.678 313.138 542.528 313.768L544.473 314.232C544.659 313.454 544.747 312.689 544.737 311.941L542.737 311.968ZM542.528 313.768C542.392 314.336 542.199 314.891 541.95 315.435L543.767 316.269C544.07 315.61 544.306 314.931 544.473 314.232L542.528 313.768ZM539.909 318.414C539.115 319.269 538.155 320.094 537.03 320.886L538.182 322.521C539.401 321.663 540.471 320.748 541.375 319.775L539.909 318.414ZM533.733 322.874C532.666 323.43 531.51 323.964 530.268 324.476L531.03 326.325C532.321 325.793 533.531 325.234 534.658 324.647L533.733 322.874ZM526.497 325.875C525.335 326.263 524.118 326.636 522.848 326.993L523.389 328.918C524.688 328.553 525.936 328.171 527.131 327.771L526.497 325.875ZM518.93 328.004C517.719 328.291 516.469 328.566 515.181 328.828L515.58 330.788C516.887 330.521 518.158 330.242 519.391 329.95L518.93 328.004ZM511.205 329.578C509.959 329.796 508.684 330.003 507.379 330.201L507.678 332.178C508.997 331.979 510.288 331.769 511.549 331.549L511.205 329.578ZM503.445 330.754C502.146 330.923 500.823 331.083 499.476 331.234L499.699 333.222C501.058 333.069 502.393 332.908 503.703 332.737L503.445 330.754ZM495.595 331.638C494.28 331.765 492.945 331.884 491.59 331.994L491.753 333.988C493.117 333.876 494.462 333.757 495.787 333.629L495.595 331.638ZM487.655 332.29C486.362 332.379 485.053 332.461 483.728 332.537L483.842 334.534C485.174 334.458 486.491 334.375 487.793 334.286L487.655 332.29ZM479.707 332.743C478.408 332.803 477.096 332.856 475.771 332.904L475.842 334.903C477.174 334.855 478.493 334.801 479.799 334.741L479.707 332.743ZM471.83 333.026C470.504 333.061 469.167 333.091 467.818 333.114L467.853 335.114C469.208 335.09 470.551 335.061 471.883 335.026L471.83 333.026ZM463.856 333.167C462.553 333.179 461.24 333.186 459.918 333.187L459.92 335.187C461.248 335.186 462.566 335.179 463.875 335.167L463.856 333.167ZM455.924 333.178C454.6 333.17 453.268 333.156 451.928 333.139L451.902 335.138C453.246 335.156 454.583 335.169 455.912 335.178L455.924 333.178ZM447.997 333.073C446.68 333.046 445.355 333.015 444.024 332.98L443.97 334.979C445.306 335.015 446.635 335.046 447.957 335.072L447.997 333.073ZM440.01 332.86C438.704 332.817 437.391 332.77 436.074 332.718L435.996 334.717C437.317 334.768 438.634 334.816 439.944 334.859L440.01 332.86ZM432.118 332.552C430.794 332.493 429.465 332.429 428.132 332.361L428.03 334.359C429.368 334.427 430.7 334.49 432.028 334.55L432.118 332.552ZM424.153 332.149C422.843 332.075 421.528 331.997 420.21 331.916L420.087 333.912C421.409 333.994 422.727 334.071 424.041 334.145L424.153 332.149ZM416.245 331.66C414.92 331.572 413.592 331.479 412.261 331.383L412.117 333.377C413.451 333.474 414.783 333.567 416.112 333.656L416.245 331.66ZM408.309 331.086C406.995 330.985 405.678 330.879 404.358 330.77L404.194 332.763C405.516 332.873 406.837 332.978 408.155 333.08L408.309 331.086ZM400.395 330.433C399.073 330.317 397.75 330.198 396.425 330.075L396.241 332.067C397.569 332.19 398.896 332.309 400.221 332.425L400.395 330.433ZM392.48 329.7C391.164 329.571 389.847 329.44 388.53 329.305L388.326 331.294C389.646 331.43 390.967 331.562 392.286 331.69L392.48 329.7ZM384.575 328.89C383.258 328.748 381.941 328.603 380.623 328.456L380.4 330.443C381.721 330.591 383.041 330.736 384.362 330.878L384.575 328.89ZM376.677 328.003C375.361 327.848 374.047 327.691 372.733 327.53L372.49 329.516C373.807 329.677 375.125 329.834 376.444 329.989L376.677 328.003ZM368.794 327.04C367.478 326.872 366.162 326.702 364.849 326.528L364.587 328.511C365.904 328.685 367.222 328.856 368.542 329.024L368.794 327.04ZM360.907 325.998C359.595 325.818 358.285 325.635 356.977 325.448L356.695 327.429C358.006 327.615 359.32 327.799 360.635 327.979L360.907 325.998ZM353.06 324.881C351.741 324.687 350.425 324.489 349.112 324.289L348.81 326.266C350.126 326.467 351.446 326.665 352.768 326.86L353.06 324.881ZM345.182 323.678C343.875 323.472 342.572 323.262 341.273 323.05L340.95 325.023C342.253 325.236 343.559 325.447 344.87 325.654L345.182 323.678ZM337.359 322.399C336.042 322.176 334.73 321.95 333.423 321.722L333.078 323.692C334.389 323.921 335.705 324.147 337.026 324.371L337.359 322.399ZM329.515 321.027C328.217 320.792 326.924 320.555 325.637 320.314L325.27 322.28C326.561 322.521 327.857 322.76 329.159 322.995L329.515 321.027ZM321.711 319.568C320.401 319.315 319.097 319.059 317.799 318.8L317.408 320.761C318.709 321.021 320.017 321.278 321.332 321.532L321.711 319.568ZM313.927 318.014C312.63 317.746 311.34 317.475 310.057 317.201L309.639 319.157C310.926 319.432 312.221 319.703 313.523 319.972L313.927 318.014ZM306.138 316.35C304.841 316.063 303.551 315.773 302.271 315.48L301.825 317.43C303.11 317.724 304.404 318.015 305.707 318.303L306.138 316.35ZM298.458 314.593C297.142 314.281 295.837 313.966 294.543 313.648L294.066 315.591C295.366 315.91 296.676 316.226 297.997 316.539L298.458 314.593ZM290.684 312.683C289.409 312.358 288.145 312.03 286.893 311.698L286.381 313.632C287.639 313.965 288.909 314.294 290.19 314.621L290.684 312.683ZM283.026 310.655C281.731 310.299 280.451 309.939 279.185 309.576L278.634 311.499C279.907 311.864 281.194 312.225 282.495 312.583L283.026 310.655ZM275.432 308.478C274.139 308.092 272.863 307.702 271.605 307.309L271.008 309.218C272.275 309.613 273.559 310.006 274.859 310.394L275.432 308.478ZM267.806 306.094C266.559 305.686 265.33 305.274 264.121 304.859L263.471 306.75C264.69 307.169 265.928 307.584 267.184 307.995L267.806 306.094ZM260.319 303.518C259.058 303.061 257.822 302.601 256.61 302.137L255.895 304.004C257.118 304.473 258.366 304.938 259.638 305.398L260.319 303.518ZM252.988 300.707C251.715 300.19 250.474 299.668 249.265 299.142L248.467 300.976C249.691 301.508 250.947 302.037 252.234 302.56L252.988 300.707ZM245.738 297.551C244.492 296.969 243.287 296.381 242.124 295.79L241.217 297.572C242.401 298.175 243.626 298.772 244.891 299.363L245.738 297.551ZM238.687 293.959C237.492 293.292 236.351 292.619 235.267 291.942L234.208 293.638C235.322 294.334 236.49 295.023 237.712 295.705L238.687 293.959ZM232.051 289.801C230.925 288.998 229.881 288.191 228.921 287.379L227.63 288.906C228.636 289.757 229.724 290.598 230.891 291.429L232.051 289.801ZM226.169 284.796C225.224 283.801 224.412 282.803 223.734 281.805L222.08 282.928C222.826 284.028 223.709 285.11 224.719 286.173L226.169 284.796ZM221.988 278.499C221.772 277.928 221.602 277.357 221.477 276.786L219.524 277.214C219.67 277.883 219.868 278.547 220.116 279.204L221.988 278.499ZM221.477 276.786C221.339 276.155 221.233 275.525 221.159 274.898L219.173 275.133C219.255 275.826 219.372 276.519 219.524 277.214L221.477 276.786ZM221.094 271.147C221.198 269.907 221.426 268.671 221.777 267.439L219.853 266.892C219.468 268.244 219.216 269.607 219.101 270.98L221.094 271.147ZM223.137 263.872C223.669 262.76 224.301 261.651 225.032 260.543L223.363 259.441C222.585 260.619 221.908 261.808 221.333 263.008L223.137 263.872ZM227.32 257.468C228.117 256.505 228.989 255.545 229.935 254.587L228.511 253.182C227.528 254.178 226.617 255.182 225.78 256.192L227.32 257.468ZM232.82 251.871C233.756 251.049 234.745 250.229 235.786 249.412L234.552 247.838C233.483 248.677 232.465 249.52 231.5 250.368L232.82 251.871ZM238.964 247.045C240.001 246.309 241.081 245.575 242.203 244.844L241.111 243.169C239.968 243.913 238.867 244.661 237.807 245.413L238.964 247.045ZM245.551 242.746C246.652 242.081 247.787 241.418 248.957 240.758L247.974 239.017C246.788 239.686 245.635 240.358 244.517 241.034L245.551 242.746ZM252.43 238.858C253.569 238.254 254.736 237.651 255.931 237.051L255.034 235.264C253.826 235.87 252.645 236.48 251.492 237.092L252.43 238.858ZM259.515 235.299C260.676 234.745 261.86 234.194 263.067 233.645L262.239 231.825C261.022 232.378 259.827 232.935 258.655 233.493L259.515 235.299ZM266.759 232.004C267.931 231.495 269.123 230.987 270.335 230.482L269.565 228.636C268.344 229.145 267.143 229.657 265.962 230.17L266.759 232.004ZM274.027 228.971C275.24 228.484 276.47 228 277.718 227.517L276.997 225.651C275.741 226.137 274.503 226.625 273.283 227.115L274.027 228.971ZM281.399 226.118C282.643 225.653 283.903 225.19 285.18 224.729L284.5 222.848C283.217 223.312 281.95 223.777 280.699 224.244L281.399 226.118ZM288.871 223.416C290.107 222.984 291.356 222.553 292.62 222.124L291.976 220.23C290.707 220.661 289.452 221.094 288.211 221.529L288.871 223.416ZM296.442 220.844C297.668 220.44 298.906 220.037 300.157 219.636L299.546 217.731C298.29 218.134 297.047 218.539 295.816 218.945L296.442 220.844ZM303.947 218.436C305.216 218.039 306.498 217.644 307.791 217.25L307.209 215.337C305.911 215.732 304.625 216.129 303.351 216.527L303.947 218.436ZM311.54 216.123C312.8 215.749 314.071 215.376 315.353 215.004L314.796 213.084C313.511 213.456 312.235 213.83 310.97 214.206L311.54 216.123ZM319.23 213.894C320.476 213.541 321.732 213.19 322.998 212.839L322.465 210.912C321.195 211.263 319.935 211.616 318.685 211.97L319.23 213.894ZM326.823 211.792C328.108 211.445 329.401 211.098 330.704 210.753L330.192 208.82C328.886 209.166 327.589 209.513 326.301 209.862L326.823 211.792ZM334.52 209.753C335.788 209.424 337.064 209.096 338.349 208.769L337.856 206.831C336.568 207.158 335.288 207.487 334.017 207.817L334.52 209.753ZM342.227 207.793C343.509 207.474 344.799 207.155 346.097 206.838L345.622 204.895C344.321 205.213 343.028 205.532 341.743 205.852L342.227 207.793ZM349.924 205.912C351.207 205.604 352.498 205.298 353.796 204.992L353.337 203.046C352.037 203.352 350.744 203.659 349.458 203.967L349.924 205.912ZM357.71 204.08C358.983 203.786 360.262 203.493 361.547 203.201L361.105 201.251C359.817 201.543 358.535 201.837 357.26 202.131L357.71 204.08ZM365.409 202.333C366.703 202.044 368.003 201.757 369.31 201.471L368.882 199.517C367.573 199.804 366.27 200.092 364.974 200.381L365.409 202.333ZM373.215 200.623C374.493 200.347 375.777 200.073 377.067 199.8L376.652 197.843C375.361 198.117 374.075 198.392 372.794 198.667L373.215 200.623ZM380.953 198.984C382.254 198.713 383.561 198.443 384.873 198.174L384.471 196.215C383.157 196.484 381.848 196.754 380.545 197.026L380.953 198.984ZM388.767 197.383C390.052 197.123 391.343 196.865 392.638 196.608L392.249 194.646C390.951 194.904 389.659 195.162 388.371 195.422L388.767 197.383ZM396.541 195.84C397.847 195.584 399.158 195.33 400.473 195.077L400.096 193.113C398.778 193.367 397.465 193.621 396.157 193.877L396.541 195.84ZM404.365 194.334C405.656 194.09 406.951 193.846 408.251 193.604L407.884 191.638C406.583 191.881 405.286 192.124 403.993 192.369L404.365 194.334ZM412.164 192.879C413.473 192.638 414.787 192.399 416.105 192.16L415.748 190.192C414.429 190.431 413.114 190.671 411.803 190.912L412.164 192.879ZM420.002 191.46C421.297 191.229 422.595 190.998 423.898 190.769L423.551 188.8C422.247 189.029 420.947 189.259 419.651 189.491L420.002 191.46ZM427.818 190.085C429.129 189.858 430.443 189.631 431.762 189.406L431.425 187.435C430.105 187.66 428.789 187.887 427.476 188.114L427.818 190.085ZM435.671 188.743C436.968 188.524 438.269 188.307 439.573 188.09L439.246 186.117C437.94 186.334 436.638 186.552 435.339 186.771L435.671 188.743ZM443.498 187.443C444.809 187.228 446.124 187.014 447.443 186.801L447.124 184.827C445.804 185.04 444.487 185.254 443.174 185.469L443.498 187.443ZM451.368 186.172C452.667 185.965 453.969 185.759 455.275 185.554L454.964 183.578C453.657 183.784 452.354 183.99 451.053 184.197L451.368 186.172ZM459.201 184.942C460.513 184.738 461.828 184.536 463.146 184.335L462.844 182.357C461.524 182.559 460.208 182.762 458.894 182.965L459.201 184.942ZM467.089 183.736C468.389 183.54 469.692 183.345 470.998 183.151L470.704 181.172C469.397 181.367 468.092 181.562 466.791 181.758L467.089 183.736ZM474.925 182.571C476.237 182.378 477.552 182.187 478.869 181.996L478.583 180.017C477.264 180.207 475.948 180.399 474.635 180.592L474.925 182.571ZM482.83 181.426C484.132 181.241 485.436 181.056 486.743 180.872L486.464 178.891C485.156 179.075 483.85 179.261 482.548 179.447L482.83 181.426ZM490.67 180.322C491.982 180.14 493.296 179.958 494.612 179.778L494.341 177.796C493.023 177.977 491.708 178.158 490.395 178.341L490.67 180.322ZM498.57 179.238C499.879 179.061 501.192 178.885 502.506 178.709L502.241 176.727C500.926 176.903 499.612 177.079 498.301 177.256L498.57 179.238ZM506.433 178.188C507.745 178.016 509.058 177.844 510.374 177.673L510.116 175.689C508.799 175.861 507.484 176.033 506.172 176.206L506.433 178.188ZM514.328 177.162C515.645 176.993 516.964 176.825 518.286 176.658L518.035 174.674C516.712 174.841 515.392 175.009 514.073 175.178L514.328 177.162ZM522.213 176.164C523.524 176.001 524.837 175.838 526.152 175.676L525.908 173.691C524.592 173.853 523.277 174.016 521.965 174.18L522.213 176.164ZM530.103 175.192C531.422 175.032 532.743 174.873 534.065 174.714L533.827 172.728C532.503 172.887 531.182 173.046 529.862 173.207L530.103 175.192ZM538.008 174.244C539.319 174.089 540.632 173.935 541.946 173.782L541.715 171.795C540.399 171.949 539.085 172.103 537.773 172.258L538.008 174.244ZM545.895 173.324C547.212 173.173 548.532 173.022 549.853 172.872L549.627 170.885C548.305 171.035 546.985 171.186 545.666 171.337L545.895 173.324ZM553.817 172.425C555.128 172.278 556.44 172.132 557.754 171.987L557.535 169.999C556.22 170.144 554.906 170.29 553.594 170.437L553.817 172.425ZM561.701 171.554C563.018 171.411 564.336 171.268 565.656 171.127L565.443 169.138C564.122 169.28 562.802 169.422 561.484 169.566L561.701 171.554ZM569.62 170.704C570.281 170.634 570.943 170.564 571.604 170.495L571.395 168.505C570.733 168.575 570.071 168.645 569.409 168.715L569.62 170.704Z" fill="black"/>
<path d="M579 192C579 194.72 577.795 197.458 575.335 200.2C572.869 202.947 569.185 205.645 564.359 208.247C554.707 213.449 540.674 218.165 523.249 222.138C488.415 230.079 440.244 235 387 235C333.756 235 285.584 230.079 250.751 222.138C233.326 218.165 219.293 213.449 209.641 208.247C204.815 205.645 201.131 202.947 198.665 200.2C196.205 197.458 195 194.72 195 192C195 189.28 196.205 186.542 198.665 183.8C201.131 181.053 204.815 178.355 209.641 175.753C219.293 170.551 233.326 165.835 250.751 161.862C285.584 153.921 333.756 149 387 149C440.244 149 488.415 153.921 523.249 161.862C540.674 165.835 554.707 170.551 564.359 175.753C569.185 178.355 572.869 181.053 575.335 183.8C577.795 186.542 579 189.28 579 192Z" stroke="black" stroke-width="2"/>
<path d="M467 627C467 628.004 466.571 629.06 465.601 630.172C464.625 631.29 463.141 632.417 461.15 633.521C457.167 635.73 451.337 637.752 444.047 639.461C429.484 642.878 409.314 645 387 645C364.686 645 344.516 642.878 329.953 639.461C322.663 637.752 316.833 635.73 312.85 633.521C310.859 632.417 309.375 631.29 308.399 630.172C307.429 629.06 307 628.004 307 627C307 625.996 307.429 624.94 308.399 623.828C309.375 622.71 310.859 621.583 312.85 620.479C316.833 618.27 322.663 616.248 329.953 614.539C344.516 611.122 364.686 609 387 609C409.314 609 429.484 611.122 444.047 614.539C451.337 616.248 457.167 618.27 461.15 620.479C463.141 621.583 464.625 622.71 465.601 623.828C466.571 624.94 467 625.996 467 627Z" fill="#E7E7E7" stroke="black" stroke-width="2"/>
<line x1="467.032" y1="625.75" x2="579.032" y2="191.75" stroke="black" stroke-width="2"/>
<line x1="307.032" y1="627.249" x2="195.032" y2="192.249" stroke="black" stroke-width="2"/>
<rect width="114" height="48" transform="translate(330 670)" fill="#E7E7E7"/>
<path d="M341.452 702H344.268V688.734H344.664L347.304 702H352.1L354.74 688.734H355.136V702H357.952V686.6H352.562L349.9 700.02H349.504L346.842 686.6H341.452V702ZM362.128 706.4H368.992C370.444 706.4 371.412 705.432 371.412 703.936V691.088H368.64V696.632C368.64 698.656 367.65 699.844 365.956 699.844C364.46 699.844 363.624 699.03 363.624 697.38V691.088H360.852V697.6C360.852 700.306 362.546 702.176 365.098 702.176C367.056 702.176 367.936 701.318 368.288 700.57H368.684V703.32C368.684 703.76 368.464 703.98 368.068 703.98H362.128V706.4ZM379.995 702H382.899V695.598H389.147V692.958H382.899V689.24H389.675V686.6H379.995V702ZM393.221 689.812C394.233 689.812 395.003 689.108 395.003 688.052C395.003 686.996 394.233 686.292 393.221 686.292C392.209 686.292 391.439 686.996 391.439 688.052C391.439 689.108 392.209 689.812 393.221 689.812ZM391.835 702H394.607V691.088H391.835V702ZM397.151 696.588C397.151 700.02 399.439 702.044 402.123 702.044C404.125 702.044 405.027 701.208 405.467 700.482H405.863V703.32C405.863 703.76 405.643 703.98 405.247 703.98H398.911V706.4H406.215C407.667 706.4 408.635 705.432 408.635 703.936V691.088H405.907V692.408H405.511C405.027 691.66 404.103 690.78 402.123 690.78C399.417 690.78 397.151 692.804 397.151 696.236V696.588ZM402.915 699.624C401.221 699.624 399.923 698.502 399.923 696.522V696.302C399.923 694.322 401.199 693.2 402.915 693.2C404.631 693.2 405.907 694.322 405.907 696.302V696.522C405.907 698.502 404.609 699.624 402.915 699.624ZM411.708 702H414.48V696.456C414.48 694.432 415.47 693.244 417.164 693.244C418.66 693.244 419.496 694.058 419.496 695.708V702H422.268V695.488C422.268 692.782 420.574 690.912 418.022 690.912C416.086 690.912 415.228 691.726 414.876 692.43H414.48V686.6H411.708V702ZM429.144 702H432.224V699.712H430.112C429.716 699.712 429.496 699.492 429.496 699.052V693.376H432.488V691.088H429.496V687.7H426.724V691.088H423.996V693.376H426.724V699.536C426.724 701.032 427.692 702 429.144 702Z" fill="black"/>
<rect width="84" height="48" transform="translate(544 429)" fill="#FFD25F"/>
<path d="M555.452 461H558.268V447.734H558.664L561.304 461H566.1L568.74 447.734H569.136V461H571.952V445.6H566.562L563.9 459.02H563.504L560.842 445.6H555.452V461ZM579.098 461.176C581.056 461.176 581.936 460.318 582.288 459.57H582.684V461H585.412V450.088H582.64V455.632C582.64 457.656 581.65 458.844 579.956 458.844C578.46 458.844 577.624 458.03 577.624 456.38V450.088H574.852V456.6C574.852 459.306 576.546 461.176 579.098 461.176ZM593.029 461.308C595.801 461.308 597.605 460.01 597.605 457.722C597.605 455.434 595.669 454.73 593.205 454.29L592.589 454.18C591.577 454.004 590.961 453.718 590.961 453.014C590.961 452.376 591.533 451.98 592.589 451.98C593.645 451.98 594.393 452.398 594.635 453.52L597.209 452.728C596.703 450.968 595.031 449.78 592.589 449.78C589.993 449.78 588.277 450.99 588.277 453.146C588.277 455.302 590.169 456.16 592.457 456.578L593.073 456.688C594.371 456.93 594.921 457.238 594.921 457.92C594.921 458.602 594.305 459.108 593.029 459.108C591.753 459.108 590.719 458.624 590.433 457.084L587.881 457.744C588.255 460.032 590.169 461.308 593.029 461.308ZM601.42 448.812C602.432 448.812 603.202 448.108 603.202 447.052C603.202 445.996 602.432 445.292 601.42 445.292C600.408 445.292 599.638 445.996 599.638 447.052C599.638 448.108 600.408 448.812 601.42 448.812ZM600.034 461H602.806V450.088H600.034V461ZM611.004 461.308C614.128 461.308 615.91 459.482 616.482 457.128L613.798 456.49C613.556 457.898 612.742 458.844 611.07 458.844C609.398 458.844 608.122 457.722 608.122 455.654V455.434C608.122 453.366 609.398 452.244 611.07 452.244C612.742 452.244 613.556 453.256 613.732 454.576L616.416 454.004C615.954 451.584 614.128 449.78 611.004 449.78C607.836 449.78 605.35 451.826 605.35 455.39V455.698C605.35 459.262 607.836 461.308 611.004 461.308Z" fill="black"/>
<rect width="99" height="48" transform="translate(517 61)" fill="#646AFE"/>
<path d="M527.396 93H530.388L531.224 89.612H536.724L537.56 93H540.552L536.504 77.6H531.444L527.396 93ZM531.906 86.928L533.776 79.426H534.172L536.042 86.928H531.906ZM542.395 93H545.299V77.6H542.395V93ZM546.392 97.4H549.164L555.632 77.6H552.86L546.392 97.4ZM560.719 93H563.623V80.24H568.111V77.6H556.231V80.24H560.719V93ZM573.086 93.308C576.078 93.308 577.376 91.614 577.992 90.448L575.726 89.26C575.352 90.096 574.714 90.888 573.174 90.888C571.634 90.888 570.468 89.854 570.402 88.358H578.344V87.412C578.344 84.068 576.254 81.78 573.042 81.78C569.786 81.78 567.586 83.98 567.586 87.412V87.676C567.586 91.108 569.808 93.308 573.086 93.308ZM570.424 86.29C570.622 85.036 571.524 84.2 573.02 84.2C574.45 84.2 575.396 85.036 575.528 86.29H570.424ZM585.937 93.308C589.061 93.308 590.843 91.482 591.415 89.128L588.731 88.49C588.489 89.898 587.675 90.844 586.003 90.844C584.331 90.844 583.055 89.722 583.055 87.654V87.434C583.055 85.366 584.331 84.244 586.003 84.244C587.675 84.244 588.489 85.256 588.665 86.576L591.349 86.004C590.887 83.584 589.061 81.78 585.937 81.78C582.769 81.78 580.283 83.826 580.283 87.39V87.698C580.283 91.262 582.769 93.308 585.937 93.308ZM593.702 93H596.474V87.456C596.474 85.432 597.464 84.244 599.158 84.244C600.654 84.244 601.49 85.058 601.49 86.708V93H604.262V86.488C604.262 83.782 602.568 81.912 600.016 81.912C598.08 81.912 597.222 82.726 596.87 83.43H596.474V77.6H593.702V93Z" fill="white"/>
<rect width="54" height="48" transform="translate(236 61)" fill="#53AA0E"/>
<path d="M247.012 93H255.02C257.77 93 259.684 91.504 259.684 88.93V88.71C259.684 86.51 258.21 85.652 257.242 85.388V84.992C258.188 84.706 259.596 83.848 259.596 81.714V81.494C259.596 79.096 257.748 77.6 254.932 77.6H247.012V80.152H249.036V90.448H247.012V93ZM251.94 83.936V80.24H254.624C255.856 80.24 256.692 80.878 256.692 81.978V82.198C256.692 83.298 255.834 83.936 254.624 83.936H251.94ZM251.94 90.36V86.576H254.668C255.944 86.576 256.78 87.214 256.78 88.358V88.578C256.78 89.722 255.922 90.36 254.668 90.36H251.94ZM263.535 80.812C264.547 80.812 265.317 80.108 265.317 79.052C265.317 77.996 264.547 77.292 263.535 77.292C262.523 77.292 261.753 77.996 261.753 79.052C261.753 80.108 262.523 80.812 263.535 80.812ZM262.149 93H264.921V82.088H262.149V93ZM273.185 93.308C276.441 93.308 278.905 91.24 278.905 87.72V87.368C278.905 83.848 276.441 81.78 273.185 81.78C269.929 81.78 267.465 83.848 267.465 87.368V87.72C267.465 91.24 269.929 93.308 273.185 93.308ZM273.185 90.844C271.491 90.844 270.237 89.7 270.237 87.654V87.434C270.237 85.388 271.469 84.244 273.185 84.244C274.901 84.244 276.133 85.388 276.133 87.434V87.654C276.133 89.7 274.879 90.844 273.185 90.844Z" fill="white"/>
<path d="M62.452 145H65.356V139.368H68.788C71.604 139.368 73.716 137.52 73.716 134.638V134.33C73.716 131.448 71.692 129.6 68.788 129.6H62.452V145ZM65.356 136.728V132.24H68.502C69.888 132.24 70.812 133.054 70.812 134.374V134.594C70.812 135.914 69.866 136.728 68.502 136.728H65.356ZM75.8173 145H78.5893V139.456C78.5893 137.432 79.5793 136.244 81.2733 136.244C82.7693 136.244 83.6053 137.058 83.6053 138.708V145H86.3773V138.488C86.3773 135.782 84.6833 133.912 82.1313 133.912C80.1953 133.912 79.3373 134.726 78.9853 135.43H78.5893V129.6H75.8173V145ZM90.76 132.812C91.772 132.812 92.542 132.108 92.542 131.052C92.542 129.996 91.772 129.292 90.76 129.292C89.748 129.292 88.978 129.996 88.978 131.052C88.978 132.108 89.748 132.812 90.76 132.812ZM89.374 145H92.146V134.088H89.374V145ZM95.2177 145H97.9897V129.6H95.2177V145ZM106.253 145.308C109.509 145.308 111.973 143.24 111.973 139.72V139.368C111.973 135.848 109.509 133.78 106.253 133.78C102.997 133.78 100.533 135.848 100.533 139.368V139.72C100.533 143.24 102.997 145.308 106.253 145.308ZM106.253 142.844C104.559 142.844 103.305 141.7 103.305 139.654V139.434C103.305 137.388 104.537 136.244 106.253 136.244C107.969 136.244 109.201 137.388 109.201 139.434V139.654C109.201 141.7 107.947 142.844 106.253 142.844ZM119.064 145.308C121.836 145.308 123.64 144.01 123.64 141.722C123.64 139.434 121.704 138.73 119.24 138.29L118.624 138.18C117.612 138.004 116.996 137.718 116.996 137.014C116.996 136.376 117.568 135.98 118.624 135.98C119.68 135.98 120.428 136.398 120.67 137.52L123.244 136.728C122.738 134.968 121.066 133.78 118.624 133.78C116.028 133.78 114.312 134.99 114.312 137.146C114.312 139.302 116.204 140.16 118.492 140.578L119.108 140.688C120.406 140.93 120.956 141.238 120.956 141.92C120.956 142.602 120.34 143.108 119.064 143.108C117.788 143.108 116.754 142.624 116.468 141.084L113.916 141.744C114.29 144.032 116.204 145.308 119.064 145.308ZM131.261 145.308C134.517 145.308 136.981 143.24 136.981 139.72V139.368C136.981 135.848 134.517 133.78 131.261 133.78C128.005 133.78 125.541 135.848 125.541 139.368V139.72C125.541 143.24 128.005 145.308 131.261 145.308ZM131.261 142.844C129.567 142.844 128.313 141.7 128.313 139.654V139.434C128.313 137.388 129.545 136.244 131.261 136.244C132.977 136.244 134.209 137.388 134.209 139.434V139.654C134.209 141.7 132.955 142.844 131.261 142.844ZM141 145H143.772V136.376H146.632V134.088H143.772V132.548C143.772 132.108 143.992 131.888 144.388 131.888H146.28V129.6H143.42C141.968 129.6 141 130.568 141 132.064V134.088H138.228V136.376H141V145ZM153.407 145.308C156.399 145.308 157.697 143.614 158.313 142.448L156.047 141.26C155.673 142.096 155.035 142.888 153.495 142.888C151.955 142.888 150.789 141.854 150.723 140.358H158.665V139.412C158.665 136.068 156.575 133.78 153.363 133.78C150.107 133.78 147.907 135.98 147.907 139.412V139.676C147.907 143.108 150.129 145.308 153.407 145.308ZM150.745 138.29C150.943 137.036 151.845 136.2 153.341 136.2C154.771 136.2 155.717 137.036 155.849 138.29H150.745ZM161.132 145H163.904V138.796C163.904 137.256 164.916 136.508 166.324 136.508H167.688V134.044H166.368C165.356 134.044 164.564 134.44 164.256 135.32H163.86V134.088H161.132V145ZM169.854 145H172.626V139.456C172.626 137.432 173.616 136.244 175.31 136.244C176.806 136.244 177.642 137.058 177.642 138.708V145H180.414V138.488C180.414 135.782 178.72 133.912 176.168 133.912C174.21 133.912 173.33 134.77 172.978 135.518H172.582V134.088H169.854V145Z" fill="black"/>
<rect x="51.5" y="113.5" width="140" height="47" stroke="black"/>
<path d="M610.396 257H613.388L614.224 253.612H619.724L620.56 257H623.552L619.504 241.6H614.444L610.396 257ZM614.906 250.928L616.776 243.426H617.172L619.042 250.928H614.906ZM625.483 257H628.255V251.456C628.255 249.432 629.245 248.244 630.939 248.244C632.435 248.244 633.271 249.058 633.271 250.708V257H636.043V250.488C636.043 247.782 634.349 245.912 631.797 245.912C629.839 245.912 628.959 246.77 628.607 247.518H628.211V246.088H625.483V257ZM642.919 257H645.999V254.712H643.887C643.491 254.712 643.271 254.492 643.271 254.052V248.376H646.263V246.088H643.271V242.7H640.499V246.088H637.771V248.376H640.499V254.536C640.499 256.032 641.467 257 642.919 257ZM654.27 257H657.174V251.192H661.222C662.08 251.192 662.41 251.676 662.41 252.38V257H665.314V251.962C665.314 250.73 664.632 249.938 663.466 249.872V249.476C664.764 248.948 665.754 247.826 665.754 245.978V245.714C665.754 243.228 663.84 241.6 660.958 241.6H654.27V257ZM657.174 248.552V244.24H660.65C662.058 244.24 662.85 245.054 662.85 246.286V246.506C662.85 247.738 662.014 248.552 660.65 248.552H657.174ZM669.645 244.812C670.657 244.812 671.427 244.108 671.427 243.052C671.427 241.996 670.657 241.292 669.645 241.292C668.633 241.292 667.863 241.996 667.863 243.052C667.863 244.108 668.633 244.812 669.645 244.812ZM668.259 257H671.031V246.088H668.259V257ZM673.575 251.588C673.575 255.02 675.863 257.044 678.547 257.044C680.549 257.044 681.451 256.208 681.891 255.482H682.287V258.32C682.287 258.76 682.067 258.98 681.671 258.98H675.335V261.4H682.639C684.091 261.4 685.059 260.432 685.059 258.936V246.088H682.331V247.408H681.935C681.451 246.66 680.527 245.78 678.547 245.78C675.841 245.78 673.575 247.804 673.575 251.236V251.588ZM679.339 254.624C677.645 254.624 676.347 253.502 676.347 251.522V251.302C676.347 249.322 677.623 248.2 679.339 248.2C681.055 248.2 682.331 249.322 682.331 251.302V251.522C682.331 253.502 681.033 254.624 679.339 254.624ZM688.132 257H690.904V251.456C690.904 249.432 691.894 248.244 693.588 248.244C695.084 248.244 695.92 249.058 695.92 250.708V257H698.692V250.488C698.692 247.782 696.998 245.912 694.446 245.912C692.51 245.912 691.652 246.726 691.3 247.43H690.904V241.6H688.132V257ZM705.568 257H708.648V254.712H706.536C706.14 254.712 705.92 254.492 705.92 254.052V248.376H708.912V246.088H705.92V242.7H703.148V246.088H700.42V248.376H703.148V254.536C703.148 256.032 704.116 257 705.568 257ZM715.953 257.308C718.725 257.308 720.529 256.01 720.529 253.722C720.529 251.434 718.593 250.73 716.129 250.29L715.513 250.18C714.501 250.004 713.885 249.718 713.885 249.014C713.885 248.376 714.457 247.98 715.513 247.98C716.569 247.98 717.317 248.398 717.559 249.52L720.133 248.728C719.627 246.968 717.955 245.78 715.513 245.78C712.917 245.78 711.201 246.99 711.201 249.146C711.201 251.302 713.093 252.16 715.381 252.578L715.997 252.688C717.295 252.93 717.845 253.238 717.845 253.92C717.845 254.602 717.229 255.108 715.953 255.108C714.677 255.108 713.643 254.624 713.357 253.084L710.805 253.744C711.179 256.032 713.093 257.308 715.953 257.308Z" fill="black"/>
<rect x="600.5" y="225.5" width="131" height="47" stroke="black"/>
<path d="M611.452 380H614.268V366.734H614.664L617.304 380H622.1L624.74 366.734H625.136V380H627.952V364.6H622.562L619.9 378.02H619.504L616.842 364.6H611.452V380ZM635.912 380.308C638.904 380.308 640.202 378.614 640.818 377.448L638.552 376.26C638.178 377.096 637.54 377.888 636 377.888C634.46 377.888 633.294 376.854 633.228 375.358H641.17V374.412C641.17 371.068 639.08 368.78 635.868 368.78C632.612 368.78 630.412 370.98 630.412 374.412V374.676C630.412 378.108 632.634 380.308 635.912 380.308ZM633.25 373.29C633.448 372.036 634.35 371.2 635.846 371.2C637.276 371.2 638.222 372.036 638.354 373.29H633.25ZM643.638 380H646.41V374.456C646.41 372.432 647.4 371.244 649.094 371.244C650.59 371.244 651.426 372.058 651.426 373.708V380H654.198V373.488C654.198 370.782 652.504 368.912 649.952 368.912C648.016 368.912 647.158 369.726 646.806 370.43H646.41V364.6H643.638V380ZM657.194 380H659.966V373.796C659.966 372.256 660.978 371.508 662.386 371.508H663.75V369.044H662.43C661.418 369.044 660.626 369.44 660.318 370.32H659.922V369.088H657.194V380ZM665.917 380H668.689V373.796C668.689 372.256 669.701 371.508 671.109 371.508H672.473V369.044H671.153C670.141 369.044 669.349 369.44 669.041 370.32H668.645V369.088H665.917V380ZM679.445 380.308C682.701 380.308 685.165 378.24 685.165 374.72V374.368C685.165 370.848 682.701 368.78 679.445 368.78C676.189 368.78 673.725 370.848 673.725 374.368V374.72C673.725 378.24 676.189 380.308 679.445 380.308ZM679.445 377.844C677.751 377.844 676.497 376.7 676.497 374.654V374.434C676.497 372.388 677.729 371.244 679.445 371.244C681.161 371.244 682.393 372.388 682.393 374.434V374.654C682.393 376.7 681.139 377.844 679.445 377.844ZM687.724 380H690.496V373.796C690.496 372.256 691.508 371.508 692.916 371.508H694.28V369.044H692.96C691.948 369.044 691.156 369.44 690.848 370.32H690.452V369.088H687.724V380Z" fill="black"/>
<rect x="600.5" y="348.5" width="104" height="47" stroke="black"/>
<path d="M68.436 268.308C72.308 268.308 74.772 266.108 74.772 262.148V258.452C74.772 254.492 72.308 252.292 68.436 252.292C64.564 252.292 62.1 254.492 62.1 258.452V262.148C62.1 266.108 64.564 268.308 68.436 268.308ZM68.436 265.712C66.28 265.712 65.004 264.348 65.004 262.236V258.364C65.004 256.252 66.28 254.888 68.436 254.888C70.592 254.888 71.868 256.252 71.868 258.364V262.236C71.868 264.348 70.592 265.712 68.436 265.712ZM77.4072 272.4H80.1792V266.746H80.5752C81.0372 267.516 81.9832 268.308 83.9632 268.308C86.6032 268.308 88.8912 266.284 88.8912 262.72V262.368C88.8912 258.804 86.5812 256.78 83.9632 256.78C81.9832 256.78 81.0372 257.572 80.5312 258.408H80.1352V257.088H77.4072V272.4ZM83.1272 265.888C81.4112 265.888 80.1352 264.766 80.1352 262.654V262.434C80.1352 260.322 81.4332 259.2 83.1272 259.2C84.8212 259.2 86.1192 260.322 86.1192 262.434V262.654C86.1192 264.766 84.8432 265.888 83.1272 265.888ZM96.4085 268.308C99.4005 268.308 100.698 266.614 101.314 265.448L99.0485 264.26C98.6745 265.096 98.0365 265.888 96.4965 265.888C94.9565 265.888 93.7905 264.854 93.7245 263.358H101.666V262.412C101.666 259.068 99.5765 256.78 96.3645 256.78C93.1085 256.78 90.9085 258.98 90.9085 262.412V262.676C90.9085 266.108 93.1305 268.308 96.4085 268.308ZM93.7465 261.29C93.9445 260.036 94.8465 259.2 96.3425 259.2C97.7725 259.2 98.7185 260.036 98.8505 261.29H93.7465ZM104.134 268H106.906V262.456C106.906 260.432 107.896 259.244 109.59 259.244C111.086 259.244 111.922 260.058 111.922 261.708V268H114.694V261.488C114.694 258.782 113 256.912 110.448 256.912C108.49 256.912 107.61 257.77 107.258 258.518H106.862V257.088H104.134V268ZM67.798 296.308C71.362 296.308 73.628 294.372 73.628 291.556C73.628 288.74 71.45 287.596 68.172 286.892L67.666 286.782C65.818 286.386 64.96 285.836 64.96 284.692C64.96 283.548 65.774 282.844 67.534 282.844C69.294 282.844 70.372 283.548 70.372 285.308V285.968H73.232V285.308C73.232 281.964 70.834 280.292 67.534 280.292C64.234 280.292 62.1 281.964 62.1 284.78C62.1 287.596 63.97 288.674 67.16 289.378L67.666 289.488C69.646 289.928 70.768 290.368 70.768 291.644C70.768 292.876 69.778 293.756 67.798 293.756C65.818 293.756 64.608 292.832 64.608 290.984V290.368H61.748V290.984C61.748 294.328 64.234 296.308 67.798 296.308ZM75.8818 300.4H78.6538V294.746H79.0498C79.5118 295.516 80.4578 296.308 82.4378 296.308C85.0778 296.308 87.3658 294.284 87.3658 290.72V290.368C87.3658 286.804 85.0558 284.78 82.4378 284.78C80.4578 284.78 79.5118 285.572 79.0058 286.408H78.6098V285.088H75.8818V300.4ZM81.6018 293.888C79.8858 293.888 78.6098 292.766 78.6098 290.654V290.434C78.6098 288.322 79.9078 287.2 81.6018 287.2C83.2958 287.2 84.5938 288.322 84.5938 290.434V290.654C84.5938 292.766 83.3178 293.888 81.6018 293.888ZM91.2971 283.812C92.3091 283.812 93.0791 283.108 93.0791 282.052C93.0791 280.996 92.3091 280.292 91.2971 280.292C90.2851 280.292 89.5151 280.996 89.5151 282.052C89.5151 283.108 90.2851 283.812 91.2971 283.812ZM89.9111 296H92.6831V285.088H89.9111V296ZM95.7548 296H98.5268V289.796C98.5268 288.256 99.5388 287.508 100.947 287.508H102.311V285.044H100.991C99.9788 285.044 99.1868 285.44 98.8788 286.32H98.4828V285.088H95.7548V296ZM108.636 296.176C110.594 296.176 111.474 295.318 111.826 294.57H112.222V296H114.95V285.088H112.178V290.632C112.178 292.656 111.188 293.844 109.494 293.844C107.998 293.844 107.162 293.03 107.162 291.38V285.088H104.389V291.6C104.389 294.306 106.084 296.176 108.636 296.176ZM118.034 296H120.806V280.6H118.034V296ZM125.264 283.812C126.276 283.812 127.046 283.108 127.046 282.052C127.046 280.996 126.276 280.292 125.264 280.292C124.252 280.292 123.482 280.996 123.482 282.052C123.482 283.108 124.252 283.812 125.264 283.812ZM123.878 296H126.65V285.088H123.878V296ZM129.722 296H132.494V290.456C132.494 288.432 133.484 287.244 135.178 287.244C136.674 287.244 137.51 288.058 137.51 289.708V296H140.282V289.488C140.282 286.782 138.588 284.912 136.036 284.912C134.078 284.912 133.198 285.77 132.846 286.518H132.45V285.088H129.722V296ZM146.666 296.308C148.954 296.308 149.636 295.076 149.834 294.526H150.252V294.548C150.252 295.428 151.044 296 152.122 296H153.97V293.712H153.09C152.694 293.712 152.474 293.492 152.474 293.052V288.982C152.474 286.254 150.67 284.78 147.81 284.78C144.972 284.78 143.542 286.21 143.014 287.86L145.566 288.718C145.764 287.728 146.38 287.024 147.766 287.024C149.174 287.024 149.79 287.772 149.79 288.784V289.4H146.798C144.334 289.4 142.574 290.566 142.574 292.81C142.574 295.054 144.334 296.308 146.666 296.308ZM147.15 294.064C145.962 294.064 145.346 293.514 145.346 292.722C145.346 291.93 145.962 291.468 146.996 291.468H149.79V291.688C149.79 293.14 148.69 294.064 147.15 294.064ZM62.452 324H65.356V317.598H71.604V314.958H65.356V311.24H72.132V308.6H62.452V324ZM77.5081 324.308C79.7961 324.308 80.4781 323.076 80.6761 322.526H81.0941V322.548C81.0941 323.428 81.8861 324 82.9641 324H84.8121V321.712H83.9321C83.5361 321.712 83.3161 321.492 83.3161 321.052V316.982C83.3161 314.254 81.5121 312.78 78.6521 312.78C75.8141 312.78 74.3841 314.21 73.8561 315.86L76.4081 316.718C76.6061 315.728 77.2221 315.024 78.6081 315.024C80.0161 315.024 80.6321 315.772 80.6321 316.784V317.4H77.6401C75.1761 317.4 73.4161 318.566 73.4161 320.81C73.4161 323.054 75.1761 324.308 77.5081 324.308ZM77.9921 322.064C76.8041 322.064 76.1881 321.514 76.1881 320.722C76.1881 319.93 76.8041 319.468 77.8381 319.468H80.6321V319.688C80.6321 321.14 79.5321 322.064 77.9921 322.064ZM86.8388 324H89.6108V317.796C89.6108 316.256 90.6228 315.508 92.0308 315.508H93.3948V313.044H92.0748C91.0628 313.044 90.2708 313.44 89.9628 314.32H89.5668V313.088H86.8388V324ZM95.5615 324H98.3335V317.554C98.3335 316.058 99.0375 315.222 100.313 315.222C101.413 315.222 102.073 315.838 102.073 317.026V324H104.845V317.554C104.845 316.058 105.549 315.222 106.825 315.222C107.925 315.222 108.585 315.838 108.585 317.026V324H111.357V316.828C111.357 314.188 109.729 312.912 107.705 312.912C106.033 312.912 105.197 313.616 104.713 314.54H104.317C103.811 313.572 102.931 312.912 101.369 312.912C99.9175 312.912 99.0595 313.55 98.6855 314.276H98.2895V313.088H95.5615V324Z" fill="black"/>
<rect x="51.5" y="236.5" width="113" height="103" stroke="black"/>
<path d="M62.452 447H65.356V441.368H68.788C71.604 441.368 73.716 439.52 73.716 436.638V436.33C73.716 433.448 71.692 431.6 68.788 431.6H62.452V447ZM65.356 438.728V434.24H68.502C69.888 434.24 70.812 435.054 70.812 436.374V436.594C70.812 437.914 69.866 438.728 68.502 438.728H65.356ZM75.8173 447H78.5893V431.6H75.8173V447ZM85.0491 447.308C87.3371 447.308 88.0191 446.076 88.2171 445.526H88.6351V445.548C88.6351 446.428 89.4271 447 90.5051 447H92.3531V444.712H91.4731C91.0771 444.712 90.8571 444.492 90.8571 444.052V439.982C90.8571 437.254 89.0531 435.78 86.1931 435.78C83.3551 435.78 81.9251 437.21 81.3971 438.86L83.9491 439.718C84.1471 438.728 84.7631 438.024 86.1491 438.024C87.5571 438.024 88.1731 438.772 88.1731 439.784V440.4H85.1811C82.7171 440.4 80.9571 441.566 80.9571 443.81C80.9571 446.054 82.7171 447.308 85.0491 447.308ZM85.5331 445.064C84.3451 445.064 83.7291 444.514 83.7291 443.722C83.7291 442.93 84.3451 442.468 85.3791 442.468H88.1731V442.688C88.1731 444.14 87.0731 445.064 85.5331 445.064ZM94.3798 447H97.1518V441.456C97.1518 439.432 98.1418 438.244 99.8358 438.244C101.332 438.244 102.168 439.058 102.168 440.708V447H104.94V440.488C104.94 437.782 103.246 435.912 100.694 435.912C98.7358 435.912 97.8558 436.77 97.5038 437.518H97.1078V436.088H94.3798V447ZM111.816 447H114.896V444.712H112.784C112.388 444.712 112.168 444.492 112.168 444.052V438.376H115.16V436.088H112.168V432.7H109.396V436.088H106.668V438.376H109.396V444.536C109.396 446.032 110.364 447 111.816 447ZM122.727 447H130.735C133.485 447 135.399 445.504 135.399 442.93V442.71C135.399 440.51 133.925 439.652 132.957 439.388V438.992C133.903 438.706 135.311 437.848 135.311 435.714V435.494C135.311 433.096 133.463 431.6 130.647 431.6H122.727V434.152H124.751V444.448H122.727V447ZM127.655 437.936V434.24H130.339C131.571 434.24 132.407 434.878 132.407 435.978V436.198C132.407 437.298 131.549 437.936 130.339 437.936H127.655ZM127.655 444.36V440.576H130.383C131.659 440.576 132.495 441.214 132.495 442.358V442.578C132.495 443.722 131.637 444.36 130.383 444.36H127.655Z" fill="black"/>
<rect x="51.5" y="415.5" width="95" height="47" stroke="black"/>
<ellipse cx="486.5" cy="185" rx="8.5" ry="12" transform="rotate(4.6145 486.5 185)" fill="white"/>
<ellipse cx="341.5" cy="209" rx="10.5" ry="12" fill="white"/>
<ellipse cx="331.5" cy="324" rx="10.5" ry="12" fill="white"/>
<ellipse cx="226.202" cy="280.261" rx="4.99247" ry="14.5" transform="rotate(-13.3346 226.202 280.261)" fill="white"/>
<ellipse rx="5.15605" ry="14.5" transform="matrix(-0.97304 -0.230637 -0.230637 0.97304 525.361 327.298)" fill="white"/>
<line x1="487.243" y1="185.563" x2="600.243" y2="248.563" stroke="black"/>
<line x1="526.26" y1="326.573" x2="600.26" y2="371.573" stroke="black"/>
<line x1="338.783" y1="208.45" x2="191.783" y2="137.45" stroke="black"/>
<line x1="226.008" y1="280.5" x2="165.008" y2="281.5" stroke="black"/>
<line x1="331.267" y1="323.423" x2="147.267" y2="439.423" stroke="black"/>
<defs>
<linearGradient id="paint0_linear_223_362" x1="459.672" y1="149.903" x2="389" y2="630" gradientUnits="userSpaceOnUse">
<stop stop-color="#6066FF"/>
<stop offset="1" stop-color="#C4C4C4" stop-opacity="0"/>
</linearGradient>
<linearGradient id="paint1_linear_223_362" x1="295" y1="157" x2="337.5" y2="619.5" gradientUnits="userSpaceOnUse">
<stop stop-color="#49A600"/>
<stop offset="1" stop-color="#C4C4C4" stop-opacity="0"/>
</linearGradient>
<linearGradient id="paint2_linear_223_362" x1="295" y1="157" x2="337.5" y2="619.5" gradientUnits="userSpaceOnUse">
<stop stop-color="#49A600"/>
<stop offset="1" stop-color="#C4C4C4" stop-opacity="0"/>
</linearGradient>
<linearGradient id="paint3_linear_223_362" x1="444.5" y1="237.5" x2="404" y2="609" gradientUnits="userSpaceOnUse">
<stop offset="0.234375" stop-color="#FFD25F"/>
<stop offset="1" stop-color="#C4C4C4" stop-opacity="0"/>
</linearGradient>
</defs>
</svg>
